SplineFontDB: 3.0
FontName: Nobile-Regular
FullName: Nobile Regular
FamilyName: Nobile
Weight: Normal
ItalicAngle: 0
UnderlinePosition: 0
UnderlineWidth: 0
Ascent: 1638
Descent: 410
UFOAscent: 1638
UFODescent: -410
LayerCount: 2
Layer: 0 0 "Back"  1
Layer: 1 0 "Fore"  0
OS2Version: 0
OS2_WeightWidthSlopeOnly: 0
OS2_UseTypoMetrics: 0
CreationTime: 1392832775
ModificationTime: 1392841907
PfmFamily: 0
TTFWeight: 396
TTFWidth: 5
LineGap: 0
VLineGap: 0
OS2TypoAscent: 1638
OS2TypoAOffset: 0
OS2TypoDescent: 410
OS2TypoDOffset: 0
OS2TypoLinegap: 0
OS2WinAscent: 2681
OS2WinAOffset: 0
OS2WinDescent: -610
OS2WinDOffset: 0
HheadAscent: 0
HheadAOffset: 1
HheadDescent: 0
HheadDOffset: 1
OS2Vendor: 'PfEd'
Lookup: 258 0 0 "'kern' Horizontal Kerning in Latin lookup 0"  {"'kern' Horizontal Kerning in Latin lookup 0 subtable"  } ['kern' ('latn' <'dflt' > ) ]
DEI: 91125
PickledData: "(dp1
S'com.typemytype.robofont.compileSettings.autohint'
p2
I1
sS'com.typemytype.robofont.compileSettings.decompose'
p3
I1
sS'com.typemytype.robofont.foreground.layerStrokeColor'
p4
(F0.5
I0
F0.5
F0.69999999999999996
tp5
sS'com.typemytype.robofont.guides'
p6
((dp7
S'y'
I1188
sS'x'
I264
sS'magnetic'
p8
I5
sS'angle'
p9
I0
sS'isGlobal'
p10
I1
s(dp11
S'y'
I1108
sS'x'
I270
sg8
I5
sg9
I0
sg10
I1
s(dp12
S'y'
I64
sS'x'
I309
sg8
I5
sg9
I0
sg10
I1
s(dp13
S'y'
S'-16'
p14
sS'x'
I263
sg8
I5
sg9
I0
sg10
I1
stp15
sS'com.schriftgestaltung.fontMasterID'
p16
S'67845082-4271-4E32-8C80-EE8FB13E39CE'
p17
sS'com.typemytype.robofont.compileSettings.releaseMode'
p18
I0
sS'GSDimensionPlugin.Dimensions'
p19
(dp20
S'5F2F3E34-E24A-4A89-B41B-C326736566A0'
p21
(dp22
sS'67845082-4271-4E32-8C80-EE8FB13E39CE'
p23
(dp24
ssS'com.superpolator.editor.generateInfo'
p25
S'Generated with LTR Superpolator version 100119_1225'
p26
sS'com.typemytype.robofont.b.layerStrokeColor'
p27
(I1
F0.75
I0
F0.69999999999999996
tp28
sS'com.schriftgestaltung.useNiceNames'
p29
I00
sS'com.typemytype.robofont.layerOrder'
p30
(S'b'
tp31

StartChar: A
Encoding: 65 65 0
Width: 1331
VWidth: 0
GlyphClass: 2
Flags: MW
PickledData: "(dp1
S'name'
p2
S'A'
sS'unicodes'
p3
(tsS'org.robofab.postScriptHintData'
p4
(dp5
sS'width'
p6
I1357
sS'contours'
p7
(tsS'components'
p8
(tsS'position'
p9
I1580
sS'anchors'
p10
(ts."
AnchorPoint: "top" 660 1485 basechar 0
AnchorPoint: "ogonek" 1182 0 basechar 0
LayerCount: 2
Fore
SplineSet
37 0 m 257
 214 0 l 257
 331 361 l 257
 992 361 l 257
 1108 0 l 257
 1286 0 l 257
 799 1485 l 257
 523 1485 l 257
 37 0 l 257
362 456 m 257
 661 1375 l 257
 961 456 l 257
 362 456 l 257
EndSplineSet
EndChar

StartChar: AE
Encoding: 198 198 1
Width: 1661
VWidth: 0
GlyphClass: 2
Flags: MW
PickledData: "(dp1
S'org.robofab.postScriptHintData'
p2
(dp3
sS'position'
p4
I981
sS'width'
p5
I63
s."
AnchorPoint: "top" 1097 1485 basechar 0
LayerCount: 2
Fore
SplineSet
-39 0 m 257
 149 0 l 257
 330 349 l 257
 853 349 l 257
 853 0 l 257
 1639 0 l 257
 1639 133 l 257
 1006 133 l 257
 1006 720 l 257
 1572 720 l 257
 1572 838 l 257
 1004 838 l 257
 1004 1354 l 257
 1612 1354 l 257
 1612 1486 l 257
 737 1486 l 257
 -39 0 l 257
386 462 m 257
 851 1372 l 257
 851 462 l 257
 386 462 l 257
EndSplineSet
EndChar

StartChar: B
Encoding: 66 66 13
Width: 1362
VWidth: 0
GlyphClass: 2
Flags: MW
PickledData: "(dp1
S'name'
p2
S'B'
sS'com.typemytype.robofont.layerData'
p3
(dp4
S'b'
(dp5
g2
S'B'
sS'lib'
p6
(dp7
sS'unicodes'
p8
(tsS'width'
p9
I1286
sS'contours'
p10
(tsS'components'
p11
(tsS'anchors'
p12
(tsssg8
(tsS'org.robofab.postScriptHintData'
p13
(dp14
sS'com.fontlab.hintData'
p15
(dp16
S'vhints'
p17
((dp18
S'position'
p19
I1004
sg9
I151
s(dp20
g19
I1065
sg9
I167
stp21
sS'hhints'
p22
((dp23
g19
I0
sg9
I133
s(dp24
g19
I739
sg9
I119
s(dp25
g19
I1354
sg9
I131
stp26
ssg9
I1287
sg10
(tsg11
(tsg19
I1122
sg12
(ts."
AnchorPoint: "top" 661 1485 basechar 0
LayerCount: 2
Fore
SplineSet
181 0 m 257
 594 0 l 258
 880 0 1232 44 1232 409 c 256
 1232 658 1101 770 888 807 c 257
 1059 845 1155 919 1155 1119 c 256
 1155 1477 820 1485 540 1485 c 258
 181 1485 l 257
 181 0 l 257
361 133 m 257
 361 739 l 257
 610 739 l 258
 836 739 1065 714 1065 438 c 256
 1065 141 829 133 593 133 c 258
 361 133 l 257
361 858 m 257
 361 1354 l 257
 543 1354 l 258
 724 1354 1004 1366 1004 1119 c 256
 1004 880 803 858 607 858 c 258
 361 858 l 257
EndSplineSet
EndChar

StartChar: C
Encoding: 67 67 14
Width: 1248
VWidth: 0
GlyphClass: 2
Flags: HMW
PickledData: "(dp1
S'hhints'
p2
(dp3
sS'name'
p4
S'C'
sS'unicodes'
p5
(tsS'org.robofab.postScriptHintData'
p6
(dp7
sS'vhints'
p8
(dp9
sS'com.fontlab.hintData'
p10
(dp11
g8
((dp12
S'position'
p13
I137
sS'width'
p14
I180
stp15
sg2
((dp16
g13
I-17
sg14
I140
s(dp17
g13
I1361
sg14
I141
stp18
ssg14
I1270
sS'contours'
p19
(tsS'components'
p20
(tsg13
I120
sS'anchors'
p21
(ts."
AnchorPoint: "top" 791 1488 basechar 0
AnchorPoint: "bot" 776 -3 basechar 0
LayerCount: 2
Fore
SplineSet
779 -20 m 256
 937 -20 1071 31 1186 100 c 257
 1128 222 l 257
 1034 167 912 120 787 120 c 256
 413 120 317 426 317 737 c 256
 317 1051 423 1364 794 1364 c 260
 918 1364 1035 1317 1103 1278 c 261
 1158 1398 l 261
 1080 1447 956 1505 794 1505 c 260
 327 1505 137 1176 137 741 c 256
 137 329 304 -20 779 -20 c 256
EndSplineSet
EndChar

StartChar: D
Encoding: 68 68 20
Width: 1451
VWidth: 0
GlyphClass: 2
Flags: MW
PickledData: "(dp1
S'name'
p2
S'D'
sS'com.typemytype.robofont.layerData'
p3
(dp4
S'b'
(dp5
g2
S'D'
sS'lib'
p6
(dp7
sS'unicodes'
p8
(tsS'width'
p9
I1447
sS'contours'
p10
(tsS'components'
p11
(tsS'anchors'
p12
(tsssg8
(tsS'org.robofab.postScriptHintData'
p13
(dp14
sS'com.fontlab.hintData'
p15
(dp16
S'vhints'
p17
((dp18
S'position'
p19
I1136
sg9
I178
stp20
sS'hhints'
p21
((dp22
g19
I0
sg9
I133
s(dp23
g19
I1354
sg9
I131
stp24
ssg9
I1418
sg10
(tsg11
(tsg12
(tsg19
I1197
sS'com.typemytype.robofont.guides'
p25
(ts."
AnchorPoint: "top" 691 1485 basechar 0
AnchorPoint: "mid" 278 793 basechar 0
LayerCount: 2
Fore
SplineSet
361 133 m 257
 361 1354 l 257
 685 1354 l 258
 1051 1354 1136 1047 1136 743 c 256
 1136 437 1054 133 685 133 c 258
 361 133 l 257
181 0 m 257
 684 0 l 258
 1149 0 1314 321 1314 742 c 256
 1314 1163 1150 1485 684 1485 c 258
 181 1485 l 257
 181 0 l 257
EndSplineSet
EndChar

StartChar: Delta
Encoding: 8710 8710 23
Width: 1329
VWidth: 0
GlyphClass: 2
Flags: MW
PickledData: "(dp1
S'org.robofab.postScriptHintData'
p2
(dp3
s."
LayerCount: 2
Fore
SplineSet
35 0 m 257
 1285 0 l 257
 779 1486 l 257
 531 1486 l 257
 35 0 l 257
275 152 m 257
 660 1376 l 257
 1040 152 l 257
 275 152 l 257
EndSplineSet
EndChar

StartChar: E
Encoding: 69 69 24
Width: 1192
VWidth: 0
GlyphClass: 2
Flags: MW
PickledData: "(dp1
S'name'
p2
S'E'
sS'com.typemytype.robofont.layerData'
p3
(dp4
S'b'
(dp5
g2
S'E'
sS'lib'
p6
(dp7
sS'unicodes'
p8
(tsS'width'
p9
I1153
sS'contours'
p10
(tsS'components'
p11
(tsS'anchors'
p12
(tsssg8
(tsS'org.robofab.postScriptHintData'
p13
(dp14
sg9
I1089
sg10
(tsg11
(tsS'position'
p15
I141
sg12
(ts."
AnchorPoint: "top" 690 1485 basechar 0
AnchorPoint: "ogonek" 800 0 basechar 0
AnchorPoint: "bot" 702 0 basechar 0
LayerCount: 2
Fore
SplineSet
181 0 m 257
 1069 0 l 257
 1069 133 l 257
 361 133 l 257
 361 704 l 257
 976 704 l 257
 976 822 l 257
 361 822 l 257
 361 1353 l 257
 1081 1353 l 257
 1081 1485 l 257
 181 1485 l 257
 181 0 l 257
EndSplineSet
EndChar

StartChar: Eng
Encoding: 330 330 33
Width: 1551
VWidth: 0
GlyphClass: 2
Flags: MW
PickledData: "(dp1
S'org.robofab.postScriptHintData'
p2
(dp3
sS'com.fontlab.hintData'
p4
(dp5
S'vhints'
p6
((dp7
S'position'
p8
I1213
sS'width'
p9
I158
stp10
sS'hhints'
p11
((dp12
g8
I-436
sg9
I128
stp13
ss."
LayerCount: 2
Fore
SplineSet
193 0 m 257
 362 0 l 257
 362 1409 l 257
 1287 63 l 257
 1287 -185 1267 -229 1049 -308 c 257
 1095 -436 l 257
 1313.62 -383.494 1434.81 -295.975 1445.25 -5.70312 c 257
 1445 0 l 257
 1445 1580 l 257
 1276 1580 l 257
 1276 343 l 257
 450 1580 l 257
 193 1580 l 257
 193 0 l 257
EndSplineSet
EndChar

StartChar: Euro
Encoding: 8364 8364 36
Width: 1303
VWidth: 0
GlyphClass: 2
Flags: MW
PickledData: "(dp1
S'org.robofab.postScriptHintData'
p2
(dp3
sS'position'
p4
I142
sS'com.fontlab.hintData'
p5
(dp6
S'vhints'
p7
((dp8
g4
I137
sS'width'
p9
I180
stp10
sS'hhints'
p11
((dp12
g4
I-17
sg9
I140
s(dp13
g4
I1361
sg9
I141
stp14
ssg9
I78
s."
LayerCount: 2
Fore
SplineSet
-34 554 m 257
 804 554 l 257
 804 661 l 257
 272 661 l 257
 272 875 l 257
 804 875 l 257
 804 982 l 257
 -34 982 l 257
 -34 875 l 257
 200 875 l 257
 200 661 l 257
 -34 661 l 257
 -34 554 l 257
EndSplineSet
Refer: 14 67 N 1 0 0 1 0 0 2
EndChar

StartChar: F
Encoding: 70 70 37
Width: 1155
VWidth: 0
GlyphClass: 2
Flags: MW
PickledData: "(dp1
S'name'
p2
S'F'
sS'com.typemytype.robofont.layerData'
p3
(dp4
S'b'
(dp5
g2
S'F'
sS'lib'
p6
(dp7
sS'unicodes'
p8
(tsS'width'
p9
I1038
sS'contours'
p10
(tsS'components'
p11
(tsS'anchors'
p12
(tsssg8
(tsS'org.robofab.postScriptHintData'
p13
(dp14
sg9
I1039
sg10
(tsg11
(tsS'position'
p15
I141
sg12
(ts."
AnchorPoint: "top" 655 1485 basechar 0
LayerCount: 2
Fore
SplineSet
181 0 m 257
 363 0 l 257
 363 718 l 257
 980 718 l 257
 980 827 l 257
 363 827 l 257
 363 1354 l 257
 1037 1354 l 257
 1037 1485 l 257
 181 1485 l 257
 181 0 l 257
EndSplineSet
EndChar

StartChar: G
Encoding: 71 71 38
Width: 1472
VWidth: 0
GlyphClass: 2
Flags: HMW
PickledData: "(dp1
S'hhints'
p2
(dp3
sS'name'
p4
S'G'
sS'unicodes'
p5
(tsS'org.robofab.postScriptHintData'
p6
(dp7
sS'vhints'
p8
(dp9
sS'com.fontlab.hintData'
p10
(dp11
g8
((dp12
S'position'
p13
I137
sS'width'
p14
I180
s(dp15
g13
I1129
sg14
I170
s(dp16
g13
I1218
sg14
I81
stp17
sg2
((dp18
g13
I-17
sg14
I140
s(dp19
g13
I1361
sg14
I141
stp20
ssg14
I1411
sS'points'
p21
(tsS'contours'
p22
(tsS'components'
p23
(tsS'segmentType'
p24
S'line'
p25
sg13
I1303
sS'anchors'
p26
(ts."
AnchorPoint: "bot" 767 -3 basechar 0
LayerCount: 2
Fore
SplineSet
731 -20 m 256
 903 -20 1121 30 1169 195 c 257
 1218 0 l 257
 1299 0 l 257
 1299 762 l 257
 750 762 l 257
 750 645 l 257
 1129 645 l 257
 1129 371 l 258
 1129 190 952 120 774 120 c 256
 390 120 317 422 317 736 c 256
 317 1044 406 1364 788 1364 c 260
 903 1364 1047 1329 1134 1269 c 261
 1196 1391 l 261
 1071 1458 946 1505 790 1505 c 260
 321 1505 137 1167 137 740 c 256
 137 364 296 -20 731 -20 c 256
EndSplineSet
EndChar

StartChar: H
Encoding: 72 72 44
Width: 1507
VWidth: 0
GlyphClass: 2
Flags: MW
PickledData: "(dp1
S'segmentType'
p2
S'line'
p3
sS'hhints'
p4
(dp5
sS'name'
p6
S'H'
sS'com.typemytype.robofont.layerData'
p7
(dp8
S'b'
(dp9
g6
S'H'
sS'lib'
p10
(dp11
sS'unicodes'
p12
(tsS'width'
p13
I1497
sS'contours'
p14
(tsS'components'
p15
(tsS'anchors'
p16
(tsssg12
(tsS'org.robofab.postScriptHintData'
p17
(dp18
sS'vhints'
p19
(dp20
sg13
I1459
sS'points'
p21
(tsg14
(tsg15
(tsS'position'
p22
I1218
sS'y'
I0
sS'x'
I260
sg16
(ts."
AnchorPoint: "top" 755 1485 basechar 0
LayerCount: 2
Fore
SplineSet
181 0 m 257
 361 0 l 257
 361 707 l 257
 1147 707 l 257
 1147 0 l 257
 1325 0 l 257
 1325 1485 l 257
 1147 1485 l 257
 1147 839 l 257
 361 839 l 257
 361 1485 l 257
 181 1485 l 257
 181 0 l 257
EndSplineSet
EndChar

StartChar: Hbar
Encoding: 294 294 45
Width: 1485
VWidth: 0
GlyphClass: 2
Flags: MW
PickledData: "(dp1
S'org.robofab.postScriptHintData'
p2
(dp3
s."
LayerCount: 2
Fore
SplineSet
31 1184 m 257
 1449 1184 l 257
 1449 1286 l 257
 31 1286 l 257
 31 1184 l 257
EndSplineSet
Refer: 44 72 N 1 0 0 1 0 0 2
EndChar

StartChar: I
Encoding: 73 73 47
Width: 948
VWidth: 0
GlyphClass: 2
Flags: MW
PickledData: "(dp1
S'name'
p2
S'I'
sS'com.typemytype.robofont.layerData'
p3
(dp4
S'b'
(dp5
g2
S'I'
sS'lib'
p6
(dp7
sS'unicodes'
p8
(tsS'width'
p9
I732
sS'contours'
p10
(tsS'components'
p11
(tsS'anchors'
p12
(tsssg8
(tsS'org.robofab.postScriptHintData'
p13
(dp14
sS'com.fontlab.hintData'
p15
(dp16
S'vhints'
p17
((dp18
S'position'
p19
I193
sg9
I555
stp20
ssg9
I733
sg10
(tsg11
(tsg19
I324
sg12
(ts."
AnchorPoint: "top" 485 1485 basechar 0
LayerCount: 2
Fore
SplineSet
193 0 m 257
 748 0 l 257
 748 103 l 257
 554 103 l 257
 554 1377 l 257
 748 1377 l 257
 748 1485 l 257
 193 1485 l 257
 193 1377 l 257
 385 1377 l 257
 385 103 l 257
 193 103 l 257
 193 0 l 257
EndSplineSet
EndChar

StartChar: J
Encoding: 74 74 58
Width: 761
VWidth: 0
GlyphClass: 2
Flags: MW
PickledData: "(dp1
S'hhints'
p2
(dp3
sS'name'
p4
S'J'
sS'com.typemytype.robofont.layerData'
p5
(dp6
S'b'
(dp7
g4
S'J'
sS'lib'
p8
(dp9
sS'unicodes'
p10
(tsS'width'
p11
I633
sS'contours'
p12
(tsS'components'
p13
(tsS'anchors'
p14
(tsssg10
(tsS'org.robofab.postScriptHintData'
p15
(dp16
sS'vhints'
p17
(dp18
sS'com.fontlab.hintData'
p19
(dp20
g17
((dp21
S'position'
p22
I375
sg11
I179
stp23
sg2
((dp24
g22
I-112
sg11
I145
stp25
ssg11
I634
sg12
(tsg13
(tsg22
I396
sg14
(ts."
AnchorPoint: "top" 461 1485 basechar 0
LayerCount: 2
Fore
SplineSet
90 -112 m 257
 507 -74 554 122 554 445 c 258
 554 1485 l 257
 375 1485 l 257
 375 441 l 258
 375 181 369 76 79 33 c 257
 90 -112 l 257
EndSplineSet
EndChar

StartChar: K
Encoding: 75 75 60
Width: 1282
VWidth: 0
GlyphClass: 2
Flags: MW
PickledData: "(dp1
S'name'
p2
S'K'
sS'com.typemytype.robofont.layerData'
p3
(dp4
S'b'
(dp5
g2
S'K'
sS'lib'
p6
(dp7
sS'unicodes'
p8
(tsS'width'
p9
I1197
sS'contours'
p10
(tsS'components'
p11
(tsS'anchors'
p12
(tsssg8
(tsS'org.robofab.postScriptHintData'
p13
(dp14
sg9
I1198
sg10
(tsg11
(tsS'position'
p15
I141
sg12
(ts."
AnchorPoint: "top" 677 1485 basechar 0
AnchorPoint: "bot" 665 0 basechar 0
LayerCount: 2
Fore
SplineSet
181 0 m 257
 361 0 l 257
 361 704 l 257
 401 704 l 257
 1042 0 l 257
 1258 0 l 257
 557 766 l 257
 1212 1485 l 257
 1017 1485 l 257
 392 822 l 257
 361 822 l 257
 361 1485 l 257
 181 1485 l 257
 181 0 l 257
EndSplineSet
EndChar

StartChar: L
Encoding: 76 76 62
Width: 1086
VWidth: 0
GlyphClass: 2
Flags: MW
PickledData: "(dp1
S'name'
p2
S'L'
sS'com.typemytype.robofont.layerData'
p3
(dp4
S'b'
(dp5
g2
S'L'
sS'lib'
p6
(dp7
sS'unicodes'
p8
(tsS'width'
p9
I1115
sS'contours'
p10
(tsS'components'
p11
(tsS'anchors'
p12
(tsssg8
(tsS'org.robofab.postScriptHintData'
p13
(dp14
sg9
I1116
sg10
(tsg11
(tsS'position'
p15
I141
sg12
(ts."
AnchorPoint: "top" 298 1485 basechar 0
AnchorPoint: "caron.alt" 364 1098 basechar 0
AnchorPoint: "bot" 651 0 basechar 0
AnchorPoint: "mid" 283 831 basechar 0
LayerCount: 2
Fore
SplineSet
181 0 m 257
 1064 0 l 257
 1064 132 l 257
 361 132 l 257
 361 1485 l 257
 181 1485 l 257
 181 0 l 257
EndSplineSet
EndChar

StartChar: Lslash
Encoding: 321 321 67
Width: 1136
VWidth: 0
GlyphClass: 2
Flags: MW
PickledData: "(dp1
S'org.robofab.postScriptHintData'
p2
(dp3
s."
LayerCount: 2
Fore
SplineSet
1 437 m 257
 619 850 l 257
 619 999 l 257
 1 586 l 257
 1 437 l 257
EndSplineSet
Refer: 62 76 N 1 0 0 1 0 0 2
EndChar

StartChar: M
Encoding: 77 77 68
Width: 1799
VWidth: 0
GlyphClass: 2
Flags: MW
PickledData: "(dp1
S'segmentType'
p2
S'line'
p3
sS'name'
p4
S'M'
sS'com.typemytype.robofont.layerData'
p5
(dp6
S'b'
(dp7
g4
S'M'
sS'lib'
p8
(dp9
sS'unicodes'
p10
(tsS'width'
p11
I1775
sS'contours'
p12
(tsS'components'
p13
(tsS'anchors'
p14
(tsssg10
(tsS'org.robofab.postScriptHintData'
p15
(dp16
sg11
I1739
sS'points'
p17
(tsg12
(tsg13
(tsS'position'
p18
I1497
sS'y'
I0
sS'x'
I263
sg14
(ts."
AnchorPoint: "top" 905 1485 basechar 0
LayerCount: 2
Fore
SplineSet
181 0 m 257
 342 0 l 257
 342 1264 l 257
 838 106 l 257
 954 106 l 257
 1458 1264 l 257
 1458 0 l 257
 1618 0 l 257
 1618 1485 l 257
 1395 1485 l 257
 900 308 l 257
 404 1485 l 257
 181 1485 l 257
 181 0 l 257
EndSplineSet
EndChar

StartChar: N
Encoding: 78 78 69
Width: 1539
VWidth: 0
GlyphClass: 2
Flags: MW
PickledData: "(dp1
S'name'
p2
S'N'
sS'unicodes'
p3
(tsS'org.robofab.postScriptHintData'
p4
(dp5
sS'width'
p6
I1492
sS'contours'
p7
(tsS'components'
p8
(tsS'position'
p9
I1263
sS'anchors'
p10
(ts."
AnchorPoint: "top" 787 1485 basechar 0
AnchorPoint: "bot" 774 0 basechar 0
LayerCount: 2
Fore
SplineSet
181 0 m 257
 340 0 l 257
 340 1324 l 257
 1116 0 l 257
 1358 0 l 257
 1358 1485 l 257
 1199 1485 l 257
 1199 161 l 257
 423 1485 l 257
 181 1485 l 257
 181 0 l 257
EndSplineSet
EndChar

StartChar: O
Encoding: 79 79 74
Width: 1504
VWidth: 0
GlyphClass: 2
Flags: HMW
PickledData: "(dp1
S'hhints'
p2
(dp3
sS'name'
p4
S'O'
sS'anchors'
p5
(tsS'unicodes'
p6
(tsS'org.robofab.postScriptHintData'
p7
(dp8
sS'vhints'
p9
(dp10
sS'com.fontlab.hintData'
p11
(dp12
g9
((dp13
S'position'
p14
I137
sS'width'
p15
I180
s(dp16
g14
I1187
sg15
I180
stp17
sg2
((dp18
g14
I-17
sg15
I140
s(dp19
g14
I1361
sg15
I141
stp20
ssg15
I1488
sS'contours'
p21
(tsS'components'
p22
(tsg14
I1269
sS'com.typemytype.robofont.guides'
p23
(ts."
AnchorPoint: "top" 752 1488 basechar 0
AnchorPoint: "ogonek" 814 -3 basechar 0
LayerCount: 2
Fore
SplineSet
751 120 m 256
 389 120 317 436 317 738 c 256
 317 1037 389 1364 751 1364 c 260
 1114 1364 1187 1039 1187 738 c 256
 1187 436 1111 120 751 120 c 256
751 -20 m 256
 1202 -20 1367 324 1367 738 c 256
 1367 1161 1206 1505 751 1505 c 260
 305 1505 137 1141 137 738 c 256
 137 324 302 -20 751 -20 c 256
EndSplineSet
EndChar

StartChar: OE
Encoding: 338 338 75
Width: 2065
VWidth: 0
GlyphClass: 2
Flags: MW
PickledData: "(dp1
S'org.robofab.postScriptHintData'
p2
(dp3
sS'position'
p4
I1265
sS'com.fontlab.hintData'
p5
(dp6
S'vhints'
p7
((dp8
g4
I125
sS'width'
p9
I184
s(dp10
g4
I1169
sg9
I179
stp11
sS'hhints'
p12
((dp13
g4
I-38
sg9
I140
s(dp14
g4
I1374
sg9
I140
stp15
ssg9
I100
s."
LayerCount: 2
Fore
SplineSet
739 -38 m 256
 945 -38 1082 33 1169 149 c 257
 1169 0 l 257
 2091 0 l 257
 2091 133 l 257
 1348 133 l 257
 1348 730 l 257
 1986 730 l 257
 1986 838 l 257
 1348 838 l 257
 1348 1354 l 257
 2079 1354 l 257
 2079 1486 l 257
 1169 1486 l 257
 1169 1327 l 257
 1080 1444 939 1514 726 1514 c 256
 270 1514 125 1141 125 738 c 256
 125 318 271 -38 739 -38 c 256
748 102 m 256
 377 102 309 432 309 738 c 256
 309 1037 370 1374 740 1374 c 256
 1108 1374 1169 1040 1169 738 c 256
 1169 449 1108 102 748 102 c 256
EndSplineSet
EndChar

StartChar: Omega
Encoding: 8486 8486 83
Width: 1658
VWidth: 0
GlyphClass: 2
Flags: MW
PickledData: "(dp1
S'org.robofab.postScriptHintData'
p2
(dp3
sS'com.fontlab.hintData'
p4
(dp5
S'vhints'
p6
((dp7
S'position'
p8
I202
sS'width'
p9
I163
s(dp10
g8
I1483
sg9
I163
stp11
sS'hhints'
p12
((dp13
g8
I1406
sg9
I134
stp14
ss."
LayerCount: 2
Fore
SplineSet
203 0 m 257
 744 0 l 257
 744 114 l 257
 517 261 365 517 365 808 c 256
 365 1164 593 1406 930 1406 c 256
 1297 1406 1483 1127 1483 804 c 256
 1483 511 1323 262 1100 114 c 257
 1101 0 l 257
 1637 0 l 257
 1650 121 l 257
 1269 121 l 257
 1461 265 1646 511 1646 822 c 256
 1646 1228 1373 1540 935 1540 c 256
 512 1540 202 1257 202 826 c 256
 202 521 355 269 572 121 c 257
 188 121 l 257
 203 0 l 257
EndSplineSet
EndChar

StartChar: P
Encoding: 80 80 87
Width: 1273
VWidth: 0
GlyphClass: 2
Flags: MW
PickledData: "(dp1
S'name'
p2
S'R'
sS'com.typemytype.robofont.layerData'
p3
(dp4
S'b'
(dp5
g2
S'P'
sS'lib'
p6
(dp7
sS'unicodes'
p8
(tsS'width'
p9
I1290
sS'contours'
p10
(tsS'components'
p11
(tsS'anchors'
p12
(tsssg8
(tsS'org.robofab.postScriptHintData'
p13
(dp14
sS'com.fontlab.hintData'
p15
(dp16
S'vhints'
p17
((dp18
S'position'
p19
I1043
sg9
I169
stp20
sS'hhints'
p21
((dp22
g19
I606
sg9
I135
s(dp23
g19
I1354
sg9
I131
stp24
ssg9
I1304
sg10
(tsg11
(tsg19
I1135
sg12
(ts."
AnchorPoint: "top" 672 1485 basechar 0
LayerCount: 2
Fore
SplineSet
181 0 m 257
 361 0 l 257
 361 606 l 257
 418 606 l 258
 752 605 1212 603 1212 1045 c 256
 1212 1445 887 1485 559 1485 c 258
 181 1485 l 257
 181 0 l 257
361 741 m 257
 361 1354 l 257
 571 1354 l 258
 850 1354 1043 1340 1043 1024 c 256
 1043 748 740 741 529 741 c 258
 361 741 l 257
EndSplineSet
EndChar

StartChar: Q
Encoding: 81 81 88
Width: 1504
VWidth: 0
GlyphClass: 2
Flags: HMW
PickledData: "(dp1
S'name'
p2
S'Q'
sS'unicodes'
p3
(tsS'org.robofab.postScriptHintData'
p4
(dp5
sS'com.fontlab.hintData'
p6
(dp7
S'vhints'
p8
((dp9
S'position'
p10
I137
sS'width'
p11
I180
s(dp12
g10
I1187
sg11
I180
stp13
sS'hhints'
p14
((dp15
g10
I-16
sg11
I139
s(dp16
g10
I1361
sg11
I141
stp17
ssg11
I1508
sS'contours'
p18
(tsS'components'
p19
(tsg10
I1285
sS'anchors'
p20
(ts."
LayerCount: 2
Fore
SplineSet
1013 -400 m 257
 1120 -332 l 257
 880 -7 l 257
 1234 52 1367 367 1367 738 c 256
 1367 1161 1206 1505 751 1505 c 260
 305 1505 137 1141 137 738 c 256
 137 334 294 -1 721 -16 c 257
 1013 -400 l 257
751 123 m 256
 389 123 317 436 317 738 c 256
 317 1037 389 1364 751 1364 c 260
 1114 1364 1187 1039 1187 738 c 256
 1187 436 1111 123 751 123 c 256
EndSplineSet
EndChar

StartChar: R
Encoding: 82 82 89
Width: 1407
VWidth: 0
GlyphClass: 2
Flags: MW
PickledData: "(dp1
S'segmentType'
p2
S'line'
p3
sS'name'
p4
S'R'
sS'com.typemytype.robofont.layerData'
p5
(dp6
S'b'
(dp7
g4
S'R'
sS'lib'
p8
(dp9
sS'unicodes'
p10
(tsS'width'
p11
I1367
sS'contours'
p12
(tsS'components'
p13
(tsS'anchors'
p14
(tsssg10
(tsS'org.robofab.postScriptHintData'
p15
(dp16
sS'com.fontlab.hintData'
p17
(dp18
S'vhints'
p19
((dp20
S'position'
p21
I1073
sg11
I157
stp22
sS'hhints'
p23
((dp24
g21
I690
sg11
I119
s(dp25
g21
I1354
sg11
I131
stp26
ssg11
I1304
sS'points'
p27
(tsg12
(tsg13
(tsg21
I1135
sS'y'
I1620
sS'x'
I229
sg14
(ts."
AnchorPoint: "top" 683 1485 basechar 0
AnchorPoint: "bot" 712 0 basechar 0
LayerCount: 2
Fore
SplineSet
181 0 m 257
 361 0 l 257
 361 690 l 257
 660 690 l 258
 982 690 1029 641 1057 389 c 258
 1100 0 l 257
 1261 0 l 257
 1220 410 l 258
 1198 641 1132 747 954 760 c 257
 1127 788 1230 909 1230 1092 c 256
 1230 1484 909 1485 566 1485 c 258
 181 1485 l 257
 181 0 l 257
361 809 m 257
 361 1354 l 257
 566 1354 l 258
 823 1354 1073 1378 1073 1083 c 256
 1073 832 846 809 655 809 c 258
 361 809 l 257
EndSplineSet
EndChar

StartChar: S
Encoding: 83 83 93
Width: 1180
VWidth: 0
GlyphClass: 2
Flags: HMW
PickledData: "(dp1
S'name'
p2
S'S'
sS'anchors'
p3
(tsS'unicodes'
p4
(tsS'org.robofab.postScriptHintData'
p5
(dp6
sS'com.fontlab.hintData'
p7
(dp8
S'vhints'
p9
((dp10
S'position'
p11
I106
sS'width'
p12
I167
s(dp13
g11
I931
sg12
I164
stp14
sS'hhints'
p15
((dp16
g11
I-17
sg12
I141
s(dp17
g11
I1362
sg12
I140
stp18
ssg12
I1190
sS'contours'
p19
(tsS'components'
p20
(tsg11
I1015
sS'com.typemytype.robofont.guides'
p21
(ts."
AnchorPoint: "top" 599 1488 basechar 0
AnchorPoint: "bot" 583 -3 basechar 0
LayerCount: 2
Fore
SplineSet
587 -20 m 256
 884 -20 1095 98 1095 389 c 256
 1095 677 941 746 710 830 c 258
 518 900 l 258
 361 956 273 998 273 1147 c 256
 273 1302 420 1365 585 1365 c 260
 721 1365 867 1325 957 1265 c 261
 1014 1389 l 261
 886 1473 732 1505 572 1505 c 260
 312 1505 106 1380 106 1122 c 256
 106 886 257 820 446 754 c 258
 672 675 l 258
 873 605 932 555 931 391 c 256
 931 181 790 121 593 121 c 256
 404 121 227 209 172 246 c 257
 112 112 l 257
 225 42 451 -20 587 -20 c 256
EndSplineSet
EndChar

StartChar: Sigma
Encoding: 931 931 99
Width: 1282
VWidth: 0
GlyphClass: 2
Flags: MW
PickledData: "(dp1
S'org.robofab.postScriptHintData'
p2
(dp3
s."
LayerCount: 2
Fore
SplineSet
149 0 m 257
 1177 0 l 257
 1177 138 l 257
 316 138 l 257
 983 705 l 257
 983 787 l 257
 316 1353 l 257
 1154 1353 l 257
 1154 1485 l 257
 149 1485 l 257
 149 1300 l 257
 801 743 l 257
 149 166 l 257
 149 0 l 257
EndSplineSet
EndChar

StartChar: T
Encoding: 84 84 100
Width: 1049
VWidth: 0
GlyphClass: 2
Flags: MW
PickledData: "(dp1
S'name'
p2
S'T'
sS'com.typemytype.robofont.layerData'
p3
(dp4
S'b'
(dp5
g2
S'T'
sS'lib'
p6
(dp7
sS'unicodes'
p8
(tsS'width'
p9
I1124
sS'contours'
p10
(tsS'components'
p11
(tsS'anchors'
p12
(tsssg8
(tsS'org.robofab.postScriptHintData'
p13
(dp14
sg9
I1125
sg10
(tsg11
(tsS'position'
p15
I515
sg12
(ts."
AnchorPoint: "top" 546 1485 basechar 0
AnchorPoint: "bot" 533 0 basechar 0
AnchorPoint: "mid" 545 848 basechar 0
LayerCount: 2
Fore
SplineSet
445 0 m 257
 619 0 l 257
 619 1354 l 257
 1051 1354 l 257
 1051 1485 l 257
 11 1485 l 261
 11 1354 l 257
 445 1354 l 257
 445 0 l 257
EndSplineSet
EndChar

StartChar: Thorn
Encoding: 222 222 104
Width: 1347
VWidth: 0
GlyphClass: 2
Flags: MW
PickledData: "(dp1
S'org.robofab.postScriptHintData'
p2
(dp3
sS'com.fontlab.hintData'
p4
(dp5
S'vhints'
p6
((dp7
S'position'
p8
I1039
sS'width'
p9
I168
stp10
sS'hhints'
p11
((dp12
g8
I352
sg9
I135
s(dp13
g8
I1100
sg9
I132
stp14
ss."
LayerCount: 2
Fore
SplineSet
177 0 m 257
 355 0 l 257
 355 352 l 257
 413 352 l 258
 747 351 1207 349 1207 791 c 256
 1207 1192 883 1232 555 1232 c 258
 355 1232 l 257
 355 1485 l 257
 177 1485 l 257
 177 0 l 257
355 487 m 257
 355 1100 l 257
 565 1100 l 258
 844 1100 1039 1086 1039 770 c 256
 1039 494 735 487 525 487 c 258
 355 487 l 257
EndSplineSet
EndChar

StartChar: U
Encoding: 85 85 105
Width: 1473
VWidth: 0
GlyphClass: 2
Flags: HMW
PickledData: "(dp1
S'name'
p2
S'U'
sS'unicodes'
p3
(tsS'org.robofab.postScriptHintData'
p4
(dp5
sS'com.fontlab.hintData'
p6
(dp7
S'vhints'
p8
((dp9
S'position'
p10
I157
sS'width'
p11
I178
s(dp12
g10
I1135
sg11
I180
stp13
sS'hhints'
p14
((dp15
g10
I-17
sg11
I131
stp16
ssg11
I1421
sS'contours'
p17
(tsS'components'
p18
(tsg10
I1197
sS'anchors'
p19
(ts."
AnchorPoint: "top" 752 1485 basechar 0
AnchorPoint: "ogonek" 832 -3 basechar 0
LayerCount: 2
Fore
SplineSet
735 -20 m 260
 1195 -20 1315 246 1315 678 c 262
 1315 1485 l 257
 1135 1485 l 257
 1135 674 l 262
 1135 353 1103 111 735 111 c 260
 370 111 335 351 335 674 c 262
 335 1485 l 257
 157 1485 l 257
 157 678 l 262
 157 245 280 -20 735 -20 c 260
EndSplineSet
EndChar

StartChar: V
Encoding: 86 86 116
Width: 1280
VWidth: 0
GlyphClass: 2
Flags: MW
PickledData: "(dp1
S'name'
p2
S'V'
sS'unicodes'
p3
(tsS'org.robofab.postScriptHintData'
p4
(dp5
sS'width'
p6
I1239
sS'contours'
p7
(tsS'components'
p8
(tsS'position'
p9
I1560
sS'anchors'
p10
(ts."
LayerCount: 2
Fore
SplineSet
524 0 m 257
 722 0 l 257
 1244 1485 l 257
 1070 1485 l 257
 633 200 l 257
 212 1485 l 257
 37 1485 l 257
 524 0 l 257
EndSplineSet
EndChar

StartChar: W
Encoding: 87 87 117
Width: 1988
VWidth: 0
GlyphClass: 2
Flags: MW
PickledData: "(dp1
S'name'
p2
S'W'
sS'unicodes'
p3
(tsS'org.robofab.postScriptHintData'
p4
(dp5
sS'width'
p6
I1958
sS'contours'
p7
(tsS'components'
p8
(tsS'position'
p9
I1560
sS'anchors'
p10
(ts."
AnchorPoint: "top" 1002 1485 basechar 0
LayerCount: 2
Fore
SplineSet
430 0 m 257
 630 0 l 257
 998 1276 l 257
 1355 0 l 257
 1554 0 l 257
 1909 1485 l 257
 1743 1485 l 257
 1440 173 l 257
 1089 1456 l 257
 909 1456 l 257
 545 173 l 257
 242 1485 l 257
 79 1485 l 257
 430 0 l 257
EndSplineSet
EndChar

StartChar: X
Encoding: 88 88 122
Width: 1229
VWidth: 0
GlyphClass: 2
Flags: MW
PickledData: "(dp1
S'name'
p2
S'X'
sS'unicodes'
p3
(tsS'org.robofab.postScriptHintData'
p4
(dp5
sS'width'
p6
I1306
sS'contours'
p7
(tsS'components'
p8
(tsS'position'
p9
I1560
sS'anchors'
p10
(ts."
LayerCount: 2
Fore
SplineSet
34 0 m 257
 234 0 l 257
 612 622 l 257
 1005 0 l 257
 1188 0 l 257
 702 753 l 257
 1177 1485 l 257
 996 1485 l 257
 606 886 l 257
 227 1485 l 257
 45 1485 l 257
 509 756 l 257
 34 0 l 257
EndSplineSet
EndChar

StartChar: Y
Encoding: 89 89 123
Width: 1167
VWidth: 0
GlyphClass: 2
Flags: MW
PickledData: "(dp1
S'name'
p2
S'Y'
sS'unicodes'
p3
(tsS'org.robofab.postScriptHintData'
p4
(dp5
sS'width'
p6
I1260
sS'contours'
p7
(tsS'components'
p8
(tsS'position'
p9
I578
sS'anchors'
p10
(ts."
AnchorPoint: "top" 602 1485 basechar 0
LayerCount: 2
Fore
SplineSet
494 0 m 257
 669 0 l 257
 669 594 l 257
 1152 1485 l 257
 977 1485 l 257
 582 770 l 257
 192 1485 l 257
 15 1485 l 257
 494 594 l 257
 494 0 l 257
EndSplineSet
EndChar

StartChar: Z
Encoding: 90 90 128
Width: 1104
VWidth: 0
GlyphClass: 2
Flags: MW
PickledData: "(dp1
S'name'
p2
S'Z'
sS'unicodes'
p3
(tsS'org.robofab.postScriptHintData'
p4
(dp5
sS'width'
p6
I1176
sS'contours'
p7
(tsS'components'
p8
(tsS'position'
p9
I1520
sS'anchors'
p10
(ts."
AnchorPoint: "top" 612 1485 basechar 0
LayerCount: 2
Fore
SplineSet
111 0 m 257
 1031 0 l 257
 1031 132 l 257
 301 132 l 257
 1039 1366 l 257
 1039 1485 l 257
 137 1485 l 257
 137 1364 l 257
 848 1364 l 257
 111 130 l 257
 111 0 l 257
EndSplineSet
EndChar

StartChar: a
Encoding: 97 97 132
Width: 1146
VWidth: 0
GlyphClass: 2
Flags: HMW
PickledData: "(dp1
S'segmentType'
p2
S'line'
p3
sS'name'
p4
S'a'
sS'com.typemytype.robofont.layerData'
p5
(dp6
S'b'
(dp7
g4
S'a'
sS'lib'
p8
(dp9
sS'unicodes'
p10
(tsS'width'
p11
I1140
sS'contours'
p12
((dp13
S'points'
p14
((dp15
g2
S'line'
p16
sS'x'
I1001
sS'smooth'
p17
I0
sS'y'
I0
s(dp18
g2
S'line'
p19
sS'x'
I1001
sg17
I1
sS'y'
I681
s(dp20
S'y'
I1047
sS'x'
I1001
sg17
I0
s(dp21
S'y'
I1188
sS'x'
I908
sg17
I0
s(dp22
g2
S'curve'
p23
sS'x'
I569
sg17
I1
sS'y'
I1188
s(dp24
S'y'
I1188
sS'x'
I325
sg17
I0
s(dp25
S'y'
I1110
sS'x'
I189
sg17
I0
s(dp26
g2
S'curve'
p27
sS'x'
I152
sg17
I0
sS'y'
I1087
s(dp28
g2
S'line'
p29
sS'x'
I183
sg17
I0
sS'y'
I1012
s(dp30
S'y'
I1030
sS'x'
I220
sg17
I0
s(dp31
S'y'
I1108
sS'x'
I342
sg17
I0
s(dp32
g2
S'curve'
p33
sS'x'
I578
sg17
I1
sS'y'
I1108
s(dp34
S'y'
I1108
sS'x'
I865
sg17
I0
s(dp35
S'y'
I962
sS'x'
I905
sg17
I0
s(dp36
g2
S'curve'
p37
sS'x'
I905
sg17
I1
sS'y'
I691
s(dp38
g2
S'line'
p39
sS'x'
I905
sg17
I0
sS'y'
I646
s(dp40
S'y'
I680
sS'x'
I812
sg17
I0
s(dp41
S'y'
I698
sS'x'
I658
sg17
I0
s(dp42
g2
S'curve'
p43
sS'x'
I552
sg17
I1
sS'y'
I698
s(dp44
S'y'
I698
sS'x'
I239
sg17
I0
s(dp45
S'y'
I567
sS'x'
I92
sg17
I0
s(dp46
g2
S'curve'
p47
sS'x'
I92
sg17
I1
sS'y'
I328
s(dp48
S'y'
I81
sS'x'
I92
sg17
I0
s(dp49
S'y'
S'-16'
p50
sS'x'
I274
sg17
I0
s(dp51
g2
S'curve'
p52
sS'x'
I483
sg17
I1
sS'y'
S'-16'
p53
s(dp54
S'y'
S'-16'
p55
sS'x'
I664
sg17
I0
s(dp56
S'y'
I56
sS'x'
I799
sg17
I0
s(dp57
g2
S'curve'
p58
sS'x'
I913
sg17
I0
sS'y'
I192
s(dp59
g2
S'line'
p60
sS'x'
I933
sg17
I0
sS'y'
I0
stp61
s(dp62
g14
((dp63
g2
S'curve'
p64
sS'x'
I494
sg17
I1
sS'y'
I62
s(dp65
S'y'
I62
sS'x'
I356
sg17
I0
s(dp66
S'y'
I121
sS'x'
I190
sg17
I0
s(dp67
g2
S'curve'
p68
sS'x'
I190
sg17
I1
sS'y'
I337
s(dp69
S'y'
I555
sS'x'
I190
sg17
I0
s(dp70
S'y'
I623
sS'x'
I345
sg17
I0
s(dp71
g2
S'curve'
p72
sS'x'
I559
sg17
I1
sS'y'
I623
s(dp73
S'y'
I623
sS'x'
I677
sg17
I0
s(dp74
S'y'
I612
sS'x'
I790
sg17
I0
s(dp75
g2
S'curve'
p76
sS'x'
I905
sg17
I0
sS'y'
I580
s(dp77
g2
S'line'
p78
sS'x'
I905
sg17
I0
sS'y'
I259
s(dp79
S'y'
I131
sS'x'
I790
sg17
I0
s(dp80
S'y'
I62
sS'x'
I675
sg17
I0
stp81
stp82
sS'components'
p83
(tsS'anchors'
p84
(tsssg10
(tsS'org.robofab.postScriptHintData'
p85
(dp86
sS'com.fontlab.hintData'
p87
(dp88
S'vhints'
p89
((dp90
S'position'
p91
I104
sg11
I168
s(dp92
g91
I816
sg11
I175
s(dp93
g91
I862
sg11
I129
stp94
sS'hhints'
p95
((dp96
g91
I-17
sg11
I126
s(dp97
g91
I547
sg11
I116
s(dp98
g91
I984
sg11
I131
stp99
ssg11
I1172
sg14
(tsg12
(tsg83
(tsg91
I966
sS'y'
I65
sS'x'
I702
sg84
(ts."
AnchorPoint: "top" 551 1099 basechar 0
AnchorPoint: "ogonek" 934 0 basechar 0
LayerCount: 2
Fore
SplineSet
463 -20 m 260
 620 -20 743 41 836 168 c 257
 862 0 l 257
 991 0 l 257
 991 647 l 258
 991 979 897 1116 554 1116 c 256
 361 1116 222 1061 151 1026 c 257
 198 908 l 257
 259 936 382 985 566 985 c 256
 793 985 816 869 816 671 c 258
 816 630 l 257
 745 648 633 663 531 663 c 256
 283 663 101 565 104 321 c 256
 107 101 239 -20 463 -20 c 260
503 106 m 260
 358 106 272 179 272 334 c 256
 272 514 411 547 575 547 c 256
 704 547 773 532 816 522 c 257
 816 257 l 257
 729 175 626 106 503 106 c 260
EndSplineSet
EndChar

StartChar: acute
Encoding: 180 180 136
Width: 742
VWidth: 0
GlyphClass: 4
Flags: MW
PickledData: "(dp1
S'org.robofab.postScriptHintData'
p2
(dp3
sS'position'
p4
S'-144'
p5
sS'width'
p6
I447
s."
AnchorPoint: "top" 160 1098 mark 0
LayerCount: 2
Fore
SplineSet
161 1290 m 257
 633 1590 l 257
 512 1716 l 257
 124 1334 l 257
 161 1290 l 257
EndSplineSet
EndChar

StartChar: ae
Encoding: 230 230 138
Width: 1680
VWidth: 0
GlyphClass: 2
Flags: MW
PickledData: "(dp1
S'name'
p2
S'ae'
p3
sS'unicodes'
p4
(tsS'org.robofab.postScriptHintData'
p5
(dp6
sS'com.fontlab.hintData'
p7
(dp8
S'vhints'
p9
((dp10
S'position'
p11
I39
sS'width'
p12
I176
s(dp13
g11
I744
sg12
I175
s(dp14
g11
I1488
sg12
I155
stp15
sS'hhints'
p16
((dp17
g11
I-22
sg12
I132
s(dp18
g11
I556
sg12
I115
s(dp19
g11
I987
sg12
I132
stp20
ssg12
I1782
sS'contours'
p21
(tsS'components'
p22
(tsg11
I1630
sS'anchors'
p23
(ts."
AnchorPoint: "top" 862 1098 basechar 0
LayerCount: 2
Fore
SplineSet
408 -22 m 256
 574 -22 733 65 828 197 c 257
 913 45 1064 -22 1236 -22 c 256
 1347 -22 1506 29 1593 94 c 257
 1536 227 l 257
 1455 157 1354 117 1247 117 c 256
 980 117 919 302 919 534 c 257
 1636 534 l 257
 1641 567 1643 601 1643 635 c 256
 1643 900 1517 1119 1228 1119 c 256
 1075 1119 923 1053 854 910 c 257
 803 1085 658 1119 495 1119 c 256
 384 1119 190 1068 102 995 c 257
 163 882 l 257
 249 943 401 987 505 987 c 256
 732 987 744 870 744 670 c 258
 744 624 l 257
 669 655 540 671 458 671 c 256
 235 671 39 566 39 322 c 256
 39 90 182 -22 408 -22 c 256
451 110 m 256
 293 110 215 170 215 334 c 256
 215 524 359 556 521 556 c 256
 596 556 671 548 744 536 c 257
 744 258 l 257
 668 179 566 110 451 110 c 256
919 641 m 257
 919 848 1017 995 1229 995 c 256
 1423 995 1488 849 1488 641 c 257
 919 641 l 257
EndSplineSet
EndChar

StartChar: afii61289
Encoding: 8467 8467 141
Width: 823
VWidth: 0
GlyphClass: 2
Flags: MW
PickledData: "(dp1
S'org.robofab.postScriptHintData'
p2
(dp3
sS'com.fontlab.hintData'
p4
(dp5
S'vhints'
p6
((dp7
S'position'
p8
I275
sS'width'
p9
I141
s(dp10
g8
I554
sg9
I137
stp11
sS'hhints'
p12
((dp13
g8
I-17
sg9
I114
s(dp14
g8
I1365
sg9
I125
stp15
ss."
LayerCount: 2
Fore
SplineSet
563 -17 m 256
 628 -17 701 -4 769 20 c 257
 744 129 l 257
 685 109 627 97 573 97 c 256
 481 97 416 132 416 230 c 258
 416 971 l 257
 582 1129 l 257
 652 1194 691 1242 691 1310 c 256
 691 1420 596 1490 491 1490 c 256
 395 1490 277 1430 277 1259 c 258
 276 1000 l 257
 52 784 l 257
 52 631 l 257
 275 847 l 257
 275 229 l 258
 275 56 405 -17 563 -17 c 256
416 1124 m 257
 416 1262 l 258
 416 1335 453 1365 490 1365 c 256
 523 1365 554 1341 554 1299 c 256
 554 1269 534 1239 500 1206 c 258
 416 1124 l 257
EndSplineSet
EndChar

StartChar: ampersand
Encoding: 38 38 144
Width: 1576
VWidth: 0
GlyphClass: 2
Flags: HMW
PickledData: "(dp1
S'org.robofab.postScriptHintData'
p2
(dp3
sS'position'
p4
I1068
sS'com.fontlab.hintData'
p5
(dp6
S'vhints'
p7
((dp8
g4
I115
sS'width'
p9
I173
s(dp10
g4
I240
sg9
I168
s(dp11
g4
I904
sg9
I162
s(dp12
g4
I1243
sg9
I148
stp13
sS'hhints'
p14
((dp15
g4
I-17
sg9
I133
s(dp16
g4
I1374
sg9
I128
stp17
ssg9
I98
s."
LayerCount: 2
Fore
SplineSet
1508 18 m 257
 1576 121 l 257
 1324 319 l 257
 1367 440 1391 658 1391 838 c 257
 1243 838 l 257
 1243 686 1247 538 1209 405 c 257
 692 825 l 257
 877 882 1066 950 1066 1175 c 260
 1067 1413 867 1505 651 1505 c 260
 408 1505 240 1406 240 1170 c 260
 240 1049 335 944 457 865 c 257
 234 781 115 638 115 412 c 256
 115 79 376 -17 690 -17 c 256
 958 -17 1173 40 1264 212 c 257
 1508 18 l 257
689 116 m 256
 452 116 288 177 288 428 c 256
 288 601 385 726 557 783 c 257
 1158 288 l 257
 1067 143 916 116 689 116 c 256
592 917 m 257
 481 980 408 1074 408 1171 c 260
 408 1330 516 1377 651 1377 c 260
 781 1377 905 1324 904 1175 c 260
 903 1006 734 960 592 917 c 257
EndSplineSet
EndChar

StartChar: asciicircum
Encoding: 94 94 149
Width: 1055
VWidth: 0
GlyphClass: 2
Flags: MW
PickledData: "(dp1
S'org.robofab.postScriptHintData'
p2
(dp3
sS'position'
p4
I28
sS'width'
p5
I632
s."
LayerCount: 2
Fore
SplineSet
57 565 m 257
 212 565 l 257
 528 1272 l 257
 843 565 l 257
 998 565 l 257
 599 1485 l 257
 457 1485 l 257
 57 565 l 257
EndSplineSet
EndChar

StartChar: asciitilde
Encoding: 126 126 150
Width: 973
VWidth: 0
GlyphClass: 2
Flags: MW
PickledData: "(dp1
S'org.robofab.postScriptHintData'
p2
(dp3
sS'position'
p4
I637
sS'com.fontlab.hintData'
p5
(dp6
S'vhints'
p7
((dp8
g4
I129
sS'width'
p9
I69
s(dp10
g4
I806
sg9
I70
stp11
sS'hhints'
p12
((dp13
g4
I594
sg9
I128
s(dp14
g4
I709
sg9
I130
stp15
ssg9
I126
s."
LayerCount: 2
Fore
SplineSet
129 598 m 257
 198 598 l 257
 198 681 226 709 274 709 c 256
 371 709 547 594 725 594 c 256
 852 594 876 686 876 828 c 257
 806 828 l 257
 806 748 780 722 736 722 c 256
 645 722 474 839 297 839 c 256
 153 839 129 737 129 598 c 257
EndSplineSet
EndChar

StartChar: asterisk
Encoding: 42 42 151
Width: 872
VWidth: 0
GlyphClass: 2
Flags: MW
PickledData: "(dp1
S'name'
p2
S'asterisk'
p3
sS'com.typemytype.robofont.layerData'
p4
(dp5
S'b'
(dp6
g2
S'asterisk'
p7
sS'lib'
p8
(dp9
sS'unicodes'
p10
(tsS'width'
p11
I1019
sS'contours'
p12
(tsS'components'
p13
(tsS'anchors'
p14
(tsssg10
(tsS'org.robofab.postScriptHintData'
p15
(dp16
sg11
I56
sg12
(tsg13
(tsS'position'
p17
I1148
sg14
(ts."
LayerCount: 2
Fore
SplineSet
287 766 m 257
 432 1030 l 257
 577 766 l 257
 672 816 l 257
 505 1075 l 257
 793 1069 l 257
 793 1166 l 257
 503 1159 l 257
 659 1418 l 257
 564 1465 l 257
 432 1203 l 257
 300 1465 l 257
 205 1418 l 257
 359 1159 l 257
 70 1166 l 257
 70 1069 l 257
 357 1075 l 257
 193 816 l 257
 287 766 l 257
EndSplineSet
EndChar

StartChar: at
Encoding: 64 64 152
Width: 1872
VWidth: 0
GlyphClass: 2
Flags: MW
PickledData: "(dp1
S'name'
p2
S'at'
p3
sS'unicodes'
p4
(tsS'org.robofab.postScriptHintData'
p5
(dp6
sS'com.fontlab.hintData'
p7
(dp8
S'vhints'
p9
((dp10
S'position'
p11
I122
sS'width'
p12
I136
s(dp13
g11
I492
sg12
I128
s(dp14
g11
I1263
sg12
I102
s(dp15
g11
I1656
sg12
I121
stp16
sS'hhints'
p17
((dp18
g11
I-118
sg12
I109
s(dp19
g11
I257
sg12
I93
s(dp20
g11
I1079
sg12
I88
s(dp21
g11
I1394
sg12
I108
stp22
ssg12
I1827
sS'contours'
p23
(tsS'components'
p24
(tsg11
I1599
sS'anchors'
p25
(ts."
LayerCount: 2
Fore
SplineSet
934 -118 m 256
 1088 -118 1261 -88 1381 -42 c 257
 1344 69 l 257
 1232 21 1074 -9 934 -9 c 256
 510 -9 250 246 258 651 c 256
 267 1108 555 1394 1003 1394 c 256
 1405 1394 1656 1165 1656 800 c 256
 1656 523 1568 350 1428 350 c 256
 1384 350 1360 382 1365 436 c 256
 1365 437 1413 986 1415 1009 c 256
 1423 1107 1297 1167 1089 1167 c 256
 722 1167 492 938 492 571 c 256
 492 370 616 243 816 243 c 256
 1027 243 1200 399 1263 652 c 257
 1278 650 l 257
 1278 601 1263 485 1263 408 c 256
 1263 314 1320 257 1409 257 c 256
 1636 257 1777 465 1777 800 c 256
 1777 1231 1480 1502 1003 1502 c 256
 463 1502 122 1166 122 630 c 256
 122 171 436 -118 934 -118 c 256
841 345 m 256
 705 344 620 436 620 585 c 256
 620 887 802 1077 1089 1079 c 256
 1151 1079 1235 1062 1306 1037 c 257
 1263 614 1084 346 841 345 c 256
EndSplineSet
EndChar

StartChar: b
Encoding: 98 98 154
Width: 1237
VWidth: 0
GlyphClass: 2
Flags: HMW
PickledData: "(dp1
S'segmentType'
p2
S'curve'
p3
sS'name'
p4
S'b'
sS'com.typemytype.robofont.layerData'
p5
(dp6
S'b'
(dp7
g4
S'b'
sS'lib'
p8
(dp9
sS'unicodes'
p10
(tsS'width'
p11
I1219
sS'contours'
p12
((dp13
S'points'
p14
((dp15
g2
S'curve'
p16
sS'x'
I587
sS'smooth'
p17
I1
sS'y'
S'-16'
p18
s(dp19
S'y'
S'-16'
p20
sS'x'
I942
sg17
I0
s(dp21
S'y'
I266
sS'x'
I1101
sg17
I0
s(dp22
g2
S'curve'
p23
sS'x'
I1101
sg17
I1
sS'y'
I582
s(dp24
S'y'
I892
sS'x'
I1101
sg17
I0
s(dp25
S'y'
I1188
sS'x'
I944
sg17
I0
s(dp26
g2
S'curve'
p27
sS'x'
I587
sg17
I1
sS'y'
I1188
s(dp28
S'y'
I1188
sS'x'
I230
sg17
I0
s(dp29
S'y'
I892
sS'x'
I73
sg17
I0
s(dp30
g2
S'curve'
p31
sS'x'
I73
sg17
I1
sS'y'
I582
s(dp32
S'y'
I266
sS'x'
I73
sg17
I0
s(dp33
S'y'
S'-16'
p34
sS'x'
I232
sg17
I0
stp35
s(dp36
g14
((dp37
g2
S'curve'
p38
sS'x'
I587
sg17
I1
sS'y'
I64
s(dp39
S'y'
I64
sS'x'
I283
sg17
I0
s(dp40
S'y'
I315
sS'x'
I171
sg17
I0
s(dp41
g2
S'curve'
p42
sS'x'
I171
sg17
I1
sS'y'
I582
s(dp43
S'y'
I804
sS'x'
I171
sg17
I0
s(dp44
S'y'
I1108
sS'x'
I258
sg17
I0
s(dp45
g2
S'curve'
p46
sS'x'
I587
sg17
I1
sS'y'
I1108
s(dp47
S'y'
I1108
sS'x'
I920
sg17
I0
s(dp48
S'y'
I804
sS'x'
I1003
sg17
I0
s(dp49
g2
S'curve'
p50
sS'x'
I1003
sg17
I1
sS'y'
I582
s(dp51
S'y'
I315
sS'x'
I1003
sg17
I0
s(dp52
S'y'
I64
sS'x'
I895
sg17
I0
stp53
stp54
sS'components'
p55
(tsS'anchors'
p56
(tsssg10
(tsS'org.robofab.postScriptHintData'
p57
(dp58
sS'com.fontlab.hintData'
p59
(dp60
S'vhints'
p61
((dp62
S'position'
p63
I164
sg11
I175
s(dp64
g63
I164
sg11
I129
s(dp65
g63
I956
sg11
I168
stp66
sS'hhints'
p67
((dp68
g63
I-17
sg11
I127
s(dp69
g63
I983
sg11
I132
stp70
ssg11
I1225
sg14
(tsg12
(tsg55
(tsg63
I1009
sS'y'
I1101
sS'x'
I607
sg56
(ts."
AnchorPoint: "top" 669 1099 basechar 0
LayerCount: 2
Fore
SplineSet
656 -20 m 256
 981 -20 1124 261 1124 545 c 256
 1124 869 977 1116 680 1116 c 260
 536 1116 420 1060 339 977 c 257
 339 1519 l 257
 164 1486 l 257
 164 0 l 257
 293 0 l 257
 319 133 l 257
 389 52 495 -20 656 -20 c 256
662 107 m 256
 506 107 410 160 339 246 c 257
 339 858 l 257
 422 933 530 984 650 984 c 260
 853 984 956 827 956 549 c 256
 956 347 897 107 662 107 c 256
EndSplineSet
EndChar

StartChar: backslash
Encoding: 92 92 155
Width: 894
VWidth: 0
GlyphClass: 2
Flags: MW
PickledData: "(dp1
S'org.robofab.postScriptHintData'
p2
(dp3
s."
LayerCount: 2
Fore
SplineSet
645 -163 m 257
 791 -109 l 257
 205 1628 l 257
 60 1580 l 257
 645 -163 l 257
EndSplineSet
EndChar

StartChar: bar
Encoding: 124 124 156
Width: 658
VWidth: 0
GlyphClass: 2
Flags: MW
PickledData: "(dp1
S'org.robofab.postScriptHintData'
p2
(dp3
sS'position'
p4
I63
sS'com.fontlab.hintData'
p5
(dp6
S'vhints'
p7
((dp8
g4
I247
sS'width'
p9
I165
stp10
ssg9
I108
s."
LayerCount: 2
Fore
SplineSet
247 -103 m 257
 412 -103 l 257
 412 1595 l 257
 247 1595 l 257
 247 -103 l 257
EndSplineSet
EndChar

StartChar: braceleft
Encoding: 123 123 157
Width: 801
VWidth: 0
GlyphClass: 2
Flags: MW
PickledData: "(dp1
S'org.robofab.postScriptHintData'
p2
(dp3
sS'com.fontlab.hintData'
p4
(dp5
S'vhints'
p6
((dp7
S'position'
p8
I295
sS'width'
p9
I176
stp10
sS'hhints'
p11
((dp12
g8
I-158
sg9
I119
s(dp13
g8
I614
sg9
I154
s(dp14
g8
I1421
sg9
I119
stp15
ss."
LayerCount: 2
Fore
SplineSet
695 -158 m 257
 695 -39 l 257
 530 -38 474 20 471 258 c 256
 467 575 431 667 227 691 c 257
 431 714 467 806 471 1123 c 256
 474 1363 533 1420 695 1421 c 257
 695 1540 l 257
 392 1540 295 1468 295 1098 c 256
 295 803 249 768 90 768 c 257
 90 614 l 257
 246 614 295 578 295 284 c 256
 295 -86 392 -158 695 -158 c 257
EndSplineSet
EndChar

StartChar: braceright
Encoding: 125 125 158
Width: 801
VWidth: 0
GlyphClass: 2
Flags: MW
PickledData: "(dp1
S'org.robofab.postScriptHintData'
p2
(dp3
sS'com.fontlab.hintData'
p4
(dp5
S'vhints'
p6
((dp7
S'position'
p8
I332
sS'width'
p9
I176
stp10
sS'hhints'
p11
((dp12
g8
I-158
sg9
I119
s(dp13
g8
I614
sg9
I154
s(dp14
g8
I1421
sg9
I119
stp15
ss."
LayerCount: 2
Fore
SplineSet
107 -158 m 257
 410 -158 508 -86 508 284 c 256
 508 578 556 614 713 614 c 257
 713 768 l 257
 553 768 508 803 508 1098 c 256
 508 1468 410 1540 107 1540 c 257
 107 1421 l 257
 269 1420 329 1363 332 1123 c 256
 336 806 371 714 575 691 c 257
 371 667 336 575 332 258 c 256
 329 20 272 -38 107 -39 c 257
 107 -158 l 257
EndSplineSet
EndChar

StartChar: bracketleft
Encoding: 91 91 159
Width: 886
VWidth: 0
GlyphClass: 2
Flags: MW
PickledData: "(dp1
S'org.robofab.postScriptHintData'
p2
(dp3
sS'position'
p4
I63
sS'com.fontlab.hintData'
p5
(dp6
S'vhints'
p7
((dp8
g4
I170
sS'width'
p9
I623
stp10
ssg9
I119
s."
LayerCount: 2
Fore
SplineSet
170 -188 m 257
 793 -188 l 257
 793 -55 l 257
 349 -55 l 257
 349 1485 l 257
 793 1485 l 257
 793 1617 l 257
 170 1617 l 257
 170 -188 l 257
EndSplineSet
EndChar

StartChar: bracketright
Encoding: 93 93 160
Width: 885
VWidth: 0
GlyphClass: 2
Flags: MW
PickledData: "(dp1
S'org.robofab.postScriptHintData'
p2
(dp3
sS'position'
p4
I556
sS'com.fontlab.hintData'
p5
(dp6
S'vhints'
p7
((dp8
g4
I92
sS'width'
p9
I623
stp10
ssg9
I117
s."
LayerCount: 2
Fore
SplineSet
92 -188 m 257
 715 -188 l 257
 715 1617 l 257
 92 1617 l 257
 92 1485 l 257
 537 1485 l 257
 537 -55 l 257
 92 -55 l 257
 92 -188 l 257
EndSplineSet
EndChar

StartChar: breve
Encoding: 728 728 161
Width: 810
VWidth: 0
GlyphClass: 4
Flags: MW
PickledData: "(dp1
S'org.robofab.postScriptHintData'
p2
(dp3
sS'position'
p4
I400
sS'com.fontlab.hintData'
p5
(dp6
S'vhints'
p7
((dp8
g4
I133
sS'width'
p9
I119
s(dp10
g4
I555
sg9
I118
stp11
sS'hhints'
p12
((dp13
g4
I1241
sg9
I108
stp14
ssg9
I76
s."
AnchorPoint: "top" 410 1098 mark 0
LayerCount: 2
Fore
SplineSet
402 1241 m 256
 568 1241 673 1328 673 1467 c 257
 555 1467 l 257
 555 1395 496 1349 403 1349 c 256
 309 1349 252 1395 252 1467 c 257
 133 1467 l 257
 133 1328 237 1241 402 1241 c 256
EndSplineSet
EndChar

StartChar: brokenbar
Encoding: 166 166 162
Width: 674
VWidth: 0
GlyphClass: 2
Flags: MW
PickledData: "(dp1
S'org.robofab.postScriptHintData'
p2
(dp3
sS'position'
p4
I67
sS'com.fontlab.hintData'
p5
(dp6
S'vhints'
p7
((dp8
g4
I243
sS'width'
p9
I173
stp10
ssg9
I123
s."
LayerCount: 2
Fore
SplineSet
243 -7 m 257
 416 -7 l 257
 416 641 l 257
 243 641 l 257
 243 -7 l 257
243 838 m 257
 416 838 l 257
 416 1486 l 257
 243 1486 l 257
 243 838 l 257
EndSplineSet
EndChar

StartChar: bullet
Encoding: 8226 8226 163
Width: 906
VWidth: 0
GlyphClass: 2
Flags: MW
PickledData: "(dp1
S'org.robofab.postScriptHintData'
p2
(dp3
sS'position'
p4
I58
sS'com.fontlab.hintData'
p5
(dp6
S'vhints'
p7
((dp8
g4
I121
sS'width'
p9
I655
stp10
sS'hhints'
p11
((dp12
g4
I337
sg9
I629
stp13
ssg9
I652
s."
LayerCount: 2
Fore
SplineSet
447 337 m 256
 625 337 776 467 776 650 c 256
 776 830 623 966 447 966 c 256
 270 966 121 831 121 650 c 256
 121 470 270 337 447 337 c 256
EndSplineSet
EndChar

StartChar: c
Encoding: 99 99 164
Width: 1035
VWidth: 0
GlyphClass: 2
Flags: HMW
PickledData: "(dp1
S'name'
p2
S'c'
sS'com.typemytype.robofont.layerData'
p3
(dp4
S'b'
(dp5
g2
S'c'
sS'lib'
p6
(dp7
sS'unicodes'
p8
(tsS'width'
p9
I1086
sS'contours'
p10
(tsS'components'
p11
(tsS'anchors'
p12
(tsssg8
(tsS'org.robofab.postScriptHintData'
p13
(dp14
sS'com.fontlab.hintData'
p15
(dp16
S'vhints'
p17
((dp18
S'position'
p19
I114
sg9
I173
stp20
sS'hhints'
p21
((dp22
g19
I-17
sg9
I127
s(dp23
g19
I985
sg9
I130
stp24
ssg9
I1083
sg10
(tsg11
(tsg19
I118
sg12
(ts."
AnchorPoint: "top" 577 1099 basechar 0
AnchorPoint: "bot" 615 -3 basechar 0
LayerCount: 2
Fore
SplineSet
631 -20 m 260
 751 -20 858 20 955 102 c 261
 900 212 l 261
 828 153 738 107 635 107 c 260
 389 107 287 330 287 545 c 256
 287 762 376 985 617 986 c 256
 721 986 824 951 902 880 c 257
 955 995 l 257
 853 1078 738 1116 612 1116 c 256
 290 1116 114 855 114 549 c 256
 114 241 298 -20 631 -20 c 260
EndSplineSet
EndChar

StartChar: caron
Encoding: 711 711 166
Width: 870
VWidth: 0
GlyphClass: 4
Flags: MW
PickledData: "(dp1
S'org.robofab.postScriptHintData'
p2
(dp3
sS'position'
p4
I28
sS'width'
p5
I632
s."
AnchorPoint: "top" 427 1098 mark 0
LayerCount: 2
Fore
SplineSet
361 1279 m 257
 486 1279 l 257
 741 1690 l 257
 595 1690 l 257
 424 1413 l 257
 252 1690 l 257
 106 1690 l 257
 361 1279 l 257
EndSplineSet
EndChar

StartChar: cedilla
Encoding: 184 184 172
Width: 675
VWidth: 0
GlyphClass: 4
Flags: MW
PickledData: "(dp1
S'org.robofab.postScriptHintData'
p2
(dp3
sS'position'
p4
I360
sS'com.fontlab.hintData'
p5
(dp6
S'vhints'
p7
((dp8
g4
I286
sS'width'
p9
I135
stp10
sS'hhints'
p11
((dp12
g4
I-419
sg9
I98
stp13
ssg9
I101
s."
AnchorPoint: "bot" 196 0 mark 0
LayerCount: 2
Fore
SplineSet
222 -419 m 256
 354 -419 421 -335 421 -247 c 256
 421 -165 360 -80 230 -68 c 257
 243 1 l 257
 139 1 l 257
 128 -111 l 257
 250 -121 286 -170 286 -225 c 256
 286 -294 245 -321 189 -321 c 256
 150 -321 102 -306 55 -282 c 257
 27 -357 l 257
 85 -398 157 -419 222 -419 c 256
EndSplineSet
EndChar

StartChar: cent
Encoding: 162 162 173
Width: 1010
VWidth: 0
GlyphClass: 2
Flags: MW
PickledData: "(dp1
S'org.robofab.postScriptHintData'
p2
(dp3
sS'com.fontlab.hintData'
p4
(dp5
S'vhints'
p6
((dp7
S'position'
p8
I114
sS'width'
p9
I173
stp10
sS'hhints'
p11
((dp12
g8
I59
sg9
I118
s(dp13
g8
I990
sg9
I121
stp14
ss."
LayerCount: 2
Fore
SplineSet
551 -193 m 257
 642 -193 l 257
 642 1354 l 257
 551 1354 l 257
 551 -193 l 257
EndSplineSet
Refer: 164 99 N 1 0 0 0.9292 0 75 2
EndChar

StartChar: circumflex
Encoding: 710 710 174
Width: 870
VWidth: 0
GlyphClass: 4
Flags: MW
PickledData: "(dp1
S'org.robofab.postScriptHintData'
p2
(dp3
sS'position'
p4
I28
sS'width'
p5
I632
s."
AnchorPoint: "top" 427 1098 mark 0
LayerCount: 2
Fore
SplineSet
106 1279 m 257
 252 1279 l 257
 424 1558 l 257
 595 1279 l 257
 741 1279 l 257
 486 1691 l 257
 361 1691 l 257
 106 1279 l 257
EndSplineSet
EndChar

StartChar: colon
Encoding: 58 58 175
Width: 664
VWidth: 0
GlyphClass: 2
Flags: MW
PickledData: "(dp1
S'name'
p2
S'colon'
p3
sS'unicodes'
p4
(tsS'org.robofab.postScriptHintData'
p5
(dp6
sS'com.fontlab.hintData'
p7
(dp8
S'vhints'
p9
((dp10
S'position'
p11
I207
sS'width'
p12
I246
stp13
ssg12
I404
sS'contours'
p14
(tsS'components'
p15
(tsg11
I102
sS'anchors'
p16
(ts."
LayerCount: 2
Fore
SplineSet
207 0 m 257
 453 0 l 257
 453 261 l 257
 207 261 l 257
 207 0 l 257
207 545 m 257
 453 545 l 257
 453 807 l 257
 207 807 l 257
 207 545 l 257
EndSplineSet
EndChar

StartChar: comma
Encoding: 44 44 176
Width: 665
VWidth: 0
GlyphClass: 2
Flags: MW
PickledData: "(dp1
S'org.robofab.postScriptHintData'
p2
(dp3
sS'position'
p4
I205
sS'com.fontlab.hintData'
p5
(dp6
S'vhints'
p7
((dp8
g4
I321
sS'width'
p9
I137
stp10
sS'hhints'
p11
((dp12
g4
I-255
sg9
I76
stp13
ssg9
I102
s."
LayerCount: 2
Fore
SplineSet
246 -255 m 257
 383 -216 458 -103 458 40 c 258
 458 273 l 257
 218 273 l 257
 218 1 l 257
 321 1 l 257
 322 -90 289 -152 209 -179 c 257
 246 -255 l 257
EndSplineSet
EndChar

StartChar: copyright
Encoding: 169 169 177
Width: 1817
VWidth: 0
GlyphClass: 2
Flags: MW
PickledData: "(dp1
S'org.robofab.postScriptHintData'
p2
(dp3
sS'position'
p4
I1575
sS'com.fontlab.hintData'
p5
(dp6
S'vhints'
p7
((dp8
g4
I107
sS'width'
p9
I126
s(dp10
g4
I419
sg9
I134
s(dp11
g4
I1584
sg9
I127
stp12
sS'hhints'
p13
((dp14
g4
I-17
sg9
I100
s(dp15
g4
I265
sg9
I92
s(dp16
g4
I1162
sg9
I92
s(dp17
g4
I1414
sg9
I99
stp18
ssg9
I90
s."
LayerCount: 2
Fore
SplineSet
913 265 m 256
 1048 265 1194 316 1276 392 c 257
 1223 472 l 257
 1145 400 1029 357 919 357 c 256
 692 357 553 509 553 760 c 256
 553 1005 687 1157 902 1162 c 256
 1018 1166 1138 1125 1215 1053 c 257
 1278 1126 l 257
 1196 1205 1045 1257 901 1254 c 256
 605 1247 419 1054 419 760 c 256
 419 460 609 265 913 265 c 256
909 83 m 256
 494 83 233 335 233 748 c 256
 233 1161 494 1414 909 1414 c 256
 1324 1414 1584 1161 1584 748 c 256
 1584 335 1324 83 909 83 c 256
909 -17 m 256
 1400 -17 1711 283 1711 748 c 256
 1711 1213 1400 1513 909 1513 c 256
 418 1513 107 1213 107 748 c 256
 107 283 418 -17 909 -17 c 256
EndSplineSet
EndChar

StartChar: currency
Encoding: 164 164 178
Width: 1133
VWidth: 0
GlyphClass: 2
Flags: MW
PickledData: "(dp1
S'org.robofab.postScriptHintData'
p2
(dp3
sS'position'
p4
I822
sS'com.fontlab.hintData'
p5
(dp6
S'vhints'
p7
((dp8
g4
I164
sS'width'
p9
I132
s(dp10
g4
I828
sg9
I133
stp11
sS'hhints'
p12
((dp13
g4
I525
sg9
I131
s(dp14
g4
I1190
sg9
I132
stp15
ssg9
I118
s."
LayerCount: 2
Fore
SplineSet
168 408 m 257
 343 584 l 257
 404 545 476 525 548 525 c 256
 630 525 708 550 775 596 c 257
 963 408 l 257
 1076 523 l 257
 889 710 l 257
 935 778 961 856 961 939 c 256
 961 1011 941 1081 902 1142 c 257
 1076 1316 l 257
 963 1430 l 257
 790 1258 l 257
 727 1299 653 1322 577 1322 c 256
 494 1322 416 1296 348 1251 c 257
 168 1430 l 257
 55 1316 l 257
 234 1136 l 257
 189 1069 164 991 164 909 c 256
 164 833 186 760 227 697 c 257
 55 523 l 257
 168 408 l 257
555 656 m 256
 416 656 296 777 296 916 c 256
 296 1063 425 1190 571 1190 c 256
 709 1190 828 1070 828 932 c 256
 828 788 699 656 555 656 c 256
EndSplineSet
EndChar

StartChar: d
Encoding: 100 100 179
Width: 1223
VWidth: 0
GlyphClass: 2
Flags: HMW
PickledData: "(dp1
S'segmentType'
p2
S'curve'
p3
sS'name'
p4
S'b'
sS'com.typemytype.robofont.layerData'
p5
(dp6
S'b'
(dp7
g4
S'b'
sS'lib'
p8
(dp9
sS'unicodes'
p10
(tsS'width'
p11
I1219
sS'contours'
p12
((dp13
S'points'
p14
((dp15
g2
S'curve'
p16
sS'x'
I587
sS'smooth'
p17
I1
sS'y'
S'-16'
p18
s(dp19
S'y'
S'-16'
p20
sS'x'
I942
sg17
I0
s(dp21
S'y'
I266
sS'x'
I1101
sg17
I0
s(dp22
g2
S'curve'
p23
sS'x'
I1101
sg17
I1
sS'y'
I582
s(dp24
S'y'
I892
sS'x'
I1101
sg17
I0
s(dp25
S'y'
I1188
sS'x'
I944
sg17
I0
s(dp26
g2
S'curve'
p27
sS'x'
I587
sg17
I1
sS'y'
I1188
s(dp28
S'y'
I1188
sS'x'
I230
sg17
I0
s(dp29
S'y'
I892
sS'x'
I73
sg17
I0
s(dp30
g2
S'curve'
p31
sS'x'
I73
sg17
I1
sS'y'
I582
s(dp32
S'y'
I266
sS'x'
I73
sg17
I0
s(dp33
S'y'
S'-16'
p34
sS'x'
I232
sg17
I0
stp35
s(dp36
g14
((dp37
g2
S'curve'
p38
sS'x'
I587
sg17
I1
sS'y'
I64
s(dp39
S'y'
I64
sS'x'
I283
sg17
I0
s(dp40
S'y'
I315
sS'x'
I171
sg17
I0
s(dp41
g2
S'curve'
p42
sS'x'
I171
sg17
I1
sS'y'
I582
s(dp43
S'y'
I804
sS'x'
I171
sg17
I0
s(dp44
S'y'
I1108
sS'x'
I258
sg17
I0
s(dp45
g2
S'curve'
p46
sS'x'
I587
sg17
I1
sS'y'
I1108
s(dp47
S'y'
I1108
sS'x'
I920
sg17
I0
s(dp48
S'y'
I804
sS'x'
I1003
sg17
I0
s(dp49
g2
S'curve'
p50
sS'x'
I1003
sg17
I1
sS'y'
I582
s(dp51
S'y'
I315
sS'x'
I1003
sg17
I0
s(dp52
S'y'
I64
sS'x'
I895
sg17
I0
stp53
stp54
sS'components'
p55
(tsS'anchors'
p56
(tsssg10
(tsS'org.robofab.postScriptHintData'
p57
(dp58
sS'com.fontlab.hintData'
p59
(dp60
S'vhints'
p61
((dp62
S'position'
p63
I113
sg11
I168
s(dp64
g63
I885
sg11
I174
s(dp65
g63
I930
sg11
I129
stp66
sS'hhints'
p67
((dp68
g63
I983
sg11
I132
stp69
ssg11
I1225
sg14
(tsg12
(tsg55
(tsg63
I1009
sS'y'
I1101
sS'x'
I607
sg56
(ts."
AnchorPoint: "top" 570 1099 basechar 0
AnchorPoint: "caron.alt" 955 1098 basechar 0
AnchorPoint: "mid" 933 1298 basechar 0
LayerCount: 2
Fore
SplineSet
581 -20 m 256
 734 -20 838 46 908 121 c 257
 930 0 l 257
 1059 0 l 257
 1059 1519 l 257
 885 1486 l 257
 885 991 l 257
 805 1065 693 1116 557 1116 c 256
 260 1116 113 870 113 545 c 256
 113 261 257 -20 581 -20 c 256
568 107 m 256
 333 124 281 365 281 549 c 256
 281 827 384 984 587 984 c 256
 701 984 803 939 885 869 c 257
 886 236 l 257
 811 156 717 96 568 107 c 256
EndSplineSet
EndChar

StartChar: dagger
Encoding: 8224 8224 180
Width: 1071
VWidth: 0
GlyphClass: 2
Flags: MW
PickledData: "(dp1
S'org.robofab.postScriptHintData'
p2
(dp3
sS'position'
p4
I480
sS'width'
p5
I94
s."
LayerCount: 2
Fore
SplineSet
452 -188 m 257
 618 -188 l 257
 618 960 l 257
 923 960 l 257
 923 1089 l 257
 618 1089 l 257
 618 1485 l 257
 452 1485 l 257
 452 1089 l 257
 146 1089 l 257
 146 960 l 257
 452 960 l 257
 452 -188 l 257
EndSplineSet
EndChar

StartChar: daggerdbl
Encoding: 8225 8225 181
Width: 1068
VWidth: 0
GlyphClass: 2
Flags: MW
PickledData: "(dp1
S'org.robofab.postScriptHintData'
p2
(dp3
sS'position'
p4
I483
sS'width'
p5
I96
s."
LayerCount: 2
Fore
SplineSet
452 -188 m 257
 618 -188 l 257
 618 286 l 257
 921 286 l 257
 921 414 l 257
 618 414 l 257
 618 960 l 257
 923 960 l 257
 923 1089 l 257
 618 1089 l 257
 618 1485 l 257
 452 1485 l 257
 452 1089 l 257
 146 1089 l 257
 146 960 l 257
 452 960 l 257
 452 414 l 257
 146 414 l 257
 146 286 l 257
 452 286 l 257
 452 -188 l 257
EndSplineSet
EndChar

StartChar: degree
Encoding: 176 176 184
Width: 784
VWidth: 0
GlyphClass: 2
Flags: MW
PickledData: "(dp1
S'org.robofab.postScriptHintData'
p2
(dp3
sS'position'
p4
I346
sS'com.fontlab.hintData'
p5
(dp6
S'vhints'
p7
((dp8
g4
I164
sS'width'
p9
I90
s(dp10
g4
I521
sg9
I89
stp11
sS'hhints'
p12
((dp13
g4
I620
sg9
I83
s(dp14
g4
I982
sg9
I84
stp15
ssg9
I49
s."
LayerCount: 2
Fore
SplineSet
389 703 m 256
 314 703 254 768 254 842 c 256
 254 918 311 982 389 982 c 256
 468 982 521 919 521 842 c 256
 521 766 468 703 389 703 c 256
391 620 m 256
 520 620 610 715 610 843 c 256
 610 969 519 1066 391 1066 c 256
 261 1066 164 973 164 842 c 256
 164 711 263 620 391 620 c 256
EndSplineSet
EndChar

StartChar: dieresis
Encoding: 168 168 185
Width: 942
VWidth: 0
GlyphClass: 4
Flags: MW
PickledData: "(dp1
S'org.robofab.postScriptHintData'
p2
(dp3
sS'position'
p4
I435
sS'com.fontlab.hintData'
p5
(dp6
S'vhints'
p7
((dp8
g4
I140
sS'width'
p9
I203
s(dp10
g4
I597
sg9
I203
stp11
sS'hhints'
p12
((dp13
g4
I1243
sg9
I213
stp14
ssg9
I129
s."
AnchorPoint: "top" 483 1098 mark 0
LayerCount: 2
Fore
SplineSet
243 1243 m 256
 303 1243 343 1292 343 1350 c 256
 343 1407 303 1456 243 1456 c 256
 184 1456 140 1407 140 1350 c 256
 140 1291 183 1243 243 1243 c 256
700 1243 m 256
 760 1243 800 1292 800 1350 c 256
 800 1407 760 1456 700 1456 c 256
 642 1456 597 1407 597 1350 c 256
 597 1291 641 1243 700 1243 c 256
EndSplineSet
EndChar

StartChar: divide
Encoding: 247 247 186
Width: 938
VWidth: 0
GlyphClass: 2
Flags: MW
PickledData: "(dp1
S'org.robofab.postScriptHintData'
p2
(dp3
sS'position'
p4
I139
sS'com.fontlab.hintData'
p5
(dp6
S'vhints'
p7
((dp8
g4
I358
sS'width'
p9
I204
stp10
sS'hhints'
p11
((dp12
g4
I226
sg9
I212
s(dp13
g4
I828
sg9
I213
stp14
ssg9
I135
s."
LayerCount: 2
Fore
SplineSet
462 226 m 256
 521 226 562 275 562 332 c 256
 562 389 521 438 462 438 c 256
 404 438 358 389 358 332 c 256
 358 274 403 226 462 226 c 256
93 573 m 257
 839 573 l 257
 839 694 l 257
 93 694 l 257
 93 573 l 257
464 828 m 256
 524 828 564 877 564 934 c 256
 564 991 524 1041 464 1041 c 256
 406 1041 360 991 360 934 c 256
 360 876 405 828 464 828 c 256
EndSplineSet
EndChar

StartChar: dollar
Encoding: 36 36 187
Width: 945
VWidth: 0
GlyphClass: 2
Flags: MW
PickledData: "(dp1
S'org.robofab.postScriptHintData'
p2
(dp3
sS'position'
p4
I736
sS'com.fontlab.hintData'
p5
(dp6
S'vhints'
p7
((dp8
g4
I128
sS'width'
p9
I162
s(dp10
g4
I740
sg9
I159
stp11
sS'hhints'
p12
((dp13
g4
I106
sg9
I133
s(dp14
g4
I1105
sg9
I133
stp15
ssg9
I73
s."
LayerCount: 2
Fore
SplineSet
349 -165 m 257
 433 -165 l 257
 618 1541 l 257
 533 1541 l 257
 349 -165 l 257
EndSplineSet
Refer: 327 115 N 1 0 0 1 0 123 2
EndChar

StartChar: dotaccent
Encoding: 729 729 188
Width: 610
VWidth: 0
GlyphClass: 4
Flags: MW
PickledData: "(dp1
S'org.robofab.postScriptHintData'
p2
(dp3
sS'position'
p4
I129
sS'com.fontlab.hintData'
p5
(dp6
S'vhints'
p7
((dp8
g4
I199
sS'width'
p9
I203
stp10
sS'hhints'
p11
((dp12
g4
I1268
sg9
I212
stp13
ssg9
I129
s."
AnchorPoint: "top" 309 1098 mark 0
LayerCount: 2
Fore
SplineSet
303 1268 m 256
 364 1268 402 1308 402 1374 c 256
 402 1440 364 1480 303 1480 c 256
 239 1480 199 1440 199 1374 c 256
 199 1308 239 1268 303 1268 c 256
EndSplineSet
EndChar

StartChar: dotlessi
Encoding: 305 305 189
Width: 605
VWidth: 0
GlyphClass: 2
Flags: MW
PickledData: "(dp1
S'org.robofab.postScriptHintData'
p2
(dp3
sS'position'
p4
I86
sS'com.fontlab.hintData'
p5
(dp6
S'vhints'
p7
((dp8
g4
I215
sS'width'
p9
I168
stp10
ssg9
I92
s."
AnchorPoint: "top" 312 1098 basechar 0
AnchorPoint: "ogonek" 319 0 basechar 0
LayerCount: 2
Fore
SplineSet
215 0 m 257
 383 0 l 257
 383 1099 l 257
 215 1099 l 257
 215 0 l 257
EndSplineSet
EndChar

StartChar: e
Encoding: 101 101 190
Width: 1139
VWidth: 0
GlyphClass: 2
Flags: HMW
PickledData: "(dp1
S'segmentType'
p2
S'curve'
p3
sS'name'
p4
S'e'
sS'com.typemytype.robofont.layerData'
p5
(dp6
S'b'
(dp7
g4
S'e'
sS'lib'
p8
(dp9
sS'unicodes'
p10
(tsS'width'
p11
I1173
sS'contours'
p12
(tsS'components'
p13
(tsS'anchors'
p14
(tsssg10
(tsS'org.robofab.postScriptHintData'
p15
(dp16
sS'com.fontlab.hintData'
p17
(dp18
S'vhints'
p19
((dp20
S'position'
p21
I113
sg11
I171
s(dp22
g21
I873
sg11
I155
stp23
sS'hhints'
p24
((dp25
g21
I-17
sg11
I127
s(dp26
g21
I986
sg11
I129
stp27
ssg11
I1188
sS'points'
p28
(tsg12
(tsg13
(tsg21
I981
sS'y'
S'-16'
p29
sS'x'
I277
sg14
(ts."
AnchorPoint: "top" 602 1099 basechar 0
AnchorPoint: "ogonek" 691 -3 basechar 0
AnchorPoint: "bot" 614 -3 basechar 0
LayerCount: 2
Fore
SplineSet
611 -20 m 256
 740 -20 905 23 993 99 c 257
 941 213 l 257
 901 180 785 107 641 107 c 256
 443 107 287 223 284 530 c 257
 1018 530 l 257
 1024 564 1028 599 1028 636 c 256
 1028 907 893 1116 603 1116 c 260
 272 1116 113 844 113 544 c 256
 113 231 279 -20 611 -20 c 256
289 645 m 257
 305 835 387 987 603 987 c 260
 797 987 873 843 873 672 c 258
 873 645 l 257
 289 645 l 257
EndSplineSet
EndChar

StartChar: eight
Encoding: 56 56 198
Width: 1206
VWidth: 0
GlyphClass: 2
Flags: MW
PickledData: "(dp1
S'org.robofab.postScriptHintData'
p2
(dp3
sS'position'
p4
I911
sS'com.fontlab.hintData'
p5
(dp6
S'vhints'
p7
((dp8
g4
I152
sS'width'
p9
I165
s(dp10
g4
I171
sg9
I165
s(dp11
g4
I856
sg9
I165
s(dp12
g4
I875
sg9
I165
stp13
sS'hhints'
p14
((dp15
g4
I-139
sg9
I128
s(dp16
g4
I541
sg9
I108
s(dp17
g4
I1130
sg9
I124
stp18
ssg9
I101
s."
LayerCount: 2
Fore
SplineSet
602 -139 m 256
 872 -139 1040 8 1040 241 c 256
 1040 405 967 541 792 596 c 257
 938 645 1021 747 1021 908 c 256
 1021 1120 860 1254 602 1254 c 256
 338 1254 171 1120 171 908 c 256
 171 750 254 645 400 598 c 257
 225 543 152 406 152 241 c 256
 152 8 327 -139 602 -139 c 256
602 -11 m 256
 427 -11 317 87 317 241 c 256
 317 418 431 541 602 541 c 256
 771 541 875 411 875 241 c 256
 875 87 770 -11 602 -11 c 256
602 649 m 256
 455 649 336 756 336 908 c 256
 336 1044 438 1130 602 1130 c 256
 758 1130 856 1044 856 908 c 256
 856 757 748 649 602 649 c 256
EndSplineSet
EndChar

StartChar: emdash
Encoding: 8212 8212 201
Width: 1088
VWidth: 0
GlyphClass: 2
Flags: MW
PickledData: "(dp1
S'org.robofab.postScriptHintData'
p2
(dp3
sS'position'
p4
I105
sS'com.fontlab.hintData'
p5
(dp6
S'hhints'
p7
((dp8
g4
I522
sS'width'
p9
I132
stp10
ssg9
I521
s."
LayerCount: 2
Fore
SplineSet
110 522 m 257
 979 522 l 257
 979 654 l 257
 110 654 l 257
 110 522 l 257
EndSplineSet
EndChar

StartChar: emptyset
Encoding: 8709 8709 202
Width: 1650
VWidth: 0
GlyphClass: 2
Flags: MW
PickledData: "(dp1
S'org.robofab.postScriptHintData'
p2
(dp3
sS'com.fontlab.hintData'
p4
(dp5
S'vhints'
p6
((dp7
S'position'
p8
I260
sS'width'
p9
I152
s(dp10
g8
I1256
sg9
I151
stp11
sS'hhints'
p12
((dp13
g8
I-17
sg9
I143
s(dp14
g8
I987
sg9
I143
stp15
ss."
LayerCount: 2
Fore
SplineSet
352 -89 m 257
 508 85 l 257
 600 21 713 -17 834 -17 c 256
 1151 -17 1407 239 1407 556 c 256
 1407 701 1354 831 1266 932 c 257
 1418 1102 l 257
 1331 1178 l 257
 1183 1011 l 257
 1086 1086 965 1130 834 1130 c 256
 517 1130 260 873 260 556 c 256
 260 403 320 263 419 160 c 257
 264 -13 l 257
 352 -89 l 257
516 269 m 257
 450 346 412 447 412 556 c 256
 412 789 584 987 834 987 c 256
 932 987 1018 957 1087 906 c 257
 516 269 l 257
834 126 m 256
 747 126 668 151 603 193 c 257
 1168 823 l 257
 1223 750 1256 656 1256 556 c 256
 1256 323 1084 126 834 126 c 256
EndSplineSet
EndChar

StartChar: endash
Encoding: 8211 8211 203
Width: 789
VWidth: 0
GlyphClass: 2
Flags: MW
PickledData: "(dp1
S'org.robofab.postScriptHintData'
p2
(dp3
sS'position'
p4
I105
sS'com.fontlab.hintData'
p5
(dp6
S'vhints'
p7
((dp8
g4
I173
sS'width'
p9
I437
stp10
sS'hhints'
p11
((dp12
g4
I522
sg9
I132
stp13
ssg9
I348
s."
LayerCount: 2
Fore
SplineSet
173 522 m 257
 610 522 l 257
 610 654 l 257
 173 654 l 257
 173 522 l 257
EndSplineSet
EndChar

StartChar: eng
Encoding: 331 331 204
Width: 1196
VWidth: 0
GlyphClass: 2
Flags: MW
PickledData: "(dp1
S'org.robofab.postScriptHintData'
p2
(dp3
sS'com.fontlab.hintData'
p4
(dp5
S'vhints'
p6
((dp7
S'position'
p8
I164
sS'width'
p9
I129
s(dp10
g8
I885
sg9
I171
s(dp11
g8
I899
sg9
I172
stp12
sS'hhints'
p13
((dp14
g8
I-433
sg9
I128
s(dp15
g8
I982
sg9
I133
stp16
ss."
LayerCount: 2
Fore
SplineSet
792 -433 m 257
 1019 -378 1139 -279 1139 42 c 258
 1139 251 l 257
 956 251 l 257
 956 63 l 258
 956 -183 950 -227 746 -305 c 257
 792 -433 l 257
EndSplineSet
Refer: 269 110 N 1 0 0 1 0 0 2
EndChar

StartChar: equal
Encoding: 61 61 206
Width: 873
VWidth: 0
GlyphClass: 2
Flags: MW
PickledData: "(dp1
S'org.robofab.postScriptHintData'
p2
(dp3
sS'position'
p4
I148
sS'com.fontlab.hintData'
p5
(dp6
S'vhints'
p7
((dp8
g4
I123
sS'width'
p9
I625
stp10
ssg9
I369
s."
LayerCount: 2
Fore
SplineSet
123 312 m 257
 748 312 l 257
 748 432 l 257
 123 432 l 257
 123 312 l 257
123 583 m 257
 748 583 l 257
 748 703 l 257
 123 703 l 257
 123 583 l 257
EndSplineSet
EndChar

StartChar: estimated
Encoding: 8494 8494 207
Width: 1094
VWidth: 0
GlyphClass: 2
Flags: MW
PickledData: "(dp1
S'org.robofab.postScriptHintData'
p2
(dp3
sS'com.fontlab.hintData'
p4
(dp5
S'vhints'
p6
((dp7
S'position'
p8
I103
sS'width'
p9
I247
s(dp10
g8
I794
sg9
I197
stp11
sS'hhints'
p12
((dp13
g8
I113
sg9
I91
s(dp14
g8
I1152
sg9
I94
stp15
ss."
LayerCount: 2
Fore
SplineSet
588 113 m 256
 711 113 864 151 950 219 c 257
 913 303 l 257
 860 265 751 204 618 204 c 256
 514 204 418 241 350 321 c 257
 350 679 l 257
 983 679 l 257
 988 707 991 736 991 766 c 256
 991 1047 860 1246 579 1246 c 256
 258 1246 103 985 103 674 c 256
 103 369 265 113 588 113 c 256
350 758 m 257
 350 1059 l 257
 403 1116 476 1152 580 1152 c 256
 679 1152 748 1115 794 1055 c 257
 794 758 l 257
 350 758 l 257
EndSplineSet
EndChar

StartChar: eth
Encoding: 240 240 208
Width: 1176
VWidth: 0
GlyphClass: 2
Flags: MW
PickledData: "(dp1
S'org.robofab.postScriptHintData'
p2
(dp3
sS'position'
p4
I885
sS'com.fontlab.hintData'
p5
(dp6
S'vhints'
p7
((dp8
g4
I101
sS'width'
p9
I167
s(dp10
g4
I885
sg9
I170
stp11
sS'hhints'
p12
((dp13
g4
I-19
sg9
I132
s(dp14
g4
I987
sg9
I132
stp15
ssg9
I95
s."
LayerCount: 2
Fore
SplineSet
556 -19 m 256
 952 -19 1055 302 1055 647 c 256
 1055 915 979 1127 823 1340 c 257
 1069 1413 l 257
 1029 1496 l 257
 760 1417 l 257
 672 1504 589 1578 482 1638 c 257
 404 1543 l 257
 481 1495 551 1437 614 1373 c 257
 422 1317 l 257
 462 1233 l 257
 682 1298 l 257
 766 1201 840 1086 879 963 c 257
 803 1060 657 1119 536 1119 c 256
 225 1119 101 821 101 549 c 256
 101 257 229 -19 556 -19 c 256
552 113 m 256
 312 113 268 356 268 552 c 256
 268 777 317 987 575 987 c 256
 782 987 885 820 885 625 c 256
 885 382 845 113 552 113 c 256
EndSplineSet
EndChar

StartChar: exclam
Encoding: 33 33 209
Width: 501
VWidth: 0
GlyphClass: 2
Flags: MW
PickledData: "(dp1
S'org.robofab.postScriptHintData'
p2
(dp3
sS'position'
p4
S'-94'
p5
sS'com.fontlab.hintData'
p6
(dp7
S'vhints'
p8
((dp9
g4
I165
sS'width'
p10
I204
s(dp11
g4
I179
sg10
I174
s(dp12
g4
I225
sg10
I82
stp13
sS'hhints'
p14
((dp15
g4
I0
sg10
I212
stp16
ssg10
I437
s."
LayerCount: 2
Fore
SplineSet
270 0 m 256
 330 0 369 49 369 106 c 256
 369 163 330 212 270 212 c 256
 210 212 165 164 165 106 c 256
 165 49 211 0 270 0 c 256
225 381 m 257
 307 381 l 257
 353 1484 l 257
 179 1484 l 257
 225 381 l 257
EndSplineSet
EndChar

StartChar: f
Encoding: 102 102 211
Width: 795
VWidth: 0
GlyphClass: 2
Flags: HMW
PickledData: "(dp1
S'segmentType'
p2
S'line'
p3
sS'name'
p4
S'f'
sS'com.typemytype.robofont.layerData'
p5
(dp6
S'b'
(dp7
g4
S'f'
sS'lib'
p8
(dp9
sS'unicodes'
p10
(tsS'width'
p11
I721
sS'contours'
p12
((dp13
S'points'
p14
((dp15
g2
S'curve'
p16
sS'x'
I483
sS'smooth'
p17
I1
sS'y'
I1614
s(dp18
S'y'
I1614
sS'x'
I291
sg17
I0
s(dp19
S'y'
I1475
sS'x'
I239
sg17
I0
s(dp20
g2
S'curve'
p21
sS'x'
I239
sg17
I1
sS'y'
I1375
s(dp22
g2
S'line'
p23
sS'x'
I239
sg17
I0
sS'y'
I499
s(dp24
g2
S'line'
p25
sS'x'
I51
sg17
I0
sS'y'
I499
s(dp26
g2
S'line'
p27
sS'x'
I51
sg17
I0
sS'y'
I430
s(dp28
g2
S'line'
p29
sS'x'
I240
sg17
I0
sS'y'
I430
s(dp30
g2
S'line'
p31
sS'x'
I252
sg17
I0
sS'y'
I59
s(dp32
g2
S'line'
p33
sS'x'
I335
sg17
I0
sS'y'
I40
s(dp34
g2
S'line'
p35
sS'x'
I335
sg17
I0
sS'y'
I430
s(dp36
g2
S'line'
p37
sS'x'
I675
sg17
I0
sS'y'
I430
s(dp38
g2
S'line'
p39
sS'x'
I675
sg17
I0
sS'y'
I499
s(dp40
g2
S'line'
p41
sS'x'
I335
sg17
I0
sS'y'
I499
s(dp42
g2
S'line'
p43
sS'x'
I335
sg17
I1
sS'y'
I1374
s(dp44
S'y'
I1462
sS'x'
I335
sg17
I0
s(dp45
S'y'
I1538
sS'x'
I378
sg17
I0
s(dp46
g2
S'curve'
p47
sS'x'
I495
sg17
I1
sS'y'
I1538
s(dp48
S'y'
I1538
sS'x'
I538
sg17
I0
s(dp49
S'y'
I1526
sS'x'
I592
sg17
I0
s(dp50
g2
S'curve'
p51
sS'x'
I657
sg17
I0
sS'y'
I1504
s(dp52
g2
S'line'
p53
sS'x'
I679
sg17
I0
sS'y'
I1575
s(dp54
S'y'
I1601
sS'x'
I602
sg17
I0
s(dp55
S'y'
I1614
sS'x'
I538
sg17
I0
stp56
stp57
sS'components'
p58
(tsS'anchors'
p59
(tsssg10
(tsS'org.robofab.postScriptHintData'
p60
(dp61
sS'com.fontlab.hintData'
p62
(dp63
S'vhints'
p64
((dp65
S'position'
p66
I277
sg11
I171
stp67
sS'hhints'
p68
((dp69
g66
I1419
sg11
I129
stp70
ssg11
I722
sg14
(tsg12
(tsg58
(tsg66
I236
sS'y'
I0
sS'x'
I340
sg59
(ts."
AnchorPoint: "top" 334 1485 basechar 0
LayerCount: 2
Fore
SplineSet
277 0 m 257
 448 0 l 257
 448 982 l 261
 774 982 l 261
 774 1096 l 261
 448 1096 l 261
 448 1176 l 258
 448 1394 549 1418 620 1419 c 256
 658 1420 722 1404 769 1386 c 257
 806 1502 l 257
 740 1529 669 1546 602 1548 c 256
 453 1552 277 1472 277 1183 c 258
 277 1096 l 261
 86 1096 l 261
 86 982 l 261
 277 982 l 261
 277 0 l 257
EndSplineSet
EndChar

StartChar: five
Encoding: 53 53 212
Width: 1130
VWidth: 0
GlyphClass: 2
Flags: HMW
PickledData: "(dp1
S'org.robofab.postScriptHintData'
p2
(dp3
sS'position'
p4
I762
sS'com.fontlab.hintData'
p5
(dp6
S'vhints'
p7
((dp8
g4
I821
sS'width'
p9
I158
stp10
sS'hhints'
p11
((dp12
g4
I-195
sg9
I140
s(dp13
g4
I529
sg9
I126
stp14
ssg9
I104
s."
LayerCount: 2
Fore
SplineSet
520 -198 m 256
 786 -198 979 -49 979 229 c 256
 979 483 810 652 556 652 c 256
 488 652 378 634 330 580 c 257
 330 957 l 257
 897 957 l 257
 897 1096 l 257
 196 1096 l 257
 196 502 l 257
 259 438 l 257
 339 477 446 526 540 526 c 256
 729 526 821 405 821 225 c 256
 821 29 712 -58 522 -58 c 256
 417 -58 300 -24 209 24 c 257
 162 -109 l 257
 280 -157 385 -198 520 -198 c 256
EndSplineSet
EndChar

StartChar: fj
Encoding: 65537 -1 213
Width: 1225
VWidth: 0
GlyphClass: 2
Flags: HMW
PickledData: "(dp1
S'org.robofab.postScriptHintData'
p2
(dp3
sS'position'
p4
I840
sS'com.fontlab.hintData'
p5
(dp6
S'vhints'
p7
((dp8
g4
I225
sS'width'
p9
I175
s(dp10
g4
I841
sg9
I204
s(dp11
g4
I858
sg9
I175
stp12
sS'hhints'
p13
((dp14
g4
I1266
sg9
I214
s(dp15
g4
I1437
sg9
I126
stp16
ssg9
I104
s."
LayerCount: 2
Fore
SplineSet
724 -352 m 257
 949 -297 1033 -70 1033 143 c 258
 1033 1096 l 261
 400 1096 l 261
 400 1316 411 1437 555 1437 c 256
 595 1438 648 1418 717 1372 c 257
 767 1483 l 257
 670 1538 590 1563 523 1563 c 256
 305 1562 225 1401 225 1096 c 261
 41 1096 l 261
 41 999 l 261
 225 999 l 261
 225 0 l 257
 400 0 l 257
 400 999 l 261
 858 999 l 261
 858 163 l 258
 858 -20 845 -142 680 -244 c 257
 724 -352 l 257
945 1266 m 256
 1006 1266 1045 1315 1045 1372 c 256
 1045 1429 1006 1480 945 1480 c 256
 887 1480 841 1429 841 1372 c 256
 841 1315 886 1266 945 1266 c 256
EndSplineSet
EndChar

StartChar: florin
Encoding: 402 402 214
Width: 1054
VWidth: 0
GlyphClass: 2
Flags: MW
PickledData: "(dp1
S'org.robofab.postScriptHintData'
p2
(dp3
sS'position'
p4
I1577
sS'com.fontlab.hintData'
p5
(dp6
S'hhints'
p7
((dp8
g4
I1387
sS'width'
p9
I140
stp10
ssg9
I80
s."
LayerCount: 2
Fore
SplineSet
304 0 m 257
 474 0 l 257
 597 967 l 257
 924 967 l 257
 933 1064 l 257
 607 1064 l 257
 639 1295 685 1387 809 1387 c 256
 851 1387 903 1377 968 1355 c 257
 1010 1474 l 257
 923 1507 842 1527 772 1527 c 256
 593 1527 472 1404 432 1064 c 257
 250 1064 l 257
 240 967 l 257
 422 967 l 257
 304 0 l 257
EndSplineSet
EndChar

StartChar: four
Encoding: 52 52 215
Width: 1130
VWidth: 0
GlyphClass: 2
Flags: MW
PickledData: "(dp1
S'org.robofab.postScriptHintData'
p2
(dp3
sS'position'
p4
I832
sS'width'
p5
I108
s."
LayerCount: 2
Fore
SplineSet
740 -245 m 257
 898 -245 l 257
 898 64 l 257
 1073 64 l 257
 1073 193 l 257
 898 193 l 257
 898 1099 l 257
 747 1136 l 257
 104 190 l 257
 130 64 l 257
 740 64 l 257
 740 -245 l 257
274 191 m 257
 740 880 l 257
 740 191 l 257
 274 191 l 257
EndSplineSet
EndChar

StartChar: fraction
Encoding: 8260 8260 216
Width: 859
VWidth: 0
GlyphClass: 2
Flags: MW
PickledData: "(dp1
S'org.robofab.postScriptHintData'
p2
(dp3
s."
LayerCount: 2
Fore
SplineSet
111 -17 m 257
 859 1502 l 257
 745 1502 l 257
 0 -17 l 257
 111 -17 l 257
EndSplineSet
EndChar

StartChar: g
Encoding: 103 103 217
Width: 1142
VWidth: 0
GlyphClass: 2
Flags: HMW
PickledData: "(dp1
S'name'
p2
S'g'
sS'segmentType'
p3
S'curve'
p4
sS'anchors'
p5
(tsS'unicodes'
p6
(tsS'org.robofab.postScriptHintData'
p7
(dp8
sS'com.fontlab.hintData'
p9
(dp10
S'vhints'
p11
((dp12
S'position'
p13
I133
sS'width'
p14
I151
s(dp15
g13
I156
sg14
I152
s(dp16
g13
I814
sg14
I149
s(dp17
g13
I900
sg14
I153
stp18
sS'hhints'
p19
((dp20
g13
I-393
sg14
I132
s(dp21
g13
I80
sg14
I127
s(dp22
g13
I398
sg14
I121
s(dp23
g13
I978
sg14
I119
s(dp24
g13
I993
sg14
I122
stp25
ssg14
I1177
sS'points'
p26
(tsS'contours'
p27
(tsS'components'
p28
(tsg13
I960
sS'y'
I904
sS'x'
I982
sS'com.typemytype.robofont.guides'
p29
(ts."
AnchorPoint: "top" 548 1099 basechar 0
LayerCount: 2
Fore
SplineSet
509 -393 m 256
 798 -393 1053 -330 1053 -78 c 256
 1053 186 867 207 626 207 c 258
 348 207 l 257
 348 207 308 246 308 304 c 256
 308 363 352 438 352 439 c 257
 353 438 424 398 546 398 c 256
 785 398 963 517 963 775 c 257
 961 844 928 919 887 953 c 261
 1114 979 l 261
 1104 1098 l 261
 1002 1097 911 1091 819 1044 c 261
 746 1101 647 1116 556 1116 c 260
 298 1116 132 960 132 769 c 256
 132 594 235 500 285 475 c 257
 188 389 156 320 156 260 c 256
 156 172 229 114 289 104 c 257
 196 61 133 -16 133 -125 c 256
 133 -353 319 -393 509 -393 c 256
517 -261 m 256
 399 -261 284 -244 284 -111 c 256
 284 -38 316 43 375 80 c 257
 666 80 l 258
 796 80 900 88 900 -83 c 256
 900 -246 714 -261 517 -261 c 256
556 519 m 256
 360 519 288 616 288 763 c 256
 288 894 373 994 563 994 c 260
 743 994 814 897 814 750 c 256
 814 646 749 519 556 519 c 256
EndSplineSet
EndChar

StartChar: germandbls
Encoding: 223 223 223
Width: 1301
VWidth: 0
GlyphClass: 2
Flags: MW
PickledData: "(dp1
S'name'
p2
S'germandbls'
p3
sS'unicodes'
p4
(tsS'org.robofab.postScriptHintData'
p5
(dp6
sS'com.fontlab.hintData'
p7
(dp8
S'vhints'
p9
((dp10
S'position'
p11
I151
sS'width'
p12
I179
s(dp13
g11
I890
sg12
I159
s(dp14
g11
I1053
sg12
I167
stp15
sS'hhints'
p16
((dp17
g11
I-119
sg12
I143
s(dp18
g11
I1355
sg12
I131
stp19
ssg12
I1163
sS'contours'
p20
(tsS'components'
p21
(tsg11
I1039
sS'anchors'
p22
(ts."
LayerCount: 2
Fore
SplineSet
496 -119 m 257
 824 -119 1220 -36 1220 372 c 256
 1220 624 1072 795 817 795 c 257
 980 814 1049 954 1049 1107 c 256
 1049 1398 845 1486 589 1486 c 256
 256 1486 149 1305 149 987 c 258
 151 -6 l 257
 330 14 l 257
 329 963 l 258
 329 1175 334 1355 589 1355 c 256
 750 1355 890 1316 890 1130 c 256
 890 878 716 844 510 850 c 256
 498 850 478 851 465 852 c 257
 465 730 l 257
 688 730 1053 717 1053 406 c 256
 1053 56 793 24 496 24 c 257
 496 -119 l 257
EndSplineSet
EndChar

StartChar: grave
Encoding: 96 96 224
Width: 741
VWidth: 0
GlyphClass: 4
Flags: MW
PickledData: "(dp1
S'org.robofab.postScriptHintData'
p2
(dp3
sS'position'
p4
S'-10'
p5
sS'width'
p6
I447
s."
AnchorPoint: "top" 534 1098 mark 0
LayerCount: 2
Fore
SplineSet
533 1290 m 257
 570 1334 l 257
 181 1716 l 257
 61 1590 l 257
 533 1290 l 257
EndSplineSet
EndChar

StartChar: greater
Encoding: 62 62 225
Width: 1366
VWidth: 0
GlyphClass: 2
Flags: MW
PickledData: "(dp1
S'org.robofab.postScriptHintData'
p2
(dp3
s."
LayerCount: 2
Fore
SplineSet
272 143 m 257
 1167 708 l 257
 272 1273 l 257
 199 1171 l 257
 913 708 l 257
 199 244 l 257
 272 143 l 257
EndSplineSet
EndChar

StartChar: greaterequal
Encoding: 8805 8805 226
Width: 1364
VWidth: 0
GlyphClass: 2
Flags: MW
PickledData: "(dp1
S'org.robofab.postScriptHintData'
p2
(dp3
s."
LayerCount: 2
Fore
SplineSet
274 340 m 257
 1167 811 l 257
 274 1282 l 257
 200 1171 l 257
 885 811 l 257
 200 451 l 257
 274 340 l 257
217 0 m 257
 1070 0 l 257
 1070 132 l 257
 217 132 l 257
 217 0 l 257
EndSplineSet
EndChar

StartChar: guillemotleft
Encoding: 171 171 227
Width: 1218
VWidth: 0
GlyphClass: 2
Flags: MW
PickledData: "(dp1
S'org.robofab.postScriptHintData'
p2
(dp3
sS'position'
p4
S'-121'
p5
sS'width'
p6
I483
s."
LayerCount: 2
Fore
SplineSet
656 116 m 257
 656 290 l 257
 293 546 l 257
 656 797 l 257
 656 968 l 257
 145 609 l 257
 145 475 l 257
 656 116 l 257
1111 116 m 257
 1111 290 l 257
 748 546 l 257
 1111 797 l 257
 1111 968 l 257
 600 609 l 257
 600 475 l 257
 1111 116 l 257
EndSplineSet
EndChar

StartChar: guillemotright
Encoding: 187 187 228
Width: 1218
VWidth: 0
GlyphClass: 2
Flags: MW
PickledData: "(dp1
S'org.robofab.postScriptHintData'
p2
(dp3
sS'position'
p4
S'-121'
p5
sS'width'
p6
I483
s."
LayerCount: 2
Fore
SplineSet
180 116 m 257
 692 475 l 257
 692 609 l 257
 180 968 l 257
 180 797 l 257
 543 546 l 257
 180 290 l 257
 180 116 l 257
635 116 m 257
 1147 475 l 257
 1147 609 l 257
 635 968 l 257
 635 797 l 257
 998 546 l 257
 635 290 l 257
 635 116 l 257
EndSplineSet
EndChar

StartChar: guilsinglleft
Encoding: 8249 8249 229
Width: 869
VWidth: 0
GlyphClass: 2
Flags: MW
PickledData: "(dp1
S'org.robofab.postScriptHintData'
p2
(dp3
sS'position'
p4
S'-121'
p5
sS'width'
p6
I483
s."
LayerCount: 2
Fore
SplineSet
739 116 m 257
 739 290 l 257
 321 546 l 257
 739 797 l 257
 739 968 l 257
 172 609 l 257
 172 475 l 257
 739 116 l 257
EndSplineSet
EndChar

StartChar: guilsinglright
Encoding: 8250 8250 230
Width: 869
VWidth: 0
GlyphClass: 2
Flags: MW
PickledData: "(dp1
S'org.robofab.postScriptHintData'
p2
(dp3
sS'position'
p4
S'-121'
p5
sS'width'
p6
I483
s."
LayerCount: 2
Fore
SplineSet
180 116 m 257
 747 475 l 257
 747 609 l 257
 180 968 l 257
 180 797 l 257
 599 546 l 257
 180 290 l 257
 180 116 l 257
EndSplineSet
EndChar

StartChar: h
Encoding: 104 104 231
Width: 1224
VWidth: 0
GlyphClass: 2
Flags: HMW
PickledData: "(dp1
S'name'
p2
S'h'
sS'com.typemytype.robofont.layerData'
p3
(dp4
S'b'
(dp5
g2
S'h'
sS'lib'
p6
(dp7
sS'unicodes'
p8
(tsS'width'
p9
I1221
sS'contours'
p10
(tsS'components'
p11
(tsS'anchors'
p12
(tsssg8
(tsS'org.robofab.postScriptHintData'
p13
(dp14
sS'com.fontlab.hintData'
p15
(dp16
S'vhints'
p17
((dp18
S'position'
p19
I899
sg9
I172
stp20
sS'hhints'
p21
((dp22
g19
I982
sg9
I133
stp23
ssg9
I1169
sg10
(tsg11
(tsg19
I945
sg12
(ts."
AnchorPoint: "top" 699 1099 basechar 0
LayerCount: 2
Fore
SplineSet
164 0 m 257
 336 0 l 257
 336 820 l 261
 415 901 524 983 682 983 c 260
 864 983 899 830 899 684 c 262
 899 0 l 257
 1071 0 l 257
 1071 684 l 262
 1071 923 980 1116 697 1116 c 260
 540 1116 422 1042 336 960 c 261
 336 1521 l 257
 164 1486 l 257
 164 0 l 257
EndSplineSet
EndChar

StartChar: hbar
Encoding: 295 295 232
Width: 1226
VWidth: 0
GlyphClass: 2
Flags: MW
PickledData: "(dp1
S'org.robofab.postScriptHintData'
p2
(dp3
sS'position'
p4
I949
sS'com.fontlab.hintData'
p5
(dp6
S'vhints'
p7
((dp8
g4
I906
sS'width'
p9
I175
stp10
sS'hhints'
p11
((dp12
g4
I987
sg9
I132
stp13
ssg9
I105
s."
LayerCount: 2
Fore
SplineSet
155 0 m 257
 330 0 l 257
 330 835 l 257
 413 922 567 987 685 987 c 256
 870 987 906 840 906 683 c 258
 906 0 l 257
 1081 0 l 257
 1081 683 l 258
 1081 955 975 1119 698 1119 c 256
 545 1119 432 1041 330 949 c 257
 330 1277 l 257
 678 1277 l 257
 678 1385 l 257
 330 1385 l 257
 330 1519 l 257
 155 1484 l 257
 155 1385 l 257
 39 1385 l 257
 39 1277 l 257
 155 1277 l 257
 155 0 l 257
EndSplineSet
EndChar

StartChar: hungarumlaut
Encoding: 733 733 234
Width: 925
VWidth: 0
GlyphClass: 4
Flags: MW
PickledData: "(dp1
S'org.robofab.postScriptHintData'
p2
(dp3
sS'position'
p4
S'-192'
p5
sS'width'
p6
I449
s."
AnchorPoint: "top" 241 1098 mark 0
LayerCount: 2
Fore
SplineSet
86 1292 m 257
 505 1665 l 257
 366 1769 l 257
 43 1331 l 257
 86 1292 l 257
397 1288 m 257
 866 1591 l 257
 745 1717 l 257
 360 1332 l 257
 397 1288 l 257
EndSplineSet
EndChar

StartChar: hyphen
Encoding: 45 45 235
AltUni2: 002015.ffffffff.0
Width: 929
VWidth: 0
GlyphClass: 4
Flags: MW
PickledData: "(dp1
S'org.robofab.postScriptHintData'
p2
(dp3
sS'position'
p4
I105
sS'com.fontlab.hintData'
p5
(dp6
S'vhints'
p7
((dp8
g4
I149
sS'width'
p9
I632
stp10
sS'hhints'
p11
((dp12
g4
I477
sg9
I144
stp13
ssg9
I613
s."
AnchorPoint: "mid" 462 550 mark 0
LayerCount: 2
Fore
SplineSet
149 477 m 257
 781 477 l 257
 781 621 l 257
 149 621 l 257
 149 477 l 257
EndSplineSet
EndChar

StartChar: i
Encoding: 105 105 236
Width: 535
VWidth: 0
GlyphClass: 2
Flags: HMW
PickledData: "(dp1
S'name'
p2
S'i'
sS'com.typemytype.robofont.layerData'
p3
(dp4
S'b'
(dp5
g2
S'i'
sS'lib'
p6
(dp7
sS'unicodes'
p8
(tsS'width'
p9
I442
sS'contours'
p10
(tsS'components'
p11
(tsS'anchors'
p12
(tsssg8
(tsS'org.robofab.postScriptHintData'
p13
(dp14
sS'com.fontlab.hintData'
p15
(dp16
S'vhints'
p17
((dp18
S'position'
p19
I175
sg9
I204
stp20
sS'hhints'
p21
((dp22
g19
I1266
sg9
I214
stp23
ssg9
I91
sg10
(tsg11
(tsg19
I154
sg12
(ts."
LayerCount: 2
Fore
SplineSet
188 0 m 257
 359 0 l 257
 359 1096 l 261
 188 1096 l 261
 188 0 l 257
279 1266 m 256
 339 1266 379 1315 379 1372 c 256
 379 1429 339 1480 279 1480 c 256
 220 1480 175 1429 175 1372 c 256
 175 1315 219 1266 279 1266 c 256
EndSplineSet
EndChar

StartChar: infinity
Encoding: 8734 8734 244
Width: 1647
VWidth: 0
GlyphClass: 2
Flags: MW
PickledData: "(dp1
S'org.robofab.postScriptHintData'
p2
(dp3
sS'com.fontlab.hintData'
p4
(dp5
S'vhints'
p6
((dp7
S'position'
p8
I117
sS'width'
p9
I133
s(dp10
g8
I1403
sg9
I134
stp11
sS'hhints'
p12
((dp13
g8
I306
sg9
I112
s(dp14
g8
I779
sg9
I112
stp15
ss."
LayerCount: 2
Fore
SplineSet
399 306 m 256
 562 306 699 410 826 520 c 257
 953 410 1091 306 1254 306 c 256
 1401 306 1544 384 1537 599 c 257
 1544 814 1401 891 1254 891 c 256
 1091 891 953 788 826 678 c 257
 699 788 562 891 399 891 c 256
 253 891 109 814 117 599 c 257
 109 384 253 306 399 306 c 256
409 418 m 256
 324 418 244 446 250 599 c 257
 244 752 324 779 409 779 c 256
 520 779 625 696 736 599 c 257
 625 502 520 418 409 418 c 256
1244 418 m 256
 1133 418 1028 502 916 599 c 257
 1028 696 1133 779 1244 779 c 256
 1330 779 1408 752 1403 599 c 257
 1408 446 1330 418 1244 418 c 256
EndSplineSet
EndChar

StartChar: integral
Encoding: 8747 8747 245
Width: 1228
VWidth: 0
GlyphClass: 2
Flags: MW
PickledData: "(dp1
S'org.robofab.postScriptHintData'
p2
(dp3
sS'position'
p4
I1577
sS'com.fontlab.hintData'
p5
(dp6
S'hhints'
p7
((dp8
g4
I-303
sS'width'
p9
I135
s(dp10
g4
I1387
sg9
I140
stp11
ssg9
I80
s."
LayerCount: 2
Fore
SplineSet
337 -303 m 256
 516 -303 606 -146 647 196 c 258
 750 1073 l 257
 780 1295 826 1387 950 1387 c 256
 992 1387 1044 1377 1109 1355 c 257
 1152 1474 l 257
 1065 1507 983 1527 913 1527 c 256
 734 1527 614 1404 575 1074 c 258
 477 217 l 258
 444 -61 407 -168 301 -168 c 256
 260 -168 208 -152 142 -124 c 257
 100 -239 l 257
 193 -281 270 -303 337 -303 c 256
EndSplineSet
EndChar

StartChar: j
Encoding: 106 106 248
Width: 561
VWidth: 0
GlyphClass: 2
Flags: HMW
PickledData: "(dp1
S'name'
p2
S'j'
sS'com.typemytype.robofont.layerData'
p3
(dp4
S'b'
(dp5
g2
S'j'
sS'lib'
p6
(dp7
sS'unicodes'
p8
(tsS'width'
p9
I447
sS'contours'
p10
(tsS'components'
p11
(tsS'anchors'
p12
(tsssg8
(tsS'org.robofab.postScriptHintData'
p13
(dp14
sS'com.fontlab.hintData'
p15
(dp16
S'vhints'
p17
((dp18
S'position'
p19
I206
sg9
I204
s(dp20
g19
I222
sg9
I172
stp21
sS'hhints'
p22
((dp23
g19
I-432
sg9
I127
s(dp24
g19
I1266
sg9
I214
stp25
ssg9
I448
sg10
(tsg11
(tsg19
I203
sg12
(ts."
LayerCount: 2
Fore
SplineSet
49 -432 m 257
 274 -377 394 -278 394 43 c 258
 394 1096 l 261
 222 1096 l 261
 222 63 l 258
 222 -182 205 -225 3 -305 c 257
 49 -432 l 257
309 1266 m 256
 370 1266 410 1315 410 1372 c 256
 410 1429 370 1480 309 1480 c 256
 251 1480 206 1429 206 1372 c 256
 206 1315 250 1266 309 1266 c 256
EndSplineSet
EndChar

StartChar: k
Encoding: 107 107 250
Width: 1094
VWidth: 0
GlyphClass: 2
Flags: HMW
PickledData: "(dp1
S'name'
p2
S'k'
sS'com.typemytype.robofont.layerData'
p3
(dp4
S'b'
(dp5
g2
S'k'
sS'lib'
p6
(dp7
sS'unicodes'
p8
(tsS'width'
p9
I964
sS'contours'
p10
(tsS'components'
p11
(tsS'anchors'
p12
(tsssg8
(tsS'org.robofab.postScriptHintData'
p13
(dp14
sg9
I982
sg10
(tsg11
(tsS'position'
p15
I123
sg12
(ts."
AnchorPoint: "top" 603 1098 basechar 0
AnchorPoint: "bot" 603 0 basechar 0
LayerCount: 2
Fore
SplineSet
164 0 m 257
 336 0 l 257
 336 453 l 257
 435 544 l 257
 890 0 l 257
 1082 0 l 257
 563 618 l 257
 1039 1096 l 261
 836 1096 l 261
 336 601 l 257
 336 1521 l 257
 164 1486 l 257
 164 0 l 257
EndSplineSet
EndChar

StartChar: kgreenlandic
Encoding: 312 312 252
Width: 1137
VWidth: 0
GlyphClass: 2
Flags: MW
PickledData: "(dp1
S'org.robofab.postScriptHintData'
p2
(dp3
sS'position'
p4
I119
sS'width'
p5
I103
s."
LayerCount: 2
Fore
SplineSet
143 0 m 257
 318 0 l 257
 318 432 l 257
 428 524 l 257
 882 0 l 257
 1086 0 l 257
 533 609 l 257
 1054 1098 l 257
 846 1098 l 257
 318 588 l 257
 318 1098 l 257
 143 1098 l 257
 143 0 l 257
EndSplineSet
EndChar

StartChar: l
Encoding: 108 108 253
Width: 522
VWidth: 0
GlyphClass: 2
Flags: MW
PickledData: "(dp1
S'name'
p2
S'l'
sS'com.typemytype.robofont.layerData'
p3
(dp4
S'b'
(dp5
g2
S'l'
sS'lib'
p6
(dp7
sS'unicodes'
p8
(tsS'width'
p9
I445
sS'contours'
p10
(tsS'components'
p11
(tsS'anchors'
p12
(tsssg8
(tsS'org.robofab.postScriptHintData'
p13
(dp14
sS'com.fontlab.hintData'
p15
(dp16
S'vhints'
p17
((dp18
S'position'
p19
I179
sg9
I171
stp20
ssg9
I353
sg10
(tsg11
(tsg12
(tsg19
I139
sS'com.typemytype.robofont.guides'
p21
(ts."
AnchorPoint: "top" 271 1485 basechar 0
AnchorPoint: "caron.alt" 313 1098 basechar 0
AnchorPoint: "mid" 184 816 basechar 0
LayerCount: 2
Fore
SplineSet
179 0 m 257
 350 0 l 257
 350 1521 l 257
 179 1486 l 257
 179 0 l 257
EndSplineSet
EndChar

StartChar: less
Encoding: 60 60 258
Width: 1362
VWidth: 0
GlyphClass: 2
Flags: MW
PickledData: "(dp1
S'org.robofab.postScriptHintData'
p2
(dp3
s."
LayerCount: 2
Fore
SplineSet
1092 143 m 257
 1165 244 l 257
 452 708 l 257
 1165 1171 l 257
 1092 1273 l 257
 197 708 l 257
 1092 143 l 257
EndSplineSet
EndChar

StartChar: lessequal
Encoding: 8804 8804 259
Width: 1364
VWidth: 0
GlyphClass: 2
Flags: MW
PickledData: "(dp1
S'org.robofab.postScriptHintData'
p2
(dp3
s."
LayerCount: 2
Fore
SplineSet
1092 340 m 257
 1165 451 l 257
 479 811 l 257
 1165 1171 l 257
 1092 1282 l 257
 198 811 l 257
 1092 340 l 257
295 0 m 257
 1148 0 l 257
 1148 132 l 257
 295 132 l 257
 295 0 l 257
EndSplineSet
EndChar

StartChar: logicalnot
Encoding: 172 172 260
Width: 1471
VWidth: 0
GlyphClass: 2
Flags: MW
PickledData: "(dp1
S'org.robofab.postScriptHintData'
p2
(dp3
sS'position'
p4
I1346
sS'com.fontlab.hintData'
p5
(dp6
S'hhints'
p7
((dp8
g4
I448
sS'width'
p9
I645
stp10
ssg9
I168
s."
LayerCount: 2
Fore
SplineSet
1083 448 m 257
 1245 448 l 257
 1245 1093 l 257
 193 1093 l 257
 193 954 l 257
 1083 954 l 257
 1083 448 l 257
EndSplineSet
EndChar

StartChar: lozenge
Encoding: 9674 9674 262
Width: 1349
VWidth: 0
GlyphClass: 2
Flags: MW
PickledData: "(dp1
S'org.robofab.postScriptHintData'
p2
(dp3
s."
LayerCount: 2
Fore
SplineSet
675 125 m 257
 288 548 l 257
 676 973 l 257
 1062 550 l 257
 675 125 l 257
675 -52 m 257
 1240 550 l 257
 676 1150 l 257
 111 548 l 257
 675 -52 l 257
EndSplineSet
EndChar

StartChar: lslash
Encoding: 322 322 263
Width: 532
VWidth: 0
GlyphClass: 2
Flags: MW
PickledData: "(dp1
S'org.robofab.postScriptHintData'
p2
(dp3
sS'com.fontlab.hintData'
p4
(dp5
S'vhints'
p6
((dp7
S'position'
p8
I-13
sS'width'
p9
I532
s(dp10
g8
I179
sg9
I171
stp11
ss."
LayerCount: 2
Fore
SplineSet
-13 540 m 257
 519 857 l 257
 519 978 l 257
 -13 650 l 257
 -13 540 l 257
EndSplineSet
Refer: 253 108 N 1 0 0 1 0 0 2
EndChar

StartChar: m
Encoding: 109 109 264
Width: 1902
VWidth: 0
GlyphClass: 2
Flags: HMW
PickledData: "(dp1
S'segmentType'
p2
S'curve'
p3
sS'name'
p4
S'm'
sS'com.typemytype.robofont.layerData'
p5
(dp6
S'b'
(dp7
g4
S'm'
sS'lib'
p8
(dp9
sS'unicodes'
p10
(tsS'width'
p11
I1989
sS'contours'
p12
(tsS'components'
p13
(tsS'anchors'
p14
(tsssg14
(tsg10
(tsS'org.robofab.postScriptHintData'
p15
(dp16
sS'com.fontlab.hintData'
p17
(dp18
S'vhints'
p19
((dp20
S'position'
p21
I164
sg11
I129
s(dp22
g21
I870
sg11
I175
s(dp23
g21
I1573
sg11
I174
stp24
sS'hhints'
p25
((dp26
g21
I982
sg11
I133
stp27
ssg11
I1901
sS'points'
p28
(tsS'baseGlyph'
p29
S'lc_main_stem'
p30
sg13
(tsg21
I1677
sS'y'
I856
sS'x'
I206
sS'transformation'
p31
(I1
I0
I0
I1
I0
I0
tp32
sg12
(ts."
AnchorPoint: "top" 983 1099 basechar 0
LayerCount: 2
Fore
SplineSet
164 0 m 257
 336 0 l 257
 336 814 l 257
 451 928 576 983 680 983 c 256
 844 983 870 855 870 717 c 258
 870 0 l 257
 1045 0 l 257
 1045 722 l 258
 1045 739 1045 773 1039 812 c 257
 1159 936 1273 983 1386 983 c 256
 1550 983 1573 855 1573 717 c 258
 1573 0 l 257
 1747 0 l 257
 1747 716 l 258
 1747 928 1649 1116 1412 1116 c 256
 1283 1116 1135 1070 1010 922 c 257
 971 1021 886 1116 708 1116 c 256
 578 1116 452 1070 318 933 c 257
 293 1096 l 261
 164 1096 l 261
 164 0 l 257
EndSplineSet
EndChar

StartChar: macron
Encoding: 175 175 265
Width: 944
VWidth: 0
GlyphClass: 4
Flags: MW
PickledData: "(dp1
S'org.robofab.postScriptHintData'
p2
(dp3
sS'position'
p4
I85
sS'com.fontlab.hintData'
p5
(dp6
S'vhints'
p7
((dp8
g4
I151
sS'width'
p9
I636
stp10
sS'hhints'
p11
((dp12
g4
I1249
sg9
I108
stp13
ssg9
I112
s."
AnchorPoint: "top" 475 1098 mark 0
AnchorPoint: "mid" 473 1304 mark 0
LayerCount: 2
Fore
SplineSet
151 1249 m 257
 787 1249 l 257
 787 1357 l 257
 151 1357 l 257
 151 1249 l 257
EndSplineSet
EndChar

StartChar: minus
Encoding: 8722 8722 266
Width: 937
VWidth: 0
GlyphClass: 2
Flags: MW
PickledData: "(dp1
S'org.robofab.postScriptHintData'
p2
(dp3
sS'position'
p4
I508
sS'com.fontlab.hintData'
p5
(dp6
S'vhints'
p7
((dp8
g4
I147
sS'width'
p9
I637
stp10
sS'hhints'
p11
((dp12
g4
I479
sg9
I122
stp13
ssg9
I131
s."
LayerCount: 2
Fore
SplineSet
147 479 m 257
 784 479 l 257
 784 601 l 257
 147 601 l 257
 147 479 l 257
EndSplineSet
EndChar

StartChar: multiply
Encoding: 215 215 268
Width: 978
VWidth: 0
GlyphClass: 2
Flags: MW
PickledData: "(dp1
S'org.robofab.postScriptHintData'
p2
(dp3
s."
LayerCount: 2
Fore
SplineSet
186 120 m 257
 485 419 l 257
 783 120 l 257
 878 214 l 257
 579 513 l 257
 878 812 l 257
 783 906 l 257
 485 607 l 257
 186 906 l 257
 92 812 l 257
 391 513 l 257
 92 214 l 257
 186 120 l 257
EndSplineSet
EndChar

StartChar: n
Encoding: 110 110 269
Width: 1224
VWidth: 0
GlyphClass: 2
Flags: MW
PickledData: "(dp1
S'hhints'
p2
(dp3
sS'anchors'
p4
(tsS'com.typemytype.robofont.layerData'
p5
(dp6
S'b'
(dp7
S'name'
p8
S'n'
sS'lib'
p9
(dp10
sS'unicodes'
p11
(tsS'width'
p12
I1225
sS'contours'
p13
(tsS'components'
p14
(tsg4
(tsssg11
(tsS'org.robofab.postScriptHintData'
p15
(dp16
sS'vhints'
p17
(dp18
sS'com.typemytype.robofont.guides'
p19
(tsS'com.fontlab.hintData'
p20
(dp21
g17
((dp22
S'position'
p23
I164
sg12
I129
s(dp24
g23
I899
sg12
I172
stp25
sg2
((dp26
g23
I982
sg12
I133
stp27
ssS'y'
I0
sg12
I1227
sS'points'
p28
(tsg13
(tsg14
(tsg23
I988
sS'segmentType'
p29
S'line'
p30
sS'x'
I245
sg8
S'n'
s."
AnchorPoint: "top" 653 1098 basechar 0
AnchorPoint: "bot" 650 0 basechar 0
LayerCount: 2
Fore
SplineSet
164 0 m 257
 336 0 l 257
 336 820 l 257
 416 901 527 982 686 982 c 256
 868 982 899 829 899 680 c 258
 899 0 l 257
 1071 0 l 257
 1071 680 l 258
 1071 923 980 1116 697 1116 c 256
 528 1116 405 1031 318 942 c 257
 293 1096 l 257
 164 1096 l 257
 164 0 l 257
EndSplineSet
EndChar

StartChar: nine
Encoding: 57 57 274
Width: 1227
VWidth: 0
GlyphClass: 2
Flags: HMW
PickledData: "(dp1
S'org.robofab.postScriptHintData'
p2
(dp3
sS'position'
p4
I995
sS'com.fontlab.hintData'
p5
(dp6
S'vhints'
p7
((dp8
g4
I146
sS'width'
p9
I162
s(dp10
g4
I922
sg9
I165
stp11
sS'hhints'
p12
((dp13
g4
I-272
sg9
I134
s(dp14
g4
I224
sg9
I125
s(dp15
g4
I984
sg9
I131
stp16
ssg9
I98
s."
LayerCount: 2
Fore
SplineSet
417 -271 m 261
 828 -175 1087 145 1087 570 c 260
 1087 876 945 1116 613 1116 c 260
 338 1116 146 934 146 654 c 260
 146 391 325 225 582 225 c 260
 706 225 824 264 904 363 c 261
 856 98 634 -83 378 -137 c 261
 417 -271 l 261
582 350 m 260
 403 350 308 481 308 655 c 260
 308 841 419 985 613 985 c 260
 851 985 922 795 922 592 c 260
 922 553 922 516 916 479 c 261
 853 402 677 350 582 350 c 260
EndSplineSet
EndChar

StartChar: notequal
Encoding: 8800 8800 275
Width: 851
VWidth: 0
GlyphClass: 2
Flags: MW
PickledData: "(dp1
S'org.robofab.postScriptHintData'
p2
(dp3
sS'position'
p4
I151
sS'com.fontlab.hintData'
p5
(dp6
S'vhints'
p7
((dp8
g4
I123
sS'width'
p9
I625
stp10
ssg9
I369
s."
LayerCount: 2
Fore
SplineSet
262 -122 m 257
 410 312 l 257
 748 312 l 257
 748 432 l 257
 450 432 l 257
 501 583 l 257
 748 583 l 257
 748 703 l 257
 542 703 l 257
 673 1089 l 257
 587 1124 l 257
 444 703 l 257
 123 703 l 257
 123 583 l 257
 402 583 l 257
 352 432 l 257
 123 432 l 257
 123 312 l 257
 310 312 l 257
 176 -86 l 257
 262 -122 l 257
EndSplineSet
EndChar

StartChar: numbersign
Encoding: 35 35 277
Width: 1289
VWidth: 0
GlyphClass: 2
Flags: MW
PickledData: "(dp1
S'org.robofab.postScriptHintData'
p2
(dp3
sS'position'
p4
I946
sS'width'
p5
I110
s."
LayerCount: 2
Fore
SplineSet
172 0 m 257
 290 0 l 257
 582 1485 l 257
 447 1485 l 257
 172 0 l 257
104 502 m 257
 1158 502 l 257
 1158 586 l 257
 104 586 l 257
 104 502 l 257
133 878 m 257
 1186 878 l 257
 1186 962 l 257
 133 962 l 257
 133 878 l 257
706 0 m 257
 823 0 l 257
 1116 1485 l 257
 981 1485 l 257
 706 0 l 257
EndSplineSet
EndChar

StartChar: o
Encoding: 111 111 278
Width: 1228
VWidth: 0
GlyphClass: 2
Flags: MW
PickledData: "(dp1
S'hhints'
p2
(dp3
sS'anchors'
p4
(tsS'com.typemytype.robofont.layerData'
p5
(dp6
S'b'
(dp7
S'name'
p8
S'o'
sS'lib'
p9
(dp10
sS'unicodes'
p11
(tsS'width'
p12
I1264
sS'contours'
p13
(tsS'components'
p14
(tsg4
(tsssg11
(tsS'org.robofab.postScriptHintData'
p15
(dp16
sS'magnetic'
p17
I5
sS'com.typemytype.robofont.guides'
p18
(tsS'com.fontlab.hintData'
p19
(dp20
S'vhints'
p21
((dp22
S'position'
p23
I113
sg12
I174
s(dp24
g23
I942
sg12
I173
stp25
sg2
((dp26
g23
I-17
sg12
I133
s(dp27
g23
I982
sg12
I133
stp28
ssg12
I1264
sg13
(tsg14
(tsg23
I1048
sS'y'
I1136
sS'x'
I632
sg21
(dp29
sg8
S'o'
s."
AnchorPoint: "top" 617 1098 basechar 0
AnchorPoint: "ogonek" 671 0 basechar 0
LayerCount: 2
Fore
SplineSet
614 113 m 256
 377 113 287 332 287 551 c 256
 287 767 375 982 614 982 c 256
 854 982 942 767 942 551 c 256
 942 332 852 113 614 113 c 256
614 -20 m 256
 951 -20 1115 235 1115 547 c 256
 1115 858 951 1115 614 1115 c 256
 277 1115 113 858 113 547 c 256
 113 235 277 -20 614 -20 c 256
EndSplineSet
EndChar

StartChar: oe
Encoding: 339 339 283
Width: 1833
VWidth: 0
GlyphClass: 2
Flags: MW
PickledData: "(dp1
S'org.robofab.postScriptHintData'
p2
(dp3
sS'position'
p4
I1842
sS'com.fontlab.hintData'
p5
(dp6
S'vhints'
p7
((dp8
g4
I74
sS'width'
p9
I168
s(dp10
g4
I901
sg9
I172
s(dp11
g4
I1647
sg9
I155
stp12
sS'hhints'
p13
((dp14
g4
I-19
sg9
I127
s(dp15
g4
I995
sg9
I124
stp16
ssg9
I112
s."
LayerCount: 2
Fore
SplineSet
572 -19 m 256
 768 -19 904 67 983 200 c 257
 1061 67 1197 -19 1394 -19 c 256
 1509 -19 1659 28 1752 94 c 257
 1695 227 l 257
 1615 153 1512 108 1405 108 c 256
 1153 108 1075 305 1073 530 c 257
 1792 530 l 257
 1798 564 1802 599 1802 636 c 256
 1802 899 1674 1119 1386 1119 c 256
 1195 1119 1063 1028 986 891 c 257
 907 1029 770 1119 572 1119 c 256
 235 1119 74 858 74 547 c 256
 74 235 235 -19 572 -19 c 256
572 108 m 256
 317 108 242 330 242 547 c 256
 242 763 315 990 572 990 c 256
 829 990 901 763 901 547 c 256
 901 329 829 108 572 108 c 256
1077 641 m 257
 1093 830 1170 995 1386 995 c 256
 1581 995 1647 845 1647 641 c 257
 1077 641 l 257
EndSplineSet
EndChar

StartChar: ogonek
Encoding: 731 731 284
Width: 808
VWidth: 0
GlyphClass: 4
Flags: MW
PickledData: "(dp1
S'org.robofab.postScriptHintData'
p2
(dp3
sS'position'
p4
I39
sS'com.fontlab.hintData'
p5
(dp6
S'vhints'
p7
((dp8
g4
I245
sS'width'
p9
I121
stp10
sS'hhints'
p11
((dp12
g4
I-493
sg9
I116
stp13
ssg9
I129
s."
AnchorPoint: "ogonek" 472 0 mark 0
LayerCount: 2
Fore
SplineSet
493 -493 m 256
 513 -493 547 -491 571 -486 c 257
 571 -371 l 257
 549 -375 528 -377 509 -377 c 256
 415 -377 366 -327 366 -254 c 256
 366 -195 401 -97 528 0 c 257
 416 0 l 257
 303 -79 245 -190 245 -286 c 256
 245 -401 328 -493 493 -493 c 256
EndSplineSet
EndChar

StartChar: one
Encoding: 49 49 288
Width: 795
VWidth: 0
GlyphClass: 2
Flags: HMW
PickledData: "(dp1
S'org.robofab.postScriptHintData'
p2
(dp3
sS'position'
p4
I347
sS'width'
p5
I101
s."
LayerCount: 2
Fore
SplineSet
424 0 m 257
 596 0 l 257
 596 1096 l 261
 420 1096 l 261
 158 965 l 261
 208 849 l 261
 424 953 l 261
 424 0 l 257
EndSplineSet
EndChar

StartChar: onehalf
Encoding: 189 189 289
Width: 1927
VWidth: 0
GlyphClass: 2
Flags: MW
PickledData: "(dp1
S'org.robofab.postScriptHintData'
p2
(dp3
sS'position'
p4
I1307
sS'com.fontlab.hintData'
p5
(dp6
S'vhints'
p7
((dp8
g4
I1614
sS'width'
p9
I159
stp10
sS'hhints'
p11
((dp12
g4
I768
sg9
I124
stp13
ssg9
I122
s."
LayerCount: 2
Fore
SplineSet
1157 -1 m 257
 1757 -1 l 257
 1757 123 l 257
 1346 123 l 257
 1391 162 1461 213 1520 260 c 256
 1646 362 1773 484 1773 629 c 256
 1773 819 1625 892 1453 892 c 256
 1357 892 1258 869 1172 832 c 257
 1173 698 l 257
 1255 737 1355 768 1441 768 c 256
 1538 768 1614 730 1614 626 c 256
 1614 521 1550 455 1432 356 c 256
 1363 299 1262 219 1157 125 c 257
 1157 -1 l 257
340 619 m 257
 488 619 l 257
 488 1498 l 257
 368 1522 l 257
 148 1433 l 257
 180 1346 l 257
 340 1414 l 257
 340 619 l 257
457 -30 m 257
 1434 1517 l 257
 1329 1576 l 257
 354 29 l 257
 457 -30 l 257
EndSplineSet
EndChar

StartChar: onequarter
Encoding: 188 188 290
Width: 1803
VWidth: 0
GlyphClass: 2
Flags: MW
PickledData: "(dp1
S'org.robofab.postScriptHintData'
p2
(dp3
sS'position'
p4
I1002
sS'width'
p5
I92
s."
LayerCount: 2
Fore
SplineSet
1578 -17 m 257
 1578 240 l 257
 1720 240 l 257
 1720 342 l 257
 1578 342 l 257
 1578 1022 l 257
 1453 1050 l 257
 944 342 l 257
 964 240 l 257
 1444 240 l 257
 1444 0 l 257
 1578 -17 l 257
335 619 m 257
 483 619 l 257
 483 1498 l 257
 362 1522 l 257
 142 1433 l 257
 174 1345 l 257
 335 1414 l 257
 335 619 l 257
451 -30 m 257
 1428 1517 l 257
 1324 1576 l 257
 349 29 l 257
 451 -30 l 257
1085 341 m 257
 1444 854 l 257
 1444 341 l 257
 1085 341 l 257
EndSplineSet
EndChar

StartChar: oslash
Encoding: 248 248 293
Width: 1199
VWidth: 0
GlyphClass: 2
Flags: MW
PickledData: "(dp1
S'org.robofab.postScriptHintData'
p2
(dp3
sS'position'
p4
I942
sS'com.fontlab.hintData'
p5
(dp6
S'vhints'
p7
((dp8
g4
I101
sS'width'
p9
I168
s(dp10
g4
I928
sg9
I169
stp11
sS'hhints'
p12
((dp13
g4
I-19
sg9
I127
s(dp14
g4
I990
sg9
I129
s(dp15
g4
I1100
sg9
I21
stp16
ssg9
I95
s."
LayerCount: 2
Fore
SplineSet
395 -186 m 257
 457 -2 l 257
 503 -14 551 -19 598 -19 c 256
 937 -19 1097 233 1097 547 c 256
 1097 759 1022 970 822 1072 c 257
 885 1255 l 257
 810 1283 l 257
 747 1100 l 257
 699 1113 648 1119 598 1119 c 256
 260 1119 101 858 101 547 c 256
 101 336 172 124 376 26 c 257
 312 -159 l 257
 395 -186 l 257
421 157 m 257
 296 242 269 407 269 547 c 256
 269 762 341 990 598 990 c 256
 634 990 669 986 703 975 c 257
 421 157 l 257
598 108 m 256
 565 108 531 111 498 120 c 257
 777 939 l 257
 900 853 928 685 928 547 c 256
 928 331 856 108 598 108 c 256
EndSplineSet
EndChar

StartChar: p
Encoding: 112 112 296
Width: 1206
VWidth: 0
GlyphClass: 2
Flags: HMW
PickledData: "(dp1
S'name'
p2
S'p'
sS'com.typemytype.robofont.layerData'
p3
(dp4
S'b'
(dp5
g2
S'p'
sS'lib'
p6
(dp7
sS'unicodes'
p8
(tsS'width'
p9
I1224
sS'contours'
p10
((dp11
S'points'
p12
((dp13
S'segmentType'
p14
S'line'
p15
sS'x'
I202
sS'smooth'
p16
I0
sS'y'
I928
s(dp17
S'y'
I1078
sS'x'
I273
sg16
I0
s(dp18
S'y'
I1184
sS'x'
I426
sg16
I0
s(dp19
g14
S'curve'
p20
sS'x'
I616
sg16
I1
sS'y'
I1184
s(dp21
S'y'
I1184
sS'x'
I959
sg16
I0
s(dp22
S'y'
I897
sS'x'
I1106
sg16
I0
s(dp23
g14
S'curve'
p24
sS'x'
I1106
sg16
I1
sS'y'
I589
s(dp25
S'y'
I303
sS'x'
I1106
sg16
I0
s(dp26
S'y'
S'-14'
p27
sS'x'
I970
sg16
I0
s(dp28
g14
S'curve'
p29
sS'x'
I610
sg16
I1
sS'y'
S'-14'
p30
s(dp31
S'y'
S'-14'
p32
sS'x'
I366
sg16
I0
s(dp33
S'y'
I119
sS'x'
I258
sg16
I0
s(dp34
g14
S'curve'
p35
sS'x'
I210
sg16
I0
sS'y'
I203
s(dp36
g14
S'line'
p37
sS'x'
I210
sg16
I0
sS'y'
I311
s(dp38
S'y'
I204
sS'x'
I272
sg16
I0
s(dp39
S'y'
I68
sS'x'
I380
sg16
I0
s(dp40
g14
S'curve'
p41
sS'x'
I603
sg16
I1
sS'y'
I68
s(dp42
S'y'
I68
sS'x'
I922
sg16
I0
s(dp43
S'y'
I351
sS'x'
I1009
sg16
I0
s(dp44
g14
S'curve'
p45
sS'x'
I1009
sg16
I1
sS'y'
I581
s(dp46
S'y'
I798
sS'x'
I1009
sg16
I0
s(dp47
S'y'
I1101
sS'x'
I939
sg16
I0
s(dp48
g14
S'curve'
p49
sS'x'
I618
sg16
I1
sS'y'
I1101
s(dp50
S'y'
I1101
sS'x'
I422
sg16
I0
s(dp51
S'y'
I1007
sS'x'
I313
sg16
I0
s(dp52
g14
S'curve'
p53
sS'x'
I211
sg16
I0
sS'y'
I850
stp54
s(dp55
g12
((dp56
g14
S'line'
p57
sS'x'
I251
sg16
I0
sS'y'
S'-468'
p58
s(dp59
g14
S'line'
p60
sS'x'
I155
sg16
I0
sS'y'
S'-489'
p61
s(dp62
g14
S'line'
p63
sS'x'
I155
sg16
I0
sS'y'
I1172
s(dp64
g14
S'line'
p65
sS'x'
I231
sg16
I0
sS'y'
I1172
s(dp66
g14
S'line'
p67
sS'x'
I251
sg16
I0
sS'y'
I924
stp68
stp69
sS'components'
p70
(tsS'anchors'
p71
(tsssg8
(tsS'org.robofab.postScriptHintData'
p72
(dp73
sS'com.fontlab.hintData'
p74
(dp75
S'vhints'
p76
((dp77
S'position'
p78
I151
sg9
I175
s(dp79
g78
I151
sg9
I129
s(dp80
g78
I926
sg9
I168
stp81
sS'hhints'
p82
((dp83
g78
I-17
sg9
I126
s(dp84
g78
I982
sg9
I133
stp85
ssg9
I1206
sg12
(tsg10
(tsg70
(tsg14
S'curve'
p86
sg78
I992
sg71
(ts."
AnchorPoint: "top" 638 1099 basechar 0
LayerCount: 2
Fore
SplineSet
151 -451 m 257
 326 -428 l 257
 326 96 l 261
 395 31 492 -20 626 -20 c 260
 951 -20 1094 263 1094 545 c 256
 1094 867 947 1116 650 1116 c 256
 501 1116 387 1058 308 976 c 257
 280 1096 l 257
 151 1096 l 257
 151 -451 l 257
619 106 m 260
 486 106 396 154 326 229 c 261
 326 871 l 257
 407 939 508 983 621 983 c 256
 825 982 926 823 926 549 c 256
 926 302 846 106 619 106 c 260
EndSplineSet
EndChar

StartChar: paragraph
Encoding: 182 182 297
Width: 1176
VWidth: 0
GlyphClass: 2
Flags: MW
PickledData: "(dp1
S'org.robofab.postScriptHintData'
p2
(dp3
sS'position'
p4
I646
sS'com.fontlab.hintData'
p5
(dp6
S'vhints'
p7
((dp8
g4
I127
sS'width'
p9
I565
stp10
ssg9
I149
s."
LayerCount: 2
Fore
SplineSet
531 -148 m 257
 692 -148 l 257
 692 1346 l 257
 855 1346 l 257
 855 -148 l 257
 1016 -148 l 257
 1016 1485 l 257
 573 1485 l 258
 408 1485 127 1459 127 1178 c 256
 127 917 368 854 531 854 c 257
 531 -148 l 257
EndSplineSet
EndChar

StartChar: parenleft
Encoding: 40 40 298
Width: 792
VWidth: 0
GlyphClass: 2
Flags: MW
PickledData: "(dp1
S'org.robofab.postScriptHintData'
p2
(dp3
sS'position'
p4
S'-65'
p5
sS'com.fontlab.hintData'
p6
(dp7
S'vhints'
p8
((dp9
g4
I197
sS'width'
p10
I186
stp11
ssg10
I115
s."
LayerCount: 2
Fore
SplineSet
571 -171 m 257
 648 -74 l 257
 472 93 383 397 383 716 c 256
 383 1023 475 1346 662 1534 c 257
 560 1625 l 257
 318 1421 197 1070 197 716 c 256
 197 371 322 23 571 -171 c 257
EndSplineSet
EndChar

StartChar: parenright
Encoding: 41 41 299
Width: 792
VWidth: 0
GlyphClass: 2
Flags: MW
PickledData: "(dp1
S'org.robofab.postScriptHintData'
p2
(dp3
sS'position'
p4
I234
sS'com.fontlab.hintData'
p5
(dp6
S'vhints'
p7
((dp8
g4
I409
sS'width'
p9
I185
stp10
ssg9
I116
s."
LayerCount: 2
Fore
SplineSet
221 -171 m 257
 471 23 594 371 594 716 c 256
 594 1070 474 1421 232 1625 c 257
 130 1534 l 257
 317 1346 409 1023 409 716 c 256
 409 397 321 93 145 -74 c 257
 221 -171 l 257
EndSplineSet
EndChar

StartChar: percent
Encoding: 37 37 301
Width: 1739
VWidth: 0
GlyphClass: 2
Flags: MW
PickledData: "(dp1
S'org.robofab.postScriptHintData'
p2
(dp3
sS'position'
p4
I1324
sS'com.fontlab.hintData'
p5
(dp6
S'vhints'
p7
((dp8
g4
I127
sS'width'
p9
I123
s(dp10
g4
I605
sg9
I123
s(dp11
g4
I1053
sg9
I124
s(dp12
g4
I1531
sg9
I124
stp13
sS'hhints'
p14
((dp15
g4
I-17
sg9
I103
s(dp16
g4
I654
sg9
I97
s(dp17
g4
I734
sg9
I103
s(dp18
g4
I1405
sg9
I97
stp19
ssg9
I74
s."
LayerCount: 2
Fore
SplineSet
428 837 m 256
 319 837 250 943 250 1114 c 256
 250 1293 319 1405 428 1405 c 256
 537 1405 605 1293 605 1114 c 256
 605 943 537 837 428 837 c 256
428 734 m 256
 613 734 728 881 728 1114 c 256
 728 1353 613 1502 428 1502 c 256
 243 1502 127 1353 127 1114 c 256
 127 881 243 734 428 734 c 256
513 -39 m 257
 1406 1486 l 257
 1299 1536 l 257
 404 6 l 257
 513 -39 l 257
1355 86 m 256
 1246 86 1177 192 1177 363 c 256
 1177 543 1246 654 1355 654 c 256
 1463 654 1531 543 1531 363 c 256
 1531 192 1463 86 1355 86 c 256
1355 -17 m 256
 1539 -17 1655 130 1655 363 c 256
 1655 602 1539 751 1355 751 c 256
 1170 751 1053 602 1053 363 c 256
 1053 130 1170 -17 1355 -17 c 256
EndSplineSet
EndChar

StartChar: period
Encoding: 46 46 302
Width: 610
VWidth: 0
GlyphClass: 2
Flags: MW
PickledData: "(dp1
S'org.robofab.postScriptHintData'
p2
(dp3
sS'position'
p4
I129
sS'com.fontlab.hintData'
p5
(dp6
S'vhints'
p7
((dp8
g4
I199
sS'width'
p9
I203
stp10
sS'hhints'
p11
((dp12
g4
I-16
sg9
I212
stp13
ssg9
I129
s."
LayerCount: 2
Fore
SplineSet
303 -16 m 256
 363 -16 402 33 402 90 c 256
 402 147 363 196 303 196 c 256
 245 196 199 147 199 90 c 256
 199 32 244 -16 303 -16 c 256
EndSplineSet
EndChar

StartChar: periodcentered
Encoding: 183 183 303
Width: 618
VWidth: 0
GlyphClass: 4
Flags: MW
PickledData: "(dp1
S'org.robofab.postScriptHintData'
p2
(dp3
sS'position'
p4
I41
sS'com.fontlab.hintData'
p5
(dp6
S'vhints'
p7
((dp8
g4
I312
sS'width'
p9
I203
stp10
sS'hhints'
p11
((dp12
g4
I501
sg9
I212
stp13
ssg9
I130
s."
AnchorPoint: "mid" 7 607 mark 0
LayerCount: 2
Fore
SplineSet
415 501 m 256
 475 501 515 550 515 607 c 256
 515 664 475 713 415 713 c 256
 357 713 312 664 312 607 c 256
 312 549 356 501 415 501 c 256
EndSplineSet
EndChar

StartChar: perthousand
Encoding: 8240 8240 304
Width: 2459
VWidth: 0
GlyphClass: 2
Flags: MW
PickledData: "(dp1
S'org.robofab.postScriptHintData'
p2
(dp3
sS'com.fontlab.hintData'
p4
(dp5
S'vhints'
p6
((dp7
S'position'
p8
I127
sS'width'
p9
I123
s(dp10
g8
I605
sg9
I123
s(dp11
g8
I1053
sg9
I124
s(dp12
g8
I1531
sg9
I124
s(dp13
g8
I1773
sg9
I124
s(dp14
g8
I2251
sg9
I124
stp15
sS'hhints'
p16
((dp17
g8
I-17
sg9
I103
s(dp18
g8
I654
sg9
I97
s(dp19
g8
I734
sg9
I103
s(dp20
g8
I1405
sg9
I97
stp21
ss."
LayerCount: 2
Fore
SplineSet
2074 86 m 256
 1966 86 1897 192 1897 363 c 256
 1897 543 1966 654 2074 654 c 256
 2183 654 2251 543 2251 363 c 256
 2251 192 2183 86 2074 86 c 256
2074 -17 m 256
 2259 -17 2375 130 2375 363 c 256
 2375 602 2259 751 2074 751 c 256
 1890 751 1773 602 1773 363 c 256
 1773 130 1890 -17 2074 -17 c 256
EndSplineSet
Refer: 301 37 N 1 0 0 1 0 0 2
EndChar

StartChar: pi
Encoding: 960 960 305
Width: 1650
VWidth: 0
GlyphClass: 2
Flags: MW
PickledData: "(dp1
S'org.robofab.postScriptHintData'
p2
(dp3
sS'com.fontlab.hintData'
p4
(dp5
S'vhints'
p6
((dp7
S'position'
p8
I183
sS'width'
p9
I89
s(dp10
g8
I582
sg9
I101
s(dp11
g8
I969
sg9
I144
stp12
sS'hhints'
p13
((dp14
g8
I-11
sg9
I136
s(dp15
g8
I5
sg9
I99
s(dp16
g8
I948
sg9
I150
stp17
ss."
LayerCount: 2
Fore
SplineSet
1200 -11 m 256
 1273 -11 1338 11 1377 46 c 257
 1377 160 l 257
 1348 149 1290 125 1249 125 c 256
 1157 125 1113 225 1113 443 c 256
 1113 570 1129 736 1158 948 c 257
 1405 948 l 257
 1405 1098 l 257
 496 1098 l 258
 254 1098 183 1015 183 792 c 257
 272 792 l 257
 284 890 328 948 415 948 c 258
 582 948 l 257
 470 393 l 258
 425 170 310 105 184 104 c 257
 184 5 l 257
 525 5 578 112 606 339 c 258
 683 948 l 257
 1044 948 l 257
 1008 690 969 461 969 295 c 256
 969 101 1022 -11 1200 -11 c 256
EndSplineSet
EndChar

StartChar: plus
Encoding: 43 43 306
Width: 1000
VWidth: 0
GlyphClass: 2
Flags: MW
PickledData: "(dp1
S'org.robofab.postScriptHintData'
p2
(dp3
sS'position'
p4
I452
sS'width'
p5
I62
s."
LayerCount: 2
Fore
SplineSet
431 165 m 257
 561 165 l 257
 561 488 l 257
 856 488 l 257
 856 611 l 257
 561 611 l 257
 561 934 l 257
 431 934 l 257
 431 611 l 257
 136 611 l 257
 136 488 l 257
 431 488 l 257
 431 165 l 257
EndSplineSet
EndChar

StartChar: plusminus
Encoding: 177 177 307
Width: 968
VWidth: 0
GlyphClass: 2
Flags: MW
PickledData: "(dp1
S'org.robofab.postScriptHintData'
p2
(dp3
sS'position'
p4
I315
sS'width'
p5
I62
s."
LayerCount: 2
Fore
SplineSet
420 159 m 257
 549 159 l 257
 549 482 l 257
 845 482 l 257
 845 604 l 257
 549 604 l 257
 549 928 l 257
 420 928 l 257
 420 604 l 257
 125 604 l 257
 125 482 l 257
 420 482 l 257
 420 159 l 257
157 -53 m 257
 814 -53 l 257
 814 80 l 257
 157 80 l 257
 157 -53 l 257
EndSplineSet
EndChar

StartChar: product
Encoding: 8719 8719 308
Width: 1566
VWidth: 0
GlyphClass: 2
Flags: MW
PickledData: "(dp1
S'org.robofab.postScriptHintData'
p2
(dp3
s."
LayerCount: 2
Fore
SplineSet
263 -157 m 257
 438 -157 l 257
 438 1353 l 257
 1128 1353 l 257
 1128 -157 l 257
 1303 -157 l 257
 1303 1353 l 257
 1554 1353 l 257
 1554 1485 l 257
 12 1485 l 257
 12 1353 l 257
 263 1353 l 257
 263 -157 l 257
EndSplineSet
EndChar

StartChar: q
Encoding: 113 113 309
Width: 1205
VWidth: 0
GlyphClass: 2
Flags: HMW
PickledData: "(dp1
S'name'
p2
S'q'
sS'unicodes'
p3
(tsS'org.robofab.postScriptHintData'
p4
(dp5
sS'com.fontlab.hintData'
p6
(dp7
S'vhints'
p8
((dp9
S'position'
p10
I113
sS'width'
p11
I167
s(dp12
g10
I881
sg11
I175
s(dp13
g10
I926
sg11
I130
stp14
sS'hhints'
p15
((dp16
g10
I-17
sg11
I126
s(dp17
g10
I982
sg11
I133
stp18
ssg11
I1208
sS'contours'
p19
(tsS'components'
p20
(tsg10
I1031
sS'anchors'
p21
(ts."
LayerCount: 2
Fore
SplineSet
1056 -429 m 257
 1056 1096 l 261
 926 1096 l 261
 899 976 l 257
 820 1058 705 1116 556 1116 c 256
 259 1116 113 867 113 545 c 256
 113 263 256 -20 581 -20 c 256
 714 -20 811 31 881 96 c 257
 881 -450 l 257
 1056 -429 l 257
588 106 m 256
 361 106 280 302 280 549 c 256
 280 823 382 982 586 983 c 256
 698 983 800 940 881 871 c 257
 881 229 l 257
 811 154 720 106 588 106 c 256
EndSplineSet
EndChar

StartChar: question
Encoding: 63 63 310
Width: 1036
VWidth: 0
GlyphClass: 2
Flags: MW
PickledData: "(dp1
S'org.robofab.postScriptHintData'
p2
(dp3
sS'position'
p4
I754
sS'com.fontlab.hintData'
p5
(dp6
S'vhints'
p7
((dp8
g4
I183
sS'width'
p9
I230
s(dp10
g4
I728
sg9
I175
stp11
sS'hhints'
p12
((dp13
g4
I-17
sg9
I230
s(dp14
g4
I1364
sg9
I133
stp15
ssg9
I112
s."
LayerCount: 2
Fore
SplineSet
235 384 m 257
 365 384 l 257
 365 636 l 257
 609 722 903 843 903 1145 c 256
 903 1403 689 1497 462 1497 c 256
 320 1497 172 1460 69 1404 c 257
 115 1281 l 257
 216 1331 337 1364 446 1364 c 256
 603 1364 728 1296 728 1127 c 256
 728 890 416 791 235 729 c 257
 235 384 l 257
297 -17 m 256
 367 -17 413 28 413 98 c 256
 413 168 371 213 302 213 c 256
 230 213 183 172 183 104 c 256
 183 29 227 -17 297 -17 c 256
EndSplineSet
EndChar

StartChar: quotedbl
Encoding: 34 34 312
Width: 579
VWidth: 0
GlyphClass: 2
Flags: MW
PickledData: "(dp1
S'org.robofab.postScriptHintData'
p2
(dp3
sS'position'
p4
I6
sS'com.fontlab.hintData'
p5
(dp6
S'vhints'
p7
((dp8
g4
I58
sS'width'
p9
I164
s(dp10
g4
I373
sg9
I155
stp11
sS'hhints'
p12
((dp13
g4
I999
sg9
I487
stp14
ssg9
I157
s."
LayerCount: 2
Fore
SplineSet
95 999 m 257
 195 999 l 257
 222 1418 l 258
 223 1437 222 1466 222 1486 c 257
 58 1486 l 257
 58 1466 56 1437 58 1418 c 258
 95 999 l 257
392 999 m 257
 492 999 l 257
 528 1418 l 258
 530 1437 528 1466 528 1486 c 257
 373 1486 l 257
 373 1466 372 1437 373 1418 c 258
 392 999 l 257
EndSplineSet
EndChar

StartChar: quotedblbase
Encoding: 8222 8222 313
Width: 916
VWidth: 0
GlyphClass: 2
Flags: MW
PickledData: "(dp1
S'org.robofab.postScriptHintData'
p2
(dp3
sS'position'
p4
I510
sS'com.fontlab.hintData'
p5
(dp6
S'vhints'
p7
((dp8
g4
I272
sS'width'
p9
I137
s(dp10
g4
I615
sg9
I137
stp11
sS'hhints'
p12
((dp13
g4
I-254
sg9
I86
stp14
ssg9
I101
s."
LayerCount: 2
Fore
SplineSet
197 -254 m 257
 334 -215 409 -119 409 24 c 258
 409 256 l 257
 151 256 l 257
 151 -16 l 257
 272 -16 l 257
 273 -107 231 -141 151 -168 c 257
 197 -254 l 257
540 -254 m 257
 676 -215 752 -119 752 24 c 258
 752 256 l 257
 494 256 l 257
 494 -16 l 257
 615 -16 l 257
 616 -107 574 -141 494 -168 c 257
 540 -254 l 257
EndSplineSet
EndChar

StartChar: quotedblleft
Encoding: 8220 8220 314
Width: 915
VWidth: 0
GlyphClass: 2
Flags: MW
PickledData: "(dp1
S'org.robofab.postScriptHintData'
p2
(dp3
sS'position'
p4
I419
sS'com.fontlab.hintData'
p5
(dp6
S'vhints'
p7
((dp8
g4
I151
sS'width'
p9
I138
s(dp10
g4
I494
sg9
I137
stp11
sS'hhints'
p12
((dp13
g4
I1428
sg9
I86
stp14
ssg9
I102
s."
LayerCount: 2
Fore
SplineSet
151 1005 m 257
 409 1005 l 257
 409 1276 l 257
 289 1276 l 257
 288 1368 328 1401 409 1428 c 257
 362 1514 l 257
 226 1475 151 1379 151 1236 c 258
 151 1005 l 257
494 1005 m 257
 752 1005 l 257
 752 1276 l 257
 631 1276 l 257
 630 1368 671 1401 752 1428 c 257
 705 1514 l 257
 569 1475 494 1379 494 1236 c 258
 494 1005 l 257
EndSplineSet
EndChar

StartChar: quotedblright
Encoding: 8221 8221 315
Width: 876
VWidth: 0
GlyphClass: 2
Flags: MW
PickledData: "(dp1
S'org.robofab.postScriptHintData'
p2
(dp3
sS'position'
p4
I546
sS'com.fontlab.hintData'
p5
(dp6
S'vhints'
p7
((dp8
g4
I274
sS'width'
p9
I137
s(dp10
g4
I617
sg9
I136
stp11
sS'hhints'
p12
((dp13
g4
I976
sg9
I86
stp14
ssg9
I102
s."
LayerCount: 2
Fore
SplineSet
199 976 m 257
 336 1015 411 1111 411 1254 c 258
 411 1486 l 257
 153 1486 l 257
 153 1214 l 257
 274 1214 l 257
 275 1123 232 1089 153 1062 c 257
 199 976 l 257
542 976 m 257
 678 1015 753 1111 753 1254 c 258
 753 1486 l 257
 495 1486 l 257
 495 1214 l 257
 617 1214 l 257
 618 1123 575 1089 495 1062 c 257
 542 976 l 257
EndSplineSet
EndChar

StartChar: quoteleft
Encoding: 8216 8216 316
Width: 666
VWidth: 0
GlyphClass: 2
Flags: MW
PickledData: "(dp1
S'org.robofab.postScriptHintData'
p2
(dp3
sS'position'
p4
I122
sS'com.fontlab.hintData'
p5
(dp6
S'vhints'
p7
((dp8
g4
I200
sS'width'
p9
I137
stp10
sS'hhints'
p11
((dp12
g4
I1401
sg9
I86
stp13
ssg9
I102
s."
LayerCount: 2
Fore
SplineSet
200 978 m 257
 458 978 l 257
 458 1249 l 257
 337 1249 l 257
 336 1339 379 1374 458 1401 c 257
 412 1487 l 257
 275 1448 200 1352 200 1209 c 258
 200 978 l 257
EndSplineSet
EndChar

StartChar: quoteright
Encoding: 8217 8217 317
Width: 626
VWidth: 0
GlyphClass: 2
Flags: MW
PickledData: "(dp1
S'org.robofab.postScriptHintData'
p2
(dp3
sS'position'
p4
I260
sS'com.fontlab.hintData'
p5
(dp6
S'vhints'
p7
((dp8
g4
I310
sS'width'
p9
I136
stp10
sS'hhints'
p11
((dp12
g4
I976
sg9
I86
stp13
ssg9
I102
s."
LayerCount: 2
Fore
SplineSet
236 976 m 257
 372 1015 446 1111 446 1254 c 258
 446 1486 l 257
 189 1486 l 257
 189 1214 l 257
 310 1214 l 257
 310 1123 269 1089 189 1062 c 257
 236 976 l 257
EndSplineSet
EndChar

StartChar: quotesinglbase
Encoding: 8218 8218 318
Width: 666
VWidth: 0
GlyphClass: 2
Flags: MW
PickledData: "(dp1
S'org.robofab.postScriptHintData'
p2
(dp3
sS'position'
p4
I217
sS'com.fontlab.hintData'
p5
(dp6
S'vhints'
p7
((dp8
g4
I321
sS'width'
p9
I138
stp10
sS'hhints'
p11
((dp12
g4
I-237
sg9
I86
stp13
ssg9
I101
s."
LayerCount: 2
Fore
SplineSet
247 -237 m 257
 384 -198 459 -103 459 40 c 258
 459 273 l 257
 201 273 l 257
 201 1 l 257
 321 1 l 257
 322 -90 281 -124 201 -151 c 257
 247 -237 l 257
EndSplineSet
EndChar

StartChar: quotesingle
Encoding: 39 39 319
Width: 571
VWidth: 0
GlyphClass: 2
Flags: MW
PickledData: "(dp1
S'org.robofab.postScriptHintData'
p2
(dp3
sS'position'
p4
I6
sS'com.fontlab.hintData'
p5
(dp6
S'vhints'
p7
((dp8
g4
I198
sS'width'
p9
I173
stp10
sS'hhints'
p11
((dp12
g4
I999
sg9
I487
stp13
ssg9
I157
s."
LayerCount: 2
Fore
SplineSet
235 999 m 257
 335 999 l 257
 371 1418 l 258
 373 1437 371 1466 371 1486 c 257
 198 1486 l 257
 198 1466 196 1437 198 1418 c 258
 235 999 l 257
EndSplineSet
EndChar

StartChar: r
Encoding: 114 114 320
Width: 767
VWidth: 0
GlyphClass: 2
Flags: HMW
PickledData: "(dp1
S'name'
p2
S'r'
sS'com.typemytype.robofont.layerData'
p3
(dp4
S'b'
(dp5
g2
S'r'
sS'lib'
p6
(dp7
sS'unicodes'
p8
(tsS'width'
p9
I704
sS'contours'
p10
(tsS'components'
p11
(tsS'anchors'
p12
(tsssg8
(tsS'org.robofab.postScriptHintData'
p13
(dp14
sS'com.fontlab.hintData'
p15
(dp16
S'vhints'
p17
((dp18
S'position'
p19
I166
sg9
I129
stp20
sS'hhints'
p21
((dp22
g19
I967
sg9
I142
stp23
ssg9
I708
sg10
(tsg11
(tsg19
I132
sg12
(ts."
AnchorPoint: "top" 439 1098 basechar 0
AnchorPoint: "bot" 434 0 basechar 0
LayerCount: 2
Fore
SplineSet
166 0 m 257
 337 0 l 257
 337 830 l 257
 421 893 541 955 698 967 c 257
 682 1109 l 257
 594 1109 440 1051 322 923 c 257
 295 1096 l 261
 166 1096 l 261
 166 0 l 257
EndSplineSet
EndChar

StartChar: registered
Encoding: 174 174 325
Width: 1817
VWidth: 0
GlyphClass: 2
Flags: MW
PickledData: "(dp1
S'org.robofab.postScriptHintData'
p2
(dp3
sS'position'
p4
I1036
sS'com.fontlab.hintData'
p5
(dp6
S'vhints'
p7
((dp8
g4
I107
sS'width'
p9
I127
s(dp10
g4
I1121
sg9
I93
s(dp11
g4
I1134
sg9
I88
s(dp12
g4
I1585
sg9
I126
stp13
sS'hhints'
p14
((dp15
g4
I-17
sg9
I100
s(dp16
g4
I735
sg9
I69
s(dp17
g4
I1104
sg9
I74
s(dp18
g4
I1414
sg9
I99
stp19
ssg9
I87
s."
LayerCount: 2
Fore
SplineSet
638 353 m 257
 738 353 l 257
 738 735 l 257
 897 735 l 258
 1085 735 1113 694 1121 554 c 258
 1134 353 l 257
 1225 353 l 257
 1214 566 l 258
 1207 682 1159 768 1069 775 c 257
 1156 796 1222 858 1222 959 c 256
 1222 1177 1044 1178 854 1178 c 258
 638 1178 l 257
 638 353 l 257
738 804 m 257
 738 1104 l 257
 854 1104 l 258
 996 1104 1134 1117 1134 954 c 256
 1134 815 1033 804 927 804 c 258
 738 804 l 257
909 83 m 256
 494 83 234 335 234 748 c 256
 234 1161 494 1414 909 1414 c 256
 1324 1414 1585 1161 1585 748 c 256
 1585 335 1324 83 909 83 c 256
909 -17 m 256
 1400 -17 1711 283 1711 748 c 256
 1711 1213 1400 1513 909 1513 c 256
 418 1513 107 1213 107 748 c 256
 107 283 418 -17 909 -17 c 256
EndSplineSet
EndChar

StartChar: ring
Encoding: 730 730 326
Width: 783
VWidth: 0
GlyphClass: 2
Flags: MW
PickledData: "(dp1
S'org.robofab.postScriptHintData'
p2
(dp3
sS'position'
p4
I309
sS'com.fontlab.hintData'
p5
(dp6
S'vhints'
p7
((dp8
g4
I195
sS'width'
p9
I89
s(dp10
g4
I552
sg9
I89
stp11
sS'hhints'
p12
((dp13
g4
I1226
sg9
I83
s(dp14
g4
I1588
sg9
I83
stp15
ssg9
I50
s."
AnchorPoint: "top" 420 1098 mark 0
AnchorPoint: "top" 390 1568 basechar 0
LayerCount: 2
Fore
SplineSet
420 1309 m 256
 336 1309 284 1363 284 1449 c 256
 284 1535 336 1588 420 1588 c 256
 501 1588 552 1535 552 1449 c 256
 552 1363 501 1309 420 1309 c 256
420 1226 m 256
 556 1226 641 1312 641 1449 c 256
 641 1585 556 1671 420 1671 c 256
 282 1671 195 1585 195 1449 c 256
 195 1312 282 1226 420 1226 c 256
EndSplineSet
EndChar

StartChar: s
Encoding: 115 115 327
Width: 1000
VWidth: 0
GlyphClass: 2
Flags: HMW
PickledData: "(dp1
S'segmentType'
p2
S'line'
p3
sS'name'
p4
S's'
sS'com.typemytype.robofont.layerData'
p5
(dp6
S'b'
(dp7
g4
S's'
sS'lib'
p8
(dp9
sS'unicodes'
p10
(tsS'width'
p11
I942
sS'contours'
p12
(tsS'components'
p13
(tsS'anchors'
p14
(tsssg10
(tsS'org.robofab.postScriptHintData'
p15
(dp16
sS'com.fontlab.hintData'
p17
(dp18
S'vhints'
p19
((dp20
S'position'
p21
I128
sg11
I162
s(dp22
g21
I740
sg11
I159
stp23
sS'hhints'
p24
((dp25
g21
I-17
sg11
I133
s(dp26
g21
I982
sg11
I133
stp27
ssg11
I912
sS'points'
p28
(tsg12
(tsg13
(tsg21
I752
sS'y'
S'-17'
p29
sS'x'
I387
sg14
(ts."
AnchorPoint: "top" 509 1099 basechar 0
AnchorPoint: "bot" 507 -3 basechar 0
LayerCount: 2
Fore
SplineSet
522 -20 m 260
 727 -20 899 74 899 310 c 256
 900 499 790 569 628 619 c 258
 430 680 l 258
 316 716 290 756 290 835 c 256
 293 960 414 983 515 983 c 256
 621 983 720 957 797 907 c 257
 856 1014 l 257
 777 1074 654 1116 496 1116 c 256
 318 1116 128 1031 128 825 c 256
 128 656 226 580 376 536 c 258
 584 475 l 258
 699 441 745 403 740 282 c 256
 734 147 614 113 510 113 c 260
 410 113 285 163 199 221 c 257
 147 103 l 257
 226 39 370 -20 522 -20 c 260
EndSplineSet
EndChar

StartChar: section
Encoding: 167 167 333
Width: 1049
VWidth: 0
GlyphClass: 2
Flags: MW
PickledData: "(dp1
S'org.robofab.postScriptHintData'
p2
(dp3
sS'position'
p4
I684
sS'com.fontlab.hintData'
p5
(dp6
S'vhints'
p7
((dp8
g4
I148
sS'width'
p9
I142
s(dp10
g4
I731
sg9
I157
stp11
sS'hhints'
p12
((dp13
g4
I-90
sg9
I135
s(dp14
g4
I1340
sg9
I135
stp15
ssg9
I115
s."
LayerCount: 2
Fore
SplineSet
498 -90 m 256
 687 -90 888 -14 888 206 c 256
 888 364 792 442 650 490 c 257
 767 498 886 572 886 701 c 256
 886 892 748 964 590 1016 c 258
 484 1050 l 258
 370 1089 292 1122 292 1199 c 256
 292 1320 416 1340 510 1340 c 256
 611 1340 708 1301 787 1240 c 257
 840 1366 l 257
 770 1426 592 1475 501 1475 c 256
 339 1475 148 1400 148 1208 c 256
 148 1047 251 987 390 935 c 257
 274 922 148 859 148 724 c 256
 148 526 289 467 438 422 c 258
 510 400 l 258
 634 362 731 325 731 209 c 256
 731 76 593 45 487 45 c 256
 395 45 282 86 214 146 c 257
 157 18 l 257
 231 -42 401 -90 498 -90 c 256
512 563 m 256
 414 563 290 585 290 708 c 256
 290 835 412 853 512 853 c 256
 614 853 738 838 738 706 c 256
 738 586 607 563 512 563 c 256
EndSplineSet
EndChar

StartChar: semicolon
Encoding: 59 59 334
Width: 665
VWidth: 0
GlyphClass: 2
Flags: MW
PickledData: "(dp1
S'name'
p2
S'semicolon'
p3
sS'unicodes'
p4
(tsS'org.robofab.postScriptHintData'
p5
(dp6
sS'com.fontlab.hintData'
p7
(dp8
S'vhints'
p9
((dp10
S'position'
p11
I321
sS'width'
p12
I137
stp13
sS'hhints'
p14
((dp15
g11
I-237
sg12
I86
stp16
ssg12
I420
sS'contours'
p17
(tsS'components'
p18
(tsg11
I197
sS'anchors'
p19
(ts."
LayerCount: 2
Fore
SplineSet
246 -237 m 257
 380 -198 458 -105 458 39 c 258
 458 273 l 257
 201 273 l 257
 201 0 l 257
 321 0 l 257
 322 -89 279 -124 199 -151 c 257
 246 -237 l 257
202 545 m 257
 458 545 l 257
 458 807 l 257
 202 807 l 257
 202 545 l 257
EndSplineSet
EndChar

StartChar: seven
Encoding: 55 55 335
Width: 1087
VWidth: 0
GlyphClass: 2
Flags: HMW
PickledData: "(dp1
S'org.robofab.postScriptHintData'
p2
(dp3
sS'position'
p4
I1161
sS'width'
p5
I100
s."
LayerCount: 2
Fore
SplineSet
429 -224 m 261
 966 983 l 261
 914 1096 l 261
 129 1096 l 261
 129 953 l 261
 769 953 l 261
 274 -154 l 261
 429 -224 l 261
EndSplineSet
EndChar

StartChar: six
Encoding: 54 54 336
Width: 1227
VWidth: 0
GlyphClass: 2
Flags: MW
PickledData: "(dp1
S'org.robofab.postScriptHintData'
p2
(dp3
sS'position'
p4
I983
sS'com.fontlab.hintData'
p5
(dp6
S'vhints'
p7
((dp8
g4
I150
sS'width'
p9
I165
s(dp10
g4
I930
sg9
I162
stp11
sS'hhints'
p12
((dp13
g4
I-70
sg9
I131
s(dp14
g4
I697
sg9
I125
s(dp15
g4
I1183
sg9
I134
stp16
ssg9
I102
s."
LayerCount: 2
Fore
SplineSet
624 -70 m 256
 899 -70 1092 112 1092 392 c 256
 1092 653 912 822 656 822 c 256
 531 822 414 782 334 683 c 257
 382 950 603 1128 860 1183 c 257
 821 1317 l 257
 410 1220 150 902 150 477 c 256
 150 171 293 -70 624 -70 c 256
624 61 m 256
 387 61 315 252 315 455 c 256
 315 493 315 518 321 555 c 257
 387 629 496 697 655 697 c 256
 835 697 930 565 930 391 c 256
 930 205 819 61 624 61 c 256
EndSplineSet
EndChar

StartChar: slash
Encoding: 47 47 337
Width: 877
VWidth: 0
GlyphClass: 2
Flags: MW
PickledData: "(dp1
S'org.robofab.postScriptHintData'
p2
(dp3
s."
LayerCount: 2
Fore
SplineSet
120 -163 m 257
 819 1585 l 257
 710 1628 l 257
 11 -120 l 257
 120 -163 l 257
EndSplineSet
EndChar

StartChar: sterling
Encoding: 163 163 339
Width: 1076
VWidth: 0
GlyphClass: 2
Flags: MW
PickledData: "(dp1
S'org.robofab.postScriptHintData'
p2
(dp3
sS'position'
p4
I218
sS'com.fontlab.hintData'
p5
(dp6
S'vhints'
p7
((dp8
g4
I173
sS'width'
p9
I152
s(dp10
g4
I342
sg9
I135
stp11
sS'hhints'
p12
((dp13
g4
I1116
sg9
I130
stp14
ssg9
I92
s."
LayerCount: 2
Fore
SplineSet
156 0 m 257
 904 0 l 257
 904 122 l 257
 323 122 l 257
 415 202 477 317 477 432 c 256
 477 478 468 525 445 568 c 257
 838 568 l 257
 838 657 l 257
 411 657 l 257
 356 738 325 834 325 904 c 256
 325 1054 434 1116 572 1116 c 256
 670 1116 782 1087 889 1033 c 257
 935 1146 l 257
 813 1212 678 1246 556 1246 c 256
 347 1246 173 1143 173 916 c 256
 173 832 206 737 269 657 c 257
 104 657 l 257
 104 568 l 257
 314 568 l 257
 333 529 342 487 342 446 c 256
 342 327 267 203 156 116 c 257
 156 0 l 257
EndSplineSet
EndChar

StartChar: t
Encoding: 116 116 341
Width: 800
VWidth: 0
GlyphClass: 2
Flags: HMW
PickledData: "(dp1
S'name'
p2
S't'
sS'com.typemytype.robofont.layerData'
p3
(dp4
S'b'
(dp5
g2
S't'
sS'lib'
p6
(dp7
sS'unicodes'
p8
(tsS'width'
p9
I746
sS'contours'
p10
(tsS'components'
p11
(tsS'anchors'
p12
(tsssg8
(tsS'org.robofab.postScriptHintData'
p13
(dp14
sS'com.fontlab.hintData'
p15
(dp16
S'vhints'
p17
((dp18
S'position'
p19
I241
sg9
I171
s(dp20
g19
I262
sg9
I150
stp21
sS'hhints'
p22
((dp23
g19
I-8
sg9
I129
stp24
ssg9
I777
sg10
(tsg11
(tsg19
I273
sg12
(ts."
AnchorPoint: "top" 292 1480 basechar 0
AnchorPoint: "caron.alt" 362 1384 basechar 0
AnchorPoint: "bot" 478 0 basechar 0
AnchorPoint: "mid" 362 642 basechar 0
LayerCount: 2
Fore
SplineSet
507 -8 m 256
 585 -10 668 0 738 32 c 257
 718 151 l 257
 659 132 609 121 560 121 c 256
 431 121 412 199 412 268 c 258
 412 982 l 261
 725 982 l 261
 725 1096 l 261
 412 1096 l 261
 412 1480 l 257
 262 1439 l 257
 243 1096 l 261
 65 1096 l 261
 65 982 l 261
 241 982 l 261
 241 270 l 258
 241 97 331 -3 507 -8 c 256
EndSplineSet
EndChar

StartChar: thorn
Encoding: 254 254 345
Width: 1205
VWidth: 0
GlyphClass: 2
Flags: MW
PickledData: "(dp1
S'org.robofab.postScriptHintData'
p2
(dp3
sS'position'
p4
I995
sS'com.fontlab.hintData'
p5
(dp6
S'vhints'
p7
((dp8
g4
I137
sS'width'
p9
I193
s(dp10
g4
I137
sg9
I172
s(dp11
g4
I920
sg9
I169
stp12
sS'hhints'
p13
((dp14
g4
I-19
sg9
I133
s(dp15
g4
I987
sg9
I132
stp16
ssg9
I90
s."
LayerCount: 2
Fore
SplineSet
137 -460 m 257
 309 -439 l 257
 309 112 l 257
 389 10 523 -19 647 -19 c 256
 965 -19 1089 274 1089 549 c 256
 1089 828 968 1119 647 1119 c 256
 514 1119 388 1047 307 944 c 257
 307 1473 l 257
 137 1473 l 257
 137 -460 l 257
653 114 m 256
 540 114 401 153 315 229 c 257
 330 838 l 257
 411 921 530 987 647 987 c 256
 890 987 920 692 920 511 c 256
 920 343 861 114 653 114 c 256
EndSplineSet
EndChar

StartChar: three
Encoding: 51 51 346
Width: 1109
VWidth: 0
GlyphClass: 2
Flags: HMW
PickledData: "(dp1
S'org.robofab.postScriptHintData'
p2
(dp3
sS'position'
p4
I771
sS'com.fontlab.hintData'
p5
(dp6
S'vhints'
p7
((dp8
g4
I779
sS'width'
p9
I153
s(dp10
g4
I803
sg9
I165
stp11
sS'hhints'
p12
((dp13
g4
I-205
sg9
I129
s(dp14
g4
I983
sg9
I132
stp15
ssg9
I102
s."
LayerCount: 2
Fore
SplineSet
530 -205 m 256
 738 -205 968 -102 968 137 c 256
 969 336 846 455 659 494 c 257
 820 495 932 640 932 795 c 256
 932 1034 718 1116 513 1116 c 260
 404 1116 279 1083 181 1039 c 261
 227 916 l 261
 313 959 409 984 508 984 c 260
 653 984 779 944 779 775 c 256
 779 605 627 558 485 558 c 257
 485 426 l 257
 650 407 803 343 803 155 c 256
 803 -12 684 -76 529 -76 c 256
 423 -76 296 -43 201 8 c 257
 151 -116 l 257
 269 -172 399 -205 530 -205 c 256
EndSplineSet
EndChar

StartChar: threequarters
Encoding: 190 190 347
Width: 2048
VWidth: 0
GlyphClass: 2
Flags: MW
PickledData: "(dp1
S'org.robofab.postScriptHintData'
p2
(dp3
sS'position'
p4
I1390
sS'com.fontlab.hintData'
p5
(dp6
S'vhints'
p7
((dp8
g4
I580
sS'width'
p9
I130
s(dp10
g4
I603
sg9
I134
stp11
sS'hhints'
p12
((dp13
g4
I572
sg9
I107
s(dp14
g4
I1038
sg9
I98
s(dp15
g4
I1435
sg9
I109
stp16
ssg9
I103
s."
LayerCount: 2
Fore
SplineSet
417 572 m 256
 571 572 737 649 737 827 c 256
 737 962 664 1057 514 1084 c 257
 645 1104 710 1203 710 1306 c 256
 710 1484 547 1544 397 1544 c 256
 313 1544 215 1518 145 1484 c 257
 182 1382 l 257
 249 1416 319 1435 392 1435 c 256
 495 1435 580 1409 580 1291 c 256
 580 1168 471 1134 367 1136 c 257
 367 1038 l 257
 488 1025 604 975 603 840 c 256
 603 723 520 679 411 679 c 256
 332 679 234 704 164 744 c 257
 123 641 l 257
 209 597 319 572 417 572 c 256
1772 -17 m 257
 1772 240 l 257
 1914 240 l 257
 1914 342 l 257
 1772 342 l 257
 1772 1067 l 257
 1663 1095 l 257
 1131 342 l 257
 1151 240 l 257
 1648 240 l 257
 1648 0 l 257
 1772 -17 l 257
610 -30 m 257
 1587 1517 l 257
 1481 1576 l 257
 507 29 l 257
 610 -30 l 257
1270 341 m 257
 1648 885 l 257
 1648 341 l 257
 1270 341 l 257
EndSplineSet
EndChar

StartChar: tilde
Encoding: 732 732 348
Width: 973
VWidth: 0
GlyphClass: 4
Flags: MW
PickledData: "(dp1
S'org.robofab.postScriptHintData'
p2
(dp3
sS'position'
p4
I635
sS'com.fontlab.hintData'
p5
(dp6
S'vhints'
p7
((dp8
g4
I178
sS'width'
p9
I69
s(dp10
g4
I744
sg9
I68
stp11
sS'hhints'
p12
((dp13
g4
I1247
sg9
I214
stp14
ssg9
I122
s."
AnchorPoint: "top" 501 1098 mark 0
LayerCount: 2
Fore
SplineSet
178 1247 m 257
 247 1247 l 257
 247 1423 505 1251 653 1248 c 256
 760 1247 812 1310 812 1461 c 257
 744 1461 l 257
 744 1299 479 1464 346 1467 c 256
 235 1468 178 1409 178 1247 c 257
EndSplineSet
EndChar

StartChar: trademark
Encoding: 8482 8482 349
Width: 1440
VWidth: 0
GlyphClass: 2
Flags: MW
PickledData: "(dp1
S'org.robofab.postScriptHintData'
p2
(dp3
sS'position'
p4
I1255
sS'width'
p5
I90
s."
LayerCount: 2
Fore
SplineSet
609 599 m 257
 728 599 l 257
 728 1218 l 257
 913 601 l 257
 1076 601 l 257
 1262 1218 l 257
 1262 599 l 257
 1380 599 l 257
 1380 1336 l 257
 1169 1336 l 257
 995 724 l 257
 820 1336 l 257
 609 1336 l 257
 609 599 l 257
185 599 m 257
 310 599 l 257
 310 1241 l 257
 506 1241 l 257
 506 1336 l 257
 -7 1336 l 257
 -7 1241 l 257
 185 1241 l 257
 185 599 l 257
EndSplineSet
EndChar

StartChar: two
Encoding: 50 50 350
Width: 1001
VWidth: 0
GlyphClass: 2
Flags: HMW
PickledData: "(dp1
S'org.robofab.postScriptHintData'
p2
(dp3
sS'position'
p4
I796
sS'com.fontlab.hintData'
p5
(dp6
S'vhints'
p7
((dp8
g4
I718
sS'width'
p9
I150
stp10
sS'hhints'
p11
((dp12
g4
I987
sg9
I128
stp13
ssg9
I71
s."
LayerCount: 2
Fore
SplineSet
121 0 m 257
 869 0 l 257
 869 125 l 257
 315 125 l 257
 581 341 l 258
 734 464 868 614 868 784 c 260
 868 1019 685 1116 483 1116 c 260
 368 1116 251 1084 158 1029 c 261
 208 917 l 261
 293 959 395 988 488 988 c 260
 614 988 718 934 718 785 c 260
 718 630 599 535 488 438 c 258
 121 119 l 257
 121 0 l 257
EndSplineSet
EndChar

StartChar: u
Encoding: 117 117 351
Width: 1240
VWidth: 0
GlyphClass: 2
Flags: HMW
PickledData: "(dp1
S'name'
p2
S'u'
sS'com.typemytype.robofont.layerData'
p3
(dp4
S'b'
(dp5
g2
S'u'
sS'lib'
p6
(dp7
sS'unicodes'
p8
(tsS'width'
p9
I1223
sS'contours'
p10
(tsS'components'
p11
(tsS'anchors'
p12
(tsssg8
(tsS'org.robofab.postScriptHintData'
p13
(dp14
sS'com.fontlab.hintData'
p15
(dp16
S'vhints'
p17
((dp18
S'position'
p19
I155
sg9
I175
s(dp20
g19
I948
sg9
I129
stp21
sS'hhints'
p22
((dp23
g19
I-17
sg9
I133
stp24
ssg9
I1148
sg10
(tsg11
(tsg12
(tsg19
I945
sS'com.typemytype.robofont.guides'
p25
(ts."
AnchorPoint: "top" 624 1096 basechar 0
AnchorPoint: "ogonek" 1010 0 basechar 0
LayerCount: 2
Fore
SplineSet
538 -20 m 256
 731 -20 846 70 922 154 c 257
 948 0 l 261
 1077 0 l 261
 1077 1096 l 257
 901 1096 l 257
 901 277 l 257
 811 187 728 113 548 113 c 256
 372 113 330 245 330 401 c 258
 330 1096 l 257
 155 1096 l 257
 155 401 l 258
 155 132 271 -20 538 -20 c 256
EndSplineSet
EndChar

StartChar: underscore
Encoding: 95 95 359
Width: 1107
VWidth: 0
GlyphClass: 2
Flags: MW
PickledData: "(dp1
S'org.robofab.postScriptHintData'
p2
(dp3
sS'position'
p4
S'-118'
p5
sS'com.fontlab.hintData'
p6
(dp7
S'hhints'
p8
((dp9
g4
I-104
sS'width'
p10
I132
stp11
ssg10
I81
s."
LayerCount: 2
Fore
SplineSet
112 -104 m 257
 995 -104 l 257
 995 28 l 257
 112 28 l 257
 112 -104 l 257
EndSplineSet
EndChar

StartChar: uni00AD
Encoding: 173 173 361
Width: 780
VWidth: 0
GlyphClass: 2
Flags: MW
PickledData: "(dp1
S'org.robofab.postScriptHintData'
p2
(dp3
sS'position'
p4
I21
sS'com.fontlab.hintData'
p5
(dp6
S'vhints'
p7
((dp8
g4
I169
sS'width'
p9
I434
stp10
sS'hhints'
p11
((dp12
g4
I477
sg9
I120
stp13
ssg9
I293
s."
LayerCount: 2
Fore
SplineSet
169 477 m 257
 603 477 l 257
 603 597 l 257
 169 597 l 257
 169 477 l 257
EndSplineSet
EndChar

StartChar: uni00B2
Encoding: 178 178 362
Width: 1001
VWidth: 0
GlyphClass: 2
Flags: MW
PickledData: "(dp1
S'org.robofab.postScriptHintData'
p2
(dp3
sS'position'
p4
I500
sS'com.fontlab.hintData'
p5
(dp6
S'vhints'
p7
((dp8
g4
I709
sS'width'
p9
I143
stp10
sS'hhints'
p11
((dp12
g4
I1508
sg9
I123
stp13
ssg9
I121
s."
LayerCount: 2
Fore
SplineSet
135 549 m 257
 853 549 l 257
 853 669 l 257
 321 669 l 257
 576 887 l 258
 721 1010 852 1148 852 1311 c 256
 852 1537 677 1631 483 1631 c 256
 372 1631 259 1600 170 1548 c 257
 218 1440 l 257
 300 1479 399 1508 487 1508 c 256
 608 1508 709 1456 709 1312 c 256
 709 1164 592 1075 487 980 c 258
 135 664 l 257
 135 549 l 257
EndSplineSet
EndChar

StartChar: uni00B3
Encoding: 179 179 363
Width: 1109
VWidth: 0
GlyphClass: 2
Flags: MW
PickledData: "(dp1
S'org.robofab.postScriptHintData'
p2
(dp3
sS'position'
p4
I545
sS'com.fontlab.hintData'
p5
(dp6
S'vhints'
p7
((dp8
g4
I746
sS'width'
p9
I136
s(dp10
g4
I768
sg9
I148
stp11
sS'hhints'
p12
((dp13
g4
I455
sg9
I114
s(dp14
g4
I1510
sg9
I117
stp15
ssg9
I116
s."
LayerCount: 2
Fore
SplineSet
525 455 m 256
 710 455 916 547 916 759 c 256
 916 936 806 1041 641 1075 c 257
 784 1076 882 1206 882 1343 c 256
 882 1555 691 1627 510 1627 c 256
 414 1627 302 1599 215 1559 c 257
 257 1449 l 257
 334 1488 419 1510 506 1510 c 256
 635 1510 746 1474 746 1324 c 256
 746 1174 611 1132 486 1132 c 257
 486 1014 l 257
 632 998 768 941 768 775 c 256
 767 626 665 569 528 569 c 256
 432 569 317 599 233 644 c 257
 189 534 l 257
 292 483 409 455 525 455 c 256
EndSplineSet
EndChar

StartChar: uni00B9
Encoding: 185 185 364
Width: 813
VWidth: 0
GlyphClass: 2
Flags: MW
PickledData: "(dp1
S'org.robofab.postScriptHintData'
p2
(dp3
sS'position'
p4
I91
sS'width'
p5
I110
s."
LayerCount: 2
Fore
SplineSet
447 547 m 257
 603 547 l 257
 603 1560 l 257
 473 1584 l 257
 250 1494 l 257
 285 1389 l 257
 447 1459 l 257
 447 547 l 257
EndSplineSet
EndChar

StartChar: uni0237
Encoding: 567 567 433
Width: 854
VWidth: 0
GlyphClass: 2
Flags: MW
PickledData: "(dp1
S'org.robofab.postScriptHintData'
p2
(dp3
sS'position'
p4
I324
sS'com.fontlab.hintData'
p5
(dp6
S'vhints'
p7
((dp8
g4
I451
sS'width'
p9
I176
stp10
ssg9
I104
s."
AnchorPoint: "top" 543 1098 basechar 0
LayerCount: 2
Fore
SplineSet
319 -352 m 257
 542 -297 627 -64 627 144 c 258
 627 1099 l 257
 451 1099 l 257
 451 164 l 258
 451 -15 439 -140 275 -245 c 257
 319 -352 l 257
EndSplineSet
EndChar

StartChar: uni0307
Encoding: 775 775 436
Width: 610
VWidth: 0
GlyphClass: 4
Flags: MW
PickledData: "(dp1
S'org.robofab.postScriptHintData'
p2
(dp3
sS'position'
p4
I129
sS'com.fontlab.hintData'
p5
(dp6
S'vhints'
p7
((dp8
g4
I199
sS'width'
p9
I203
stp10
sS'hhints'
p11
((dp12
g4
I1272
sg9
I213
stp13
ssg9
I129
s."
AnchorPoint: "top" 302 1098 mark 0
LayerCount: 2
Fore
SplineSet
303 1272 m 256
 364 1272 402 1312 402 1378 c 256
 402 1444 364 1485 303 1485 c 256
 239 1485 199 1444 199 1378 c 256
 199 1312 239 1272 303 1272 c 256
EndSplineSet
EndChar

StartChar: uni030F
Encoding: 783 783 437
Width: 896
VWidth: 0
GlyphClass: 4
Flags: MW
PickledData: "(dp1
S'org.robofab.postScriptHintData'
p2
(dp3
sS'position'
p4
I113
sS'width'
p5
I629
s."
AnchorPoint: "top" 669 1098 mark 0
LayerCount: 2
Fore
SplineSet
514 1288 m 257
 550 1332 l 257
 165 1717 l 257
 45 1591 l 257
 514 1288 l 257
824 1292 m 257
 867 1331 l 257
 544 1769 l 257
 406 1665 l 257
 824 1292 l 257
EndSplineSet
EndChar

StartChar: uni0311
Encoding: 785 785 438
Width: 788
VWidth: 0
GlyphClass: 4
Flags: MW
PickledData: "(dp1
S'org.robofab.postScriptHintData'
p2
(dp3
sS'position'
p4
I400
sS'com.fontlab.hintData'
p5
(dp6
S'vhints'
p7
((dp8
g4
I133
sS'width'
p9
I119
s(dp10
g4
I555
sg9
I118
stp11
sS'hhints'
p12
((dp13
g4
I1360
sg9
I108
stp14
ssg9
I30
s."
AnchorPoint: "top" 410 1098 mark 0
LayerCount: 2
Fore
SplineSet
133 1242 m 257
 252 1242 l 257
 252 1315 309 1360 403 1360 c 256
 497 1360 555 1315 555 1242 c 257
 673 1242 l 257
 673 1382 569 1468 402 1468 c 256
 236 1468 133 1382 133 1242 c 257
EndSplineSet
EndChar

StartChar: uni0326
Encoding: 806 806 440
Width: 665
VWidth: 0
GlyphClass: 4
Flags: MW
PickledData: "(dp1
S'org.robofab.postScriptHintData'
p2
(dp3
sS'position'
p4
I205
sS'com.fontlab.hintData'
p5
(dp6
S'vhints'
p7
((dp8
g4
I382
sS'width'
p9
I100
stp10
sS'hhints'
p11
((dp12
g4
I-573
sg9
I59
stp13
ssg9
I102
s."
AnchorPoint: "bot" 389 0 mark 0
LayerCount: 2
Fore
SplineSet
289 -573 m 257
 424 -534 482 -440 482 -296 c 258
 482 -108 l 257
 289 -108 l 257
 289 -337 l 257
 382 -337 l 257
 383 -426 335 -487 255 -514 c 257
 289 -573 l 257
EndSplineSet
EndChar

StartChar: uni0358
Encoding: 856 856 441
Width: 610
VWidth: 0
GlyphClass: 4
Flags: MW
PickledData: "(dp1
S'org.robofab.postScriptHintData'
p2
(dp3
sS'com.fontlab.hintData'
p4
(dp5
S'vhints'
p6
((dp7
S'position'
p8
I199
sS'width'
p9
I203
stp10
sS'hhints'
p11
((dp12
g8
I1272
sg9
I213
stp13
ss."
AnchorPoint: "top" 302 1098 mark 0
LayerCount: 2
Fore
SplineSet
303 1272 m 256
 364 1272 402 1312 402 1378 c 256
 402 1444 364 1485 303 1485 c 256
 239 1485 199 1444 199 1378 c 256
 199 1312 239 1272 303 1272 c 256
EndSplineSet
EndChar

StartChar: uni0394
Encoding: 916 916 442
Width: 1329
VWidth: 0
GlyphClass: 2
Flags: MW
PickledData: "(dp1
S'org.robofab.postScriptHintData'
p2
(dp3
s."
LayerCount: 2
Fore
SplineSet
35 0 m 257
 1285 0 l 257
 779 1486 l 257
 531 1486 l 257
 35 0 l 257
275 152 m 257
 660 1376 l 257
 1040 152 l 257
 275 152 l 257
EndSplineSet
EndChar

StartChar: uni03A9
Encoding: 937 937 443
Width: 1658
VWidth: 0
GlyphClass: 2
Flags: MW
PickledData: "(dp1
S'org.robofab.postScriptHintData'
p2
(dp3
sS'com.fontlab.hintData'
p4
(dp5
S'vhints'
p6
((dp7
S'position'
p8
I202
sS'width'
p9
I163
s(dp10
g8
I1483
sg9
I163
stp11
sS'hhints'
p12
((dp13
g8
I1406
sg9
I134
stp14
ss."
LayerCount: 2
Fore
SplineSet
203 0 m 257
 744 0 l 257
 744 114 l 257
 517 261 365 517 365 808 c 256
 365 1164 593 1406 930 1406 c 256
 1297 1406 1483 1127 1483 804 c 256
 1483 511 1323 262 1100 114 c 257
 1101 0 l 257
 1637 0 l 257
 1650 121 l 257
 1269 121 l 257
 1461 265 1646 511 1646 822 c 256
 1646 1228 1373 1540 935 1540 c 256
 512 1540 202 1257 202 826 c 256
 202 521 355 269 572 121 c 257
 188 121 l 257
 203 0 l 257
EndSplineSet
EndChar

StartChar: uni03BC
Encoding: 956 956 444
Width: 1223
VWidth: 0
GlyphClass: 2
Flags: HMW
PickledData: "(dp1
S'org.robofab.postScriptHintData'
p2
(dp3
sS'position'
p4
I947
sS'com.fontlab.hintData'
p5
(dp6
S'vhints'
p7
((dp8
g4
I155
sS'width'
p9
I161
s(dp10
g4
I941
sg9
I134
stp11
sS'hhints'
p12
((dp13
g4
I-19
sg9
I133
stp14
ssg9
I92
s."
LayerCount: 2
Fore
SplineSet
316 -276 m 257
 316 104 l 257
 372 32 446 -20 543 -20 c 256
 693 -20 820 48 918 158 c 257
 941 0 l 261
 1075 0 l 261
 1075 1096 l 257
 885 1096 l 257
 885 255 l 257
 813 167 666 113 555 113 c 256
 370 113 316 249 316 412 c 258
 316 1096 l 257
 155 1096 l 257
 155 -277 l 257
 316 -276 l 257
EndSplineSet
EndChar

StartChar: uni203E
Encoding: 8254 8254 463
Width: 944
VWidth: 0
GlyphClass: 2
Flags: MW
PickledData: "(dp1
S'org.robofab.postScriptHintData'
p2
(dp3
sS'position'
p4
I122
sS'com.fontlab.hintData'
p5
(dp6
S'vhints'
p7
((dp8
g4
I149
sS'width'
p9
I642
stp10
sS'hhints'
p11
((dp12
g4
I115
sg9
I110
stp13
ssg9
I117
s."
LayerCount: 2
Fore
SplineSet
149 115 m 257
 791 115 l 257
 791 225 l 257
 149 225 l 257
 149 115 l 257
EndSplineSet
EndChar

StartChar: uni2074
Encoding: 8308 8308 464
Width: 968
VWidth: 0
GlyphClass: 2
Flags: MW
PickledData: "(dp1
S'org.robofab.postScriptHintData'
p2
(dp3
sS'position'
p4
I715
sS'width'
p5
I92
s."
LayerCount: 2
Fore
SplineSet
618 422 m 257
 751 444 l 257
 751 688 l 257
 894 688 l 257
 894 792 l 257
 751 792 l 257
 751 1518 l 257
 633 1545 l 257
 102 790 l 257
 122 688 l 257
 618 688 l 257
 618 422 l 257
249 791 m 257
 618 1323 l 257
 618 791 l 257
 249 791 l 257
EndSplineSet
EndChar

StartChar: uniFB00
Encoding: 64256 64256 467
Width: 1590
VWidth: 0
GlyphClass: 2
Flags: HMW
PickledData: "(dp1
S'org.robofab.postScriptHintData'
p2
(dp3
sS'com.fontlab.hintData'
p4
(dp5
S'vhints'
p6
((dp7
S'position'
p8
I277
sS'width'
p9
I171
s(dp10
g8
I1069
sg9
I171
stp11
sS'hhints'
p12
((dp13
g8
I1419
sg9
I129
stp14
ss."
LayerCount: 2
Fore
SplineSet
956 0 m 257
 1127 0 l 257
 1127 982 l 261
 1453 982 l 261
 1453 1096 l 261
 1127 1096 l 261
 1127 1174 l 262
 1127 1392 1228 1416 1299 1417 c 260
 1337 1418 1401 1402 1448 1384 c 261
 1485 1500 l 261
 1419 1527 1348 1544 1281 1546 c 260
 1132 1550 956 1470 956 1181 c 262
 956 1096 l 261
 448 1096 l 261
 448 1174 l 262
 448 1392 549 1416 620 1417 c 260
 658 1418 722 1402 769 1384 c 261
 806 1500 l 261
 740 1527 669 1544 602 1546 c 260
 453 1550 277 1470 277 1181 c 262
 277 1096 l 261
 86 1096 l 261
 86 982 l 261
 277 982 l 261
 277 0 l 257
 448 0 l 257
 448 982 l 261
 956 982 l 261
 956 0 l 257
EndSplineSet
EndChar

StartChar: uniFB01
Encoding: 64257 64257 468
Width: 1159
VWidth: 0
GlyphClass: 2
Flags: HMW
PickledData: "(dp1
S'org.robofab.postScriptHintData'
p2
(dp3
sS'position'
p4
I863
sS'com.fontlab.hintData'
p5
(dp6
S'vhints'
p7
((dp8
g4
I192
sS'width'
p9
I176
s(dp10
g4
I822
sg9
I204
stp11
sS'hhints'
p12
((dp13
g4
I1266
sg9
I214
s(dp14
g4
I1419
sg9
I129
stp15
ssg9
I92
s."
LayerCount: 2
Fore
SplineSet
192 0 m 257
 368 0 l 257
 368 983 l 261
 838 983 l 261
 838 0 l 257
 1006 0 l 257
 1006 1096 l 261
 368 1096 l 261
 368 1176 l 258
 368 1394 469 1418 539 1419 c 256
 578 1420 641 1404 688 1386 c 257
 724 1502 l 257
 658 1529 588 1546 521 1548 c 256
 372 1552 192 1472 192 1183 c 258
 192 1096 l 261
 4 1096 l 261
 4 983 l 261
 192 983 l 261
 192 0 l 257
926 1266 m 256
 986 1266 1026 1315 1026 1372 c 256
 1026 1429 986 1480 926 1480 c 256
 868 1480 822 1429 822 1372 c 256
 822 1315 867 1266 926 1266 c 256
EndSplineSet
EndChar

StartChar: uniFB02
Encoding: 64258 64258 469
Width: 1300
VWidth: 0
GlyphClass: 2
Flags: HMW
PickledData: "(dp1
S'org.robofab.postScriptHintData'
p2
(dp3
sS'position'
p4
I870
sS'com.fontlab.hintData'
p5
(dp6
S'vhints'
p7
((dp8
g4
I237
sS'width'
p9
I176
stp10
sS'hhints'
p11
((dp12
g4
I1420
sg9
I130
stp13
ssg9
I103
s."
LayerCount: 2
Fore
SplineSet
237 0 m 257
 413 0 l 257
 413 982 l 261
 740 982 l 261
 740 1096 l 261
 413 1096 l 261
 413 1176 l 258
 413 1363 540 1420 690 1420 c 256
 766 1420 846 1406 919 1386 c 257
 919 0 l 257
 1090 0 l 257
 1090 1475 l 257
 944 1523 801 1550 675 1550 c 256
 421 1550 237 1442 237 1183 c 258
 237 1096 l 261
 49 1096 l 261
 49 982 l 261
 237 982 l 261
 237 0 l 257
EndSplineSet
EndChar

StartChar: uniFB03
Encoding: 64259 64259 470
Width: 2125
VWidth: 0
GlyphClass: 2
Flags: HMW
PickledData: "(dp1
S'org.robofab.postScriptHintData'
p2
(dp3
s."
LayerCount: 2
Fore
SplineSet
1753 1266 m 256
 1813 1266 1853 1315 1853 1372 c 256
 1853 1429 1813 1480 1753 1480 c 256
 1694 1480 1649 1429 1649 1372 c 256
 1649 1315 1693 1266 1753 1266 c 256
1662 0 m 257
 1833 0 l 257
 1833 1096 l 261
 1662 1096 l 261
 1662 0 l 257
956 0 m 257
 1127 0 l 257
 1127 982 l 261
 1453 982 l 261
 1453 1096 l 261
 1127 1096 l 261
 1127 1176 l 258
 1127 1394 1228 1418 1299 1419 c 256
 1337 1420 1401 1404 1448 1386 c 257
 1485 1502 l 257
 1419 1529 1348 1546 1281 1548 c 256
 1132 1552 956 1472 956 1183 c 258
 956 1096 l 261
 448 1096 l 261
 448 1176 l 258
 448 1394 549 1418 620 1419 c 256
 658 1420 722 1404 769 1386 c 257
 806 1502 l 257
 740 1529 669 1546 602 1548 c 256
 453 1552 277 1472 277 1183 c 258
 277 1096 l 261
 86 1096 l 261
 86 982 l 261
 277 982 l 261
 277 0 l 257
 448 0 l 257
 448 982 l 261
 956 982 l 261
 956 0 l 257
EndSplineSet
EndChar

StartChar: uniFB04
Encoding: 64260 64260 471
Width: 2112
VWidth: 0
GlyphClass: 2
Flags: HMW
PickledData: "(dp1
S'org.robofab.postScriptHintData'
p2
(dp3
sS'com.fontlab.hintData'
p4
(dp5
S'vhints'
p6
((dp7
S'position'
p8
I277
sS'width'
p9
I171
s(dp10
g8
I1069
sg9
I171
s(dp11
g8
I1766
sg9
I171
stp12
sS'hhints'
p13
((dp14
g8
I1419
sg9
I129
stp15
ss."
LayerCount: 2
Fore
SplineSet
1653 0 m 257
 1824 0 l 257
 1824 1521 l 257
 1653 1486 l 257
 1653 0 l 257
956 0 m 257
 1127 0 l 257
 1127 982 l 261
 1453 982 l 261
 1453 1096 l 261
 1127 1096 l 261
 1127 1176 l 258
 1127 1394 1228 1418 1299 1419 c 256
 1337 1420 1401 1404 1448 1386 c 257
 1485 1502 l 257
 1419 1529 1348 1546 1281 1548 c 256
 1132 1552 956 1472 956 1183 c 258
 956 1096 l 261
 448 1096 l 261
 448 1176 l 258
 448 1394 549 1418 620 1419 c 256
 658 1420 722 1404 769 1386 c 257
 806 1502 l 257
 740 1529 669 1546 602 1548 c 256
 453 1552 277 1472 277 1183 c 258
 277 1096 l 261
 86 1096 l 261
 86 982 l 261
 277 982 l 261
 277 0 l 257
 448 0 l 257
 448 982 l 261
 956 982 l 261
 956 0 l 257
EndSplineSet
EndChar

StartChar: v
Encoding: 118 118 475
Width: 1080
VWidth: 0
GlyphClass: 2
Flags: HMW
PickledData: "(dp1
S'name'
p2
S'v'
sS'com.typemytype.robofont.layerData'
p3
(dp4
S'b'
(dp5
g2
S'v'
sS'lib'
p6
(dp7
sS'unicodes'
p8
(tsS'width'
p9
I1008
sS'contours'
p10
(tsS'components'
p11
(tsS'anchors'
p12
(tsssg8
(tsS'org.robofab.postScriptHintData'
p13
(dp14
sg9
I1009
sg10
(tsg11
(tsS'position'
p15
I1152
sg12
(ts."
LayerCount: 2
Fore
SplineSet
457 0 m 257
 623 0 l 257
 1020 1096 l 261
 854 1096 l 261
 547 198 l 257
 233 1096 l 261
 59 1096 l 261
 457 0 l 257
EndSplineSet
EndChar

StartChar: w
Encoding: 119 119 476
Width: 1584
VWidth: 0
GlyphClass: 2
Flags: HMW
PickledData: "(dp1
S'name'
p2
S'w'
sS'com.typemytype.robofont.layerData'
p3
(dp4
S'b'
(dp5
g2
S'w'
sS'lib'
p6
(dp7
sS'unicodes'
p8
(tsS'width'
p9
I1625
sS'contours'
p10
(tsS'components'
p11
(tsS'anchors'
p12
(tsssg8
(tsS'org.robofab.postScriptHintData'
p13
(dp14
sS'com.fontlab.hintData'
p15
(dp16
S'vhints'
p17
((dp18
S'position'
p19
I61
sg9
I161
stp20
ssg9
I1626
sg10
(tsg11
(tsg19
I1480
sg12
(ts."
AnchorPoint: "top" 801 1096 basechar 0
LayerCount: 2
Fore
SplineSet
1044 0 m 257
 1230 0 l 257
 1524 1096 l 261
 1359 1096 l 261
 1142 140 l 257
 893 1096 l 261
 707 1096 l 261
 444 142 l 257
 222 1096 l 261
 61 1096 l 261
 349 0 l 257
 533 0 l 257
 800 946 l 261
 1044 0 l 257
EndSplineSet
EndChar

StartChar: x
Encoding: 120 120 481
Width: 1047
VWidth: 0
GlyphClass: 2
Flags: HMW
PickledData: "(dp1
S'name'
p2
S'x'
sS'com.typemytype.robofont.layerData'
p3
(dp4
S'b'
(dp5
g2
S'x'
sS'lib'
p6
(dp7
sS'unicodes'
p8
(tsS'width'
p9
I937
sS'contours'
p10
(tsS'components'
p11
(tsS'anchors'
p12
(tsssg8
(tsS'org.robofab.postScriptHintData'
p13
(dp14
sg9
I938
sg10
(tsg11
(tsS'position'
p15
I1152
sg12
(ts."
LayerCount: 2
Fore
SplineSet
65 0 m 257
 243 0 l 257
 525 441 l 257
 797 0 l 257
 973 0 l 257
 611 549 l 257
 979 1096 l 261
 802 1096 l 261
 519 667 l 257
 238 1096 l 261
 60 1096 l 261
 432 549 l 257
 65 0 l 257
EndSplineSet
EndChar

StartChar: y
Encoding: 121 121 482
Width: 1086
VWidth: 0
GlyphClass: 2
Flags: HMW
PickledData: "(dp1
S'name'
p2
S'y'
sS'com.typemytype.robofont.layerData'
p3
(dp4
S'b'
(dp5
g2
S'y'
sS'lib'
p6
(dp7
sS'unicodes'
p8
(tsS'width'
p9
I1007
sS'contours'
p10
(tsS'components'
p11
(tsS'anchors'
p12
(tsssg8
(tsS'org.robofab.postScriptHintData'
p13
(dp14
sS'com.fontlab.hintData'
p15
(dp16
S'hhints'
p17
((dp18
S'position'
p19
I-398
sg9
I113
stp20
ssg9
I1008
sg10
(tsg11
(tsg19
I1152
sg12
(ts."
AnchorPoint: "top" 569 1096 basechar 0
LayerCount: 2
Fore
SplineSet
203 -398 m 257
 464 -398 542 -243 616 -35 c 258
 1027 1096 l 261
 848 1096 l 261
 562 204 l 257
 227 1096 l 261
 59 1096 l 261
 482 22 l 257
 424 -176 378 -275 166 -285 c 257
 203 -398 l 257
EndSplineSet
EndChar

StartChar: yen
Encoding: 165 165 486
Width: 1129
VWidth: 0
GlyphClass: 2
Flags: MW
PickledData: "(dp1
S'org.robofab.postScriptHintData'
p2
(dp3
sS'position'
p4
I427
sS'width'
p5
I105
s."
LayerCount: 2
Fore
SplineSet
1134 1486 m 257
 955 1486 l 257
 558 738 l 257
 162 1486 l 257
 -13 1486 l 257
 436 647 l 257
 191 647 l 257
 191 550 l 257
 475 550 l 257
 475 458 l 257
 191 458 l 257
 191 367 l 257
 475 367 l 257
 475 0 l 257
 650 0 l 257
 650 367 l 257
 928 367 l 257
 928 458 l 257
 650 458 l 257
 650 550 l 257
 928 550 l 257
 928 647 l 257
 681 647 l 257
 1134 1486 l 257
EndSplineSet
EndChar

StartChar: z
Encoding: 122 122 488
Width: 936
VWidth: 0
GlyphClass: 2
Flags: HMW
PickledData: "(dp1
S'name'
p2
S'z'
sS'com.typemytype.robofont.layerData'
p3
(dp4
S'b'
(dp5
g2
S'z'
sS'lib'
p6
(dp7
sS'unicodes'
p8
(tsS'width'
p9
I927
sS'contours'
p10
(tsS'components'
p11
(tsS'anchors'
p12
(tsssg8
(tsS'org.robofab.postScriptHintData'
p13
(dp14
sg9
I941
sg10
(tsg11
(tsS'position'
p15
I1099
sg12
(ts."
AnchorPoint: "top" 499 1096 basechar 0
LayerCount: 2
Fore
SplineSet
103 0 m 257
 834 0 l 257
 834 133 l 257
 288 133 l 257
 844 980 l 257
 844 1096 l 257
 132 1096 l 257
 132 967 l 257
 670 967 l 257
 103 126 l 257
 103 0 l 257
EndSplineSet
EndChar

StartChar: zero
Encoding: 48 48 492
Width: 1271
VWidth: 0
GlyphClass: 2
Flags: HMW
PickledData: "(dp1
S'org.robofab.postScriptHintData'
p2
(dp3
sS'position'
p4
I1116
sS'com.fontlab.hintData'
p5
(dp6
S'vhints'
p7
((dp8
g4
I99
sS'width'
p9
I172
s(dp10
g4
I994
sg9
I172
stp11
sS'hhints'
p12
((dp13
g4
I-17
sg9
I131
s(dp14
g4
I985
sg9
I130
stp15
ssg9
I109
s."
LayerCount: 2
Fore
SplineSet
631 111 m 260
 363 111 271 325 271 556 c 256
 271 776 359 986 631 986 c 256
 894 986 994 786 994 570 c 256
 994 336 911 111 631 111 c 260
631 -20 m 260
 977 -20 1166 235 1166 555 c 256
 1166 865 979 1116 631 1116 c 256
 281 1116 99 868 99 555 c 256
 99 241 287 -20 631 -20 c 260
EndSplineSet
EndChar
